<?xml version="1.0" encoding="UTF-8" standalone="no"?>
<!-- Created with Inkscape (http://www.inkscape.org/) -->

<svg
   xmlns:dc="http://purl.org/dc/elements/1.1/"
   xmlns:cc="http://creativecommons.org/ns#"
   xmlns:rdf="http://www.w3.org/1999/02/22-rdf-syntax-ns#"
   xmlns:svg="http://www.w3.org/2000/svg"
   xmlns="http://www.w3.org/2000/svg"
   xmlns:sodipodi="http://sodipodi.sourceforge.net/DTD/sodipodi-0.dtd"
   xmlns:inkscape="http://www.inkscape.org/namespaces/inkscape"
   width="21.177803mm"
   height="11.584181mm"
   viewBox="0 0 21.177803 11.584181"
   version="1.1"
   id="svg14288"
   inkscape:version="0.92.1 r15371"
   sodipodi:docname="corner-t-l.svg">
  <defs
     id="defs14282" />
  <sodipodi:namedview
     id="base"
     pagecolor="#ffffff"
     bordercolor="#666666"
     borderopacity="1.0"
     inkscape:pageopacity="0.0"
     inkscape:pageshadow="2"
     inkscape:zoom="2.8"
     inkscape:cx="-35.979454"
     inkscape:cy="-56.828213"
     inkscape:document-units="mm"
     inkscape:current-layer="layer1"
     showgrid="false"
     fit-margin-top="0"
     fit-margin-left="0"
     fit-margin-right="0"
     fit-margin-bottom="0"
     inkscape:window-width="1920"
     inkscape:window-height="1026"
     inkscape:window-x="0"
     inkscape:window-y="31"
     inkscape:window-maximized="1" />
  <metadata
     id="metadata14285">
    <rdf:RDF>
      <cc:Work
         rdf:about="">
        <dc:format>image/svg+xml</dc:format>
        <dc:type
           rdf:resource="http://purl.org/dc/dcmitype/StillImage" />
        <dc:title></dc:title>
      </cc:Work>
    </rdf:RDF>
  </metadata>
  <g
     inkscape:label="Layer 1"
     inkscape:groupmode="layer"
     id="layer1"
     transform="translate(-82.301347,-76.430498)">
    <g
       id="g14867"
       style="fill:#c6c6c6;fill-opacity:1">
      <path
         d="m 93.481747,77.719506 v -0.912989 h 0.21071 c -0.02,0.316794 -0.0952,0.621947 -0.21071,0.912989 z m -0.20063,0.422275 c -0.0882,0.152752 -0.1917,0.298802 -0.30455,0.439561 v -1.774825 h 0.30455 z m -0.50464,0.672394 c -0.0948,0.101247 -0.19749,0.197207 -0.30498,0.290337 v -2.297995 h 0.30498 z m -0.50504,0.456847 c -0.097,0.0744 -0.19943,0.14429 -0.30441,0.21131 v -2.675815 h 0.30441 z m -0.50493,0.32914 c -0.0988,0.0561 -0.19982,0.10972 -0.30427,0.15981 v -2.953455 h 0.30427 z m -0.50423,0.2533 c -0.0991,0.042 -0.20161,0.0801 -0.30508,0.11641 v -3.163355 h 0.30508 z m -0.5056,0.18415 c -0.0999,0.031 -0.2009,0.0603 -0.30413,0.0857 v -3.316815 h 0.30413 z m -0.50451,0.12911 c -0.10057,0.0212 -0.20171,0.0416 -0.3048,0.0572 v -3.417355 h 0.3048 z m -0.50503,0.0804 c -0.10114,0.012 -0.20147,0.0215 -0.30456,0.0279 v -3.468516 h 0.30456 z m -0.50507,0.036 c -0.0508,10e-4 -0.10072,0.006 -0.15212,0.006 h -0.004 c -0.0453,0 -0.1003,-0.002 -0.14895,-0.003 v -3.479445 h 0.30452 z m -0.50504,-0.001 c -0.0966,-0.004 -0.19995,-0.0106 -0.30399,-0.0173 v -3.458277 h 0.30399 z m -0.5049,-0.03 c -0.0984,-0.008 -0.20147,-0.0226 -0.30388,-0.0349 l -2.9e-4,-3.410657 h 0.30417 z m -0.50436,-0.0589 c -0.10033,-0.0148 -0.2026,-0.036 -0.30484,-0.055 v -3.332343 h 0.30484 z m -0.50507,-0.0924 c -0.10182,-0.0229 -0.20313,-0.0529 -0.30466,-0.0808 v -3.214164 h 0.30466 z m -0.50476,-0.13441 c -0.10417,-0.0328 -0.20383,-0.0748 -0.30498,-0.115 v -3.045534 h 0.30498 z m -0.50546,-0.19332 c -0.10544,-0.0476 -0.20479,-0.10513 -0.30427,-0.16192 v -2.805294 h 0.30427 z m -0.24035,1.57798 h -3.29515 v -0.3041 h 3.2144 c 0.028,0.10195 0.0581,0.20214 0.0807,0.3041 z m 0.0923,0.50517 h -3.38667 l -8.2e-4,-0.30444 h 3.33209 c 0.0193,0.10195 0.0401,0.2039 0.0554,0.30444 z m 0.0591,0.50483 h -3.44579 v -0.3048 l 3.41065,10e-4 c 0.0124,0.10195 0.0266,0.20567 0.0351,0.30374 z m 0.0296,0.50518 h -3.47542 v -0.3048 h 3.45846 c 0.007,0.10442 0.0136,0.20849 0.017,0.3048 z m 0.007,0.35277 c 0,0.0511 -0.005,0.10125 -0.006,0.1517 h -3.47666 v -0.30445 h 3.47998 c 1.4e-4,0.0497 0.003,0.10619 0.003,0.15275 z m -0.0416,0.65652 h -3.4411 v -0.30444 h 3.46907 c -0.006,0.10301 -0.0165,0.20355 -0.028,0.30444 z m -0.0812,0.505527 h -3.35992 v -0.305497 h 3.41739 c -0.0155,0.104067 -0.0362,0.204957 -0.0575,0.305497 z m -0.12827,0.50412 h -3.23165 v -0.30374 h 3.31777 c -0.0259,0.10301 -0.0553,0.20461 -0.0861,0.30374 z m -0.18453,0.50553 h -3.04712 v -0.30515 h 3.16413 c -0.0368,0.10336 -0.0746,0.20567 -0.11701,0.30515 z m -0.25316,0.50412 h -2.79396 v -0.30374 h 2.95384 c -0.0509,0.10407 -0.10393,0.20496 -0.15988,0.30374 z m -0.3285,0.50483 h -2.46546 v -0.3041 h 2.67642 c -0.0671,0.10513 -0.13695,0.20708 -0.21096,0.3041 z m -0.45766,0.50553 h -2.0078 v -0.3048 h 2.29845 c -0.093,0.10725 -0.18951,0.2099 -0.29065,0.3048 z m -0.67204,0.50482 h -1.33576 v -0.3048 h 1.77546 c -0.14136,0.11289 -0.28702,0.21661 -0.4397,0.3048 z m -1.33576,0.41099 v -0.21096 h 0.91352 c -0.29119,0.11536 -0.59655,0.1912 -0.91352,0.21096 z m -8.2e-4,-7.279917 h 3.04655 c 0.0397,0.10124 0.0819,0.20108 0.11494,0.3055 h -3.16148 z m 0,-0.50412 h 2.80705 c 0.0564,0.0998 0.11398,0.19861 0.16164,0.30409 h -2.96868 z m 0,-0.50518 h 2.4518 c 0.0855,0.0949 0.1626,0.1972 0.234,0.30445 h -2.68579 z m 0,-0.50518 h 2.22098 l 6.6e-4,7.2e-4 v -2.221454 h 0.30427 v 2.525534 h -2.52592 z m 0,-0.50447 h 1.71633 l 2.9e-4,7.15e-4 v -1.716979 h 0.30495 v 2.021064 l -6.7e-4,-3.44e-4 h -2.02088 z m 0,-0.504825 h 1.21158 l 5.3e-4,7.15e-4 v -1.212154 h 0.30441 v 1.515887 h -6.6e-4 -1.51585 z m 0,-0.504825 h 0.70637 l 1.4e-4,3.44e-4 v -0.706958 h 0.30497 v 1.011062 h -1.4e-4 -1.01134 z m 0,-0.504825 h 0.20147 5.3e-4 v -0.201789 h 0.30455 v 0.505884 h -0.50655 z m 0,-0.201789 h 0.002 v 0.0014 -7.14e-4 h -0.002 z m 2.72644,0 h 0.30441 v 2.683934 c -0.10706,-0.072 -0.20962,-0.14817 -0.30441,-0.23319 z m 8.4828,-0.375355 h -11.58448 l 8.4e-4,11.584156 h 1.27413 c 0.58593,-0.20143 1.11785,-0.56091 1.56432,-1.04069 0.49597,0.40393 1.05093,0.79728 1.44904,1.01917 l 0.037,0.0215 h 0.42348 c 0,-0.17145 -0.14771,-0.27728 -0.27669,-0.34925 -0.37278,-0.20813 -0.91408,-0.5909 -1.38673,-0.97507 0.70954,-0.89853 1.14847,-2.12231 1.14847,-3.471337 0,-0.79586 -0.0918,-2.10996 -0.61049,-3.16582 1.05365,0.51893 2.36623,0.61101 3.16135,0.61101 h 0.003 c 1.34952,0 2.5732,-0.43956 3.4714,-1.14865 0.38407,0.47272 0.76716,1.01353 0.97593,1.38712 0.0719,0.12877 0.17695,0.27694 0.34893,0.27694 v -0.42404 l -0.0215,-0.0363 c -0.22332,-0.39899 -0.61578,-0.95426 -1.01954,-1.44956 0.47971,-0.447326 0.83923,-0.978963 1.04098,-1.565279 v -1.273878"
         style="fill:#c6c6c6;fill-opacity:1;fill-rule:nonzero;stroke:none;stroke-width:0.03527778"
         id="path4742"
         inkscape:connector-curvature="0" />
      <path
         d="m 103.07441,77.719506 -1.4e-4,-0.913695 0.21124,7.15e-4 c -0.0203,0.316794 -0.0957,0.621594 -0.2111,0.912989 z m -0.20062,0.421569 c -0.0875,0.153458 -0.19089,0.299508 -0.30413,0.440267 v -1.774825 l 0.30413,-7.15e-4 z m -0.50465,0.673806 c -0.0951,0.100541 -0.19692,0.196501 -0.30427,0.289631 l -2.8e-4,-2.298701 h 0.30455 z m -0.50479,0.456141 c -0.0974,0.0744 -0.19925,0.14429 -0.3048,0.21131 v -2.676521 l 0.3048,7.15e-4 z m -0.50504,0.32844 c -0.0985,0.0568 -0.19995,0.11042 -0.30427,0.16051 l -4.2e-4,-2.954161 h 0.30469 z m -0.50493,0.254 c -0.0993,0.042 -0.20076,0.0801 -0.30413,0.11641 l -2.5e-4,-3.163355 0.30438,-7.15e-4 z m -0.50489,0.18415 c -0.0998,0.031 -0.20091,0.0603 -0.30484,0.0864 v -3.318231 l 0.30484,7.15e-4 z m -0.809213,0.18626 v -3.417355 l 0.30417,-7.15e-4 5.3e-4,3.36091 c -0.101,0.0212 -0.20147,0.0416 -0.3047,0.0571 z m -0.20048,0.0236 c -0.10075,0.0116 -0.20147,0.0212 -0.30413,0.0275 l -4.2e-4,-3.469221 h 0.30455 z m -0.50465,0.0356 c -0.051,10e-4 -0.10047,0.006 -0.1524,0.006 -0.0514,0 -0.1017,-0.005 -0.15254,-0.006 v -3.476626 h 0.30494 z m -0.50504,-0.008 c -0.10279,-0.006 -0.20369,-0.0166 -0.30483,-0.0279 l 5.6e-4,-3.440642 h 0.30427 z m -0.5045,-0.0519 c -0.10308,-0.0145 -0.20437,-0.0353 -0.30498,-0.0565 v -3.360911 l 0.30498,7.15e-4 z m -0.80987,-0.18556 -7.1e-4,-3.231801 h 0.30512 l 4.2e-4,3.317521 c -0.10336,-0.0254 -0.20507,-0.0547 -0.30483,-0.0857 z m -0.50494,-0.18415 -1e-4,-3.046945 0.30438,-7.15e-4 2.9e-4,3.16406 c -0.10309,-0.0367 -0.20546,-0.0744 -0.30456,-0.11641 z m -0.20062,-0.0938 c -0.10418,-0.0497 -0.2056,-0.10372 -0.30427,-0.16016 v -2.793651 h 0.30427 z m -0.50493,-0.27764 c -0.10499,-0.067 -0.20683,-0.13652 -0.30413,-0.21167 l -1.4e-4,-2.464501 0.30483,7.15e-4 z m -0.50447,-0.37782 c -0.10749,-0.0928 -0.20948,-0.18909 -0.30484,-0.290692 l 8.2e-4,-2.006953 0.30403,-7.15e-4 z m -0.50465,-0.52282 c -0.11314,-0.141464 -0.21678,-0.287514 -0.30441,-0.44062 l -5.6e-4,-1.334911 0.30498,7.15e-4 z m -0.50518,-0.862895 c -0.11493,-0.291041 -0.19032,-0.595136 -0.21071,-0.912636 h 0.21071 z m 9.188203,-1.286933 -9.404983,3.44e-4 v -0.0014 h -0.18796 v 1.27388 l 4.2e-4,-3.44e-4 c 0.20147,0.586317 0.56085,1.118306 1.04056,1.565628 -0.39882,0.48966 -0.7994,1.05481 -1.0195,1.44921 l -0.0215,0.0367 v 0.42404 c 0.17212,0 0.27686,-0.14817 0.34908,-0.27728 0.20972,-0.37501 0.59266,-0.91581 0.97578,-1.38677 0.89835,0.70943 2.12259,1.14899 3.47197,1.14899 1.349513,-3.4e-4 2.572243,-0.44026 3.470703,-1.1497 0.38364,0.47131 0.76662,1.01247 0.97677,1.38783 0.0717,0.12876 0.17653,0.27693 0.34865,0.27693 v -0.42404 l -0.0217,-0.0367 c -0.22007,-0.39335 -0.62107,-0.95956 -1.01918,-1.44851 0.47597,-0.443086 0.83784,-0.96943 1.04083,-1.550455 v -1.288344"
         style="fill:#c6c6c6;fill-opacity:1;fill-rule:nonzero;stroke:none;stroke-width:0.03527778"
         id="path4746"
         inkscape:connector-curvature="0" />
    </g>
  </g>
</svg>
