<?xml version="1.0" encoding="UTF-8" standalone="no"?>
<svg
   xmlns:dc="http://purl.org/dc/elements/1.1/"
   xmlns:cc="http://creativecommons.org/ns#"
   xmlns:rdf="http://www.w3.org/1999/02/22-rdf-syntax-ns#"
   xmlns:svg="http://www.w3.org/2000/svg"
   xmlns="http://www.w3.org/2000/svg"
   xmlns:sodipodi="http://sodipodi.sourceforge.net/DTD/sodipodi-0.dtd"
   xmlns:inkscape="http://www.inkscape.org/namespaces/inkscape"
   enable-background="new 0 0 1682 1682"
   version="1.1"
   viewBox="0 0 1599.9969 1599.998"
   xml:space="preserve"
   id="svg4"
   sodipodi:docname="decorative-1801460.svg"
   width="1599.9969"
   height="1599.998"
   inkscape:version="0.92.1 r15371"><metadata
     id="metadata10"><rdf:RDF><cc:Work
         rdf:about=""><dc:format>image/svg+xml</dc:format><dc:type
           rdf:resource="http://purl.org/dc/dcmitype/StillImage" /><dc:title></dc:title></cc:Work></rdf:RDF></metadata><defs
     id="defs8" /><sodipodi:namedview
     pagecolor="#ffffff"
     bordercolor="#666666"
     borderopacity="1"
     objecttolerance="10"
     gridtolerance="10"
     guidetolerance="10"
     inkscape:pageopacity="0"
     inkscape:pageshadow="2"
     inkscape:window-width="1920"
     inkscape:window-height="1026"
     id="namedview6"
     showgrid="false"
     fit-margin-top="0"
     fit-margin-left="0"
     fit-margin-right="0"
     fit-margin-bottom="0"
     inkscape:zoom="0.14030916"
     inkscape:cx="814.32424"
     inkscape:cy="800.213"
     inkscape:window-x="0"
     inkscape:window-y="31"
     inkscape:window-maximized="1"
     inkscape:current-layer="svg4" /><path
     d="m 1525.87,74.015 c -1.304,0.12 -2.881,0.253 -4.359,0.364 -4.883,0.366 -6.439,5.704 -3.386,7.382 1.678,3.053 7.015,1.498 7.382,-3.386 0.111,-1.478 0.243,-3.056 0.363,-4.36 z m 0,1451.5 c -0.12,-1.304 -0.253,-2.881 -0.364,-4.359 -0.366,-4.883 -5.704,-6.439 -7.382,-3.386 -3.053,1.678 -1.497,7.015 3.386,7.382 1.479,0.111 3.057,0.243 4.36,0.363 z m -1451.5,0 c 1.304,-0.12 2.881,-0.253 4.359,-0.364 4.884,-0.366 6.439,-5.704 3.386,-7.382 -1.678,-3.053 -7.015,-1.497 -7.382,3.386 -0.11,1.479 -0.242,3.057 -0.363,4.36 z m 0,-1451.5 c 0.12,1.304 0.253,2.881 0.364,4.359 0.366,4.884 5.704,6.439 7.382,3.386 3.053,-1.678 1.498,-7.015 -3.386,-7.382 -1.478,-0.11 -3.056,-0.242 -4.36,-0.363 z m 1441,10.58 c -8.454,-7.105 -10.041,-5.705 -2.532,2.532 8.237,7.509 9.637,5.922 2.532,-2.532 z m 0,1430.4 c 7.105,-8.454 5.705,-10.041 -2.532,-2.532 -7.509,8.237 -5.922,9.637 2.532,2.532 z m -1430.4,0 c 8.454,7.105 10.041,5.705 2.532,-2.532 -8.237,-7.509 -9.637,-5.922 -2.532,2.532 z m 0,-1430.4 c -7.105,8.454 -5.705,10.041 2.532,2.532 7.509,-8.237 5.922,-9.637 -2.532,-2.532 z m 1423.7,6.643 c -10.33,-8.972 -13.238,-5.91 -3.263,3.263 9.173,9.975 12.235,7.068 3.263,-3.263 z m 0,1417.1 c 8.972,-10.33 5.91,-13.238 -3.263,-3.263 -9.975,9.173 -7.068,12.235 3.263,3.263 z m -1417.1,0 c 10.33,8.972 13.238,5.91 3.263,-3.263 -9.173,-9.975 -12.235,-7.068 -3.263,3.263 z m 0,-1417.1 c -8.972,10.33 -5.91,13.238 3.263,3.263 9.975,-9.173 7.068,-12.235 -3.263,-3.263 z m 1260.9,45.909 c -0.833,-1.348 -3.094,-0.744 -5.239,1.401 -2.075,2.075 -6.226,3.79 -9.225,3.811 -8.012,0.056 -0.667,4.554 7.594,2.975 9.593,-1.834 3.623,4.436 -1.307,4.85 -4.386,0.368 12.445,4.847 23.841,0.332 19.621,-7.772 5.275,4.318 1.798,4.318 -3.625,0 -17.374,10.488 20.179,-0.786 l -10.01,11.461 c 4.311,-1.271 11.525,-3.067 18.012,-7.154 8.035,-5.062 11.686,0.814 16.429,-2.853 2.67,-2.065 17.332,-9.105 6.85,-0.757 -9.13,7.271 -16.652,3.175 -23.921,8.96 -9.443,7.516 22.689,0.28 35.278,-5.483 15.424,-7.061 32.446,-23.099 37.594,-35.422 4.978,-11.913 4.584,-34.809 -0.783,-45.497 -5.412,-10.779 -23.519,-19.311 -34.742,-16.371 -22.227,5.823 42.007,-2.084 19.052,48.504 -4.293,9.46 -5.745,10.707 -10.945,9.402 -3.894,-0.977 -6.457,-0.304 -7.31,1.92 -4.113,10.72 -43.021,26.183 -27.391,15.236 6.604,-4.626 10.045,-19.671 5.697,-24.91 -10.087,-12.155 -54.64,37.085 -61.451,26.063 z m -1215,110.25 c -1.348,0.833 -0.744,3.094 1.401,5.239 2.075,2.075 3.79,6.226 3.811,9.225 0.056,8.012 4.554,0.668 2.975,-7.594 -1.834,-9.593 4.436,-3.623 4.85,1.307 0.368,4.386 4.847,-12.445 0.332,-23.841 -7.772,-19.621 4.318,-5.275 4.318,-1.798 0,3.625 10.488,17.374 -0.786,-20.179 l 11.461,10.01 c -1.271,-4.311 -3.067,-11.525 -7.154,-18.012 -5.062,-8.035 0.814,-11.686 -2.853,-16.429 -2.065,-2.67 -9.105,-17.332 -0.757,-6.85 7.271,9.13 3.175,16.652 8.96,23.921 7.516,9.443 0.28,-22.689 -5.483,-35.278 -7.061,-15.424 -23.099,-32.445 -35.422,-37.594 -11.913,-4.978 -34.809,-4.584 -45.497,0.783 -10.779,5.412 -19.311,23.519 -16.371,34.742 5.823,22.227 -2.084,-42.007 48.504,-19.052 9.46,4.293 10.707,5.745 9.402,10.945 -0.977,3.894 -0.304,6.457 1.92,7.31 10.72,4.113 26.183,43.02 15.236,27.391 -4.626,-6.604 -19.671,-10.045 -24.91,-5.697 -12.155,10.087 37.085,54.64 26.063,61.451 z m 110.25,1215 c 0.833,1.349 3.094,0.744 5.239,-1.401 2.075,-2.075 6.226,-3.79 9.225,-3.811 8.012,-0.056 0.668,-4.554 -7.594,-2.975 -9.593,1.834 -3.623,-4.436 1.307,-4.85 4.386,-0.368 -12.445,-4.847 -23.841,-0.332 -19.621,7.772 -5.275,-4.318 -1.798,-4.318 3.625,0 17.374,-10.488 -20.179,0.786 l 10.01,-11.461 c -4.311,1.271 -11.525,3.067 -18.012,7.154 -8.035,5.062 -11.686,-0.814 -16.429,2.853 -2.67,2.065 -17.332,9.105 -6.85,0.757 9.13,-7.271 16.652,-3.175 23.921,-8.959 9.443,-7.516 -22.689,-0.28 -35.278,5.483 -15.424,7.061 -32.445,23.099 -37.594,35.422 -4.978,11.913 -4.584,34.809 0.783,45.497 5.412,10.779 23.519,19.311 34.742,16.371 22.227,-5.823 -42.007,2.084 -19.052,-48.504 4.293,-9.46 5.745,-10.708 10.945,-9.402 3.894,0.977 6.457,0.304 7.31,-1.92 4.113,-10.719 43.02,-26.183 27.391,-15.236 -6.604,4.626 -10.045,19.671 -5.697,24.91 10.087,12.154 54.64,-37.086 61.451,-26.064 z m 1215,-110.25 c 1.349,-0.833 0.744,-3.094 -1.401,-5.239 -2.075,-2.075 -3.79,-6.226 -3.811,-9.225 -0.056,-8.012 -4.554,-0.667 -2.975,7.594 1.834,9.593 -4.436,3.623 -4.85,-1.307 -0.368,-4.386 -4.847,12.445 -0.332,23.841 7.772,19.621 -4.318,5.275 -4.318,1.798 0,-3.625 -10.488,-17.374 0.786,20.179 l -11.461,-10.01 c 1.271,4.311 3.067,11.525 7.154,18.012 5.062,8.035 -0.814,11.686 2.853,16.429 2.065,2.67 9.105,17.332 0.757,6.85 -7.271,-9.13 -3.175,-16.652 -8.959,-23.921 -7.516,-9.443 -0.28,22.689 5.483,35.278 7.061,15.424 23.099,32.446 35.422,37.594 11.913,4.978 34.809,4.584 45.497,-0.783 10.779,-5.412 19.311,-23.519 16.371,-34.742 -5.823,-22.227 2.084,42.007 -48.504,19.052 -9.46,-4.293 -10.708,-5.745 -9.402,-10.945 0.977,-3.894 0.304,-6.457 -1.92,-7.31 -10.719,-4.113 -26.183,-43.021 -15.236,-27.391 4.626,6.604 19.671,10.045 24.91,5.697 12.154,-10.087 -37.086,-54.64 -26.064,-61.451 z m 26.064,-1166.2 c -5.239,-4.348 -20.284,-0.907 -24.91,5.697 -10.947,15.629 4.516,-23.278 15.236,-27.391 2.224,-0.854 2.898,-3.417 1.92,-7.31 -1.305,-5.201 -0.058,-6.653 9.402,-10.945 50.588,-22.955 42.682,41.279 48.504,19.052 2.94,-11.223 -5.593,-29.33 -16.371,-34.742 -10.688,-5.367 -33.584,-5.761 -45.497,-0.783 -12.323,5.149 -28.361,22.17 -35.422,37.594 -5.764,12.589 -12.999,44.721 -5.483,35.278 5.785,-7.269 1.689,-14.791 8.959,-23.921 8.348,-10.482 1.308,4.18 -0.757,6.85 -3.667,4.743 2.209,8.394 -2.853,16.429 -4.087,6.487 -5.883,13.701 -7.154,18.012 l 11.461,-10.01 c -11.273,37.552 -0.786,23.804 -0.786,20.179 0,-3.476 12.09,-17.822 4.318,1.798 -4.514,11.396 -0.036,28.227 0.332,23.841 0.414,-4.93 6.683,-10.9 4.85,-1.307 -1.579,8.262 2.918,15.606 2.975,7.594 0.021,-2.998 1.736,-7.149 3.811,-9.225 2.145,-2.145 2.749,-4.406 1.401,-5.239 -11.022,-6.812 38.218,-51.365 26.064,-61.451 z m -1302.5,-74.862 c -4.348,5.239 -0.907,20.284 5.697,24.91 15.629,10.947 -23.278,-4.516 -27.391,-15.236 -0.854,-2.224 -3.417,-2.898 -7.31,-1.92 -5.201,1.305 -6.653,0.058 -10.945,-9.402 -22.955,-50.588 41.279,-42.682 19.052,-48.504 -11.223,-2.94 -29.33,5.593 -34.742,16.371 -5.367,10.688 -5.761,33.584 -0.783,45.497 5.149,12.323 22.17,28.361 37.594,35.422 12.589,5.764 44.721,12.999 35.278,5.483 -7.269,-5.785 -14.791,-1.689 -23.921,-8.96 -10.482,-8.347 4.18,-1.308 6.85,0.757 4.743,3.667 8.394,-2.209 16.429,2.853 6.487,4.087 13.701,5.883 18.012,7.154 l -10.01,-11.461 c 37.552,11.274 23.804,0.786 20.179,0.786 -3.476,0 -17.822,-12.09 1.798,-4.318 11.396,4.514 28.227,0.036 23.841,-0.332 -4.93,-0.414 -10.9,-6.683 -1.307,-4.85 8.262,1.579 15.606,-2.918 7.594,-2.975 -2.998,-0.021 -7.149,-1.736 -9.225,-3.811 -2.145,-2.145 -4.406,-2.749 -5.239,-1.401 -6.812,11.023 -51.365,-38.217 -61.451,-26.063 z m -74.862,1302.5 c 5.239,4.348 20.284,0.907 24.91,-5.697 10.947,-15.629 -4.516,23.278 -15.236,27.391 -2.224,0.854 -2.898,3.417 -1.92,7.31 1.305,5.201 0.058,6.653 -9.402,10.945 -50.588,22.955 -42.682,-41.279 -48.504,-19.052 -2.94,11.223 5.593,29.33 16.371,34.742 10.688,5.367 33.584,5.761 45.497,0.783 12.323,-5.149 28.361,-22.17 35.422,-37.594 5.764,-12.589 12.999,-44.721 5.483,-35.278 -5.785,7.269 -1.689,14.791 -8.96,23.921 -8.347,10.482 -1.308,-4.18 0.757,-6.85 3.667,-4.743 -2.209,-8.394 2.853,-16.429 4.087,-6.487 5.883,-13.701 7.154,-18.012 l -11.461,10.01 c 11.274,-37.552 0.786,-23.804 0.786,-20.179 0,3.476 -12.09,17.822 -4.318,-1.798 4.514,-11.396 0.036,-28.227 -0.332,-23.841 -0.414,4.93 -6.683,10.9 -4.85,1.307 1.579,-8.262 -2.918,-15.606 -2.975,-7.594 -0.021,2.998 -1.736,7.15 -3.811,9.225 -2.145,2.145 -2.749,4.406 -1.401,5.239 11.023,6.812 -38.217,51.365 -26.063,61.451 z m 1302.5,74.862 c 4.348,-5.239 0.907,-20.284 -5.697,-24.91 -15.629,-10.947 23.278,4.516 27.391,15.236 0.854,2.224 3.417,2.898 7.31,1.92 5.201,-1.305 6.653,-0.058 10.945,9.402 22.955,50.588 -41.279,42.682 -19.052,48.504 11.223,2.94 29.33,-5.593 34.742,-16.371 5.367,-10.688 5.761,-33.584 0.783,-45.497 -5.149,-12.323 -22.17,-28.361 -37.594,-35.422 -12.589,-5.764 -44.721,-12.999 -35.278,-5.483 7.269,5.785 14.791,1.689 23.921,8.959 10.482,8.348 -4.18,1.308 -6.85,-0.757 -4.743,-3.667 -8.394,2.209 -16.429,-2.853 -6.487,-4.087 -13.701,-5.883 -18.012,-7.154 l 10.01,11.461 c -37.552,-11.273 -23.804,-0.786 -20.179,-0.786 3.476,0 17.822,12.09 -1.798,4.318 -11.396,-4.514 -28.227,-0.036 -23.841,0.332 4.93,0.414 10.9,6.683 1.307,4.85 -8.262,-1.579 -15.606,2.918 -7.594,2.975 2.998,0.021 7.15,1.736 9.225,3.811 2.145,2.145 4.406,2.749 5.239,1.401 6.812,-11.022 51.365,38.218 61.451,26.064 z m -117.24,-1389.4 c 15.777,19.067 49.878,9.638 38.617,16.177 -9.652,5.604 -44.101,-10.106 -29.366,2.169 4.765,3.97 9.848,4.952 26.276,5.08 33.346,0.259 4.35,5.578 -2.154,6.176 -13.302,1.224 -13.26,1.203 -7.507,3.675 6.945,2.984 12.326,2.937 24.866,-0.221 47.552,-11.974 43.785,-82.275 18.869,-53.898 -13.948,15.886 -40.022,22.759 -58.152,15.329 -9.337,-3.827 4.65,9.912 -6.812,3.778 -4.535,-2.427 -5.003,-3.518 -2.256,-5.258 7.087,-4.489 -10.354,-2.642 -2.381,6.993 z m -1197.3,204.15 c 19.067,-15.777 9.638,-49.878 16.177,-38.617 5.604,9.653 -10.106,44.101 2.169,29.366 3.97,-4.765 4.952,-9.848 5.08,-26.276 0.259,-33.346 5.578,-4.35 6.176,2.154 1.224,13.302 1.203,13.26 3.675,7.507 2.984,-6.945 2.937,-12.326 -0.221,-24.866 -11.974,-47.552 -82.275,-43.784 -53.898,-18.869 15.886,13.948 22.759,40.022 15.329,58.152 -3.827,9.337 9.912,-4.65 3.778,6.812 -2.427,4.535 -3.518,5.003 -5.258,2.256 -4.489,-7.087 -2.642,10.354 6.993,2.381 z m 204.15,1197.3 c -15.777,-19.067 -49.878,-9.638 -38.617,-16.177 9.653,-5.604 44.101,10.106 29.366,-2.169 -4.765,-3.97 -9.848,-4.952 -26.276,-5.08 -33.346,-0.26 -4.35,-5.578 2.154,-6.176 13.302,-1.224 13.26,-1.203 7.507,-3.675 -6.945,-2.984 -12.326,-2.937 -24.866,0.221 -47.552,11.974 -43.784,82.275 -18.869,53.898 13.948,-15.886 40.022,-22.759 58.152,-15.329 9.337,3.827 -4.65,-9.912 6.812,-3.778 4.535,2.427 5.003,3.518 2.256,5.258 -7.087,4.489 10.354,2.642 2.381,-6.993 z m 1197.3,-204.15 c -19.067,15.777 -9.638,49.878 -16.177,38.617 -5.604,-9.652 10.106,-44.101 -2.169,-29.366 -3.97,4.765 -4.952,9.848 -5.08,26.276 -0.26,33.346 -5.578,4.35 -6.176,-2.154 -1.224,-13.302 -1.203,-13.26 -3.675,-7.507 -2.984,6.945 -2.937,12.326 0.221,24.866 11.974,47.552 82.275,43.785 53.898,18.869 -15.886,-13.948 -22.759,-40.022 -15.329,-58.152 3.827,-9.337 -9.912,4.65 -3.778,-6.812 2.427,-4.535 3.518,-5.003 5.258,-2.256 4.489,7.087 2.642,-10.354 -6.993,-2.381 z m 6.993,-995.57 c -1.74,2.747 -2.831,2.279 -5.258,-2.256 -6.135,-11.462 7.604,2.525 3.778,-6.812 -7.43,-18.13 -0.557,-44.205 15.329,-58.152 28.377,-24.915 -41.924,-28.683 -53.898,18.869 -3.158,12.54 -3.205,17.921 -0.221,24.866 2.472,5.752 2.451,5.794 3.675,-7.507 0.598,-6.504 5.917,-35.501 6.176,-2.154 0.128,16.428 1.111,21.511 5.08,26.276 12.275,14.735 -3.435,-19.713 2.169,-29.366 6.538,-11.261 -2.89,22.84 16.177,38.617 9.635,7.972 11.482,-9.469 6.993,-2.381 z M 301.125,92.017 c 2.747,1.74 2.279,2.831 -2.256,5.258 -11.462,6.135 2.525,-7.605 -6.812,-3.778 -18.13,7.43 -44.205,0.557 -58.152,-15.329 -24.915,-28.377 -28.683,41.924 18.869,53.898 12.54,3.158 17.921,3.205 24.866,0.221 5.752,-2.472 5.794,-2.451 -7.507,-3.675 -6.504,-0.598 -35.501,-5.917 -2.154,-6.176 16.428,-0.128 21.511,-1.111 26.276,-5.08 14.735,-12.275 -19.713,3.435 -29.366,-2.169 -11.261,-6.538 22.84,2.89 38.617,-16.177 7.972,-9.635 -9.469,-11.482 -2.381,-6.993 z m -208.76,1206.7 c 1.74,-2.747 2.831,-2.279 5.258,2.256 6.135,11.462 -7.605,-2.525 -3.778,6.812 7.43,18.13 0.557,44.205 -15.329,58.152 -28.377,24.915 41.924,28.683 53.898,-18.869 3.158,-12.54 3.205,-17.921 0.221,-24.866 -2.472,-5.752 -2.451,-5.794 -3.675,7.507 -0.598,6.504 -5.917,35.501 -6.176,2.154 -0.128,-16.428 -1.111,-21.511 -5.08,-26.276 -12.275,-14.735 3.435,19.714 -2.169,29.366 -6.538,11.261 2.89,-22.84 -16.177,-38.617 -9.635,-7.972 -11.482,9.469 -6.993,2.381 z m 1206.7,208.76 c -2.747,-1.74 -2.279,-2.831 2.256,-5.258 11.462,-6.135 -2.525,7.604 6.812,3.778 18.13,-7.43 44.205,-0.557 58.152,15.329 24.915,28.377 28.683,-41.924 -18.869,-53.898 -12.54,-3.158 -17.921,-3.205 -24.866,-0.221 -5.752,2.472 -5.794,2.451 7.507,3.675 6.504,0.598 35.501,5.917 2.154,6.176 -16.428,0.128 -21.511,1.111 -26.276,5.08 -14.735,12.275 19.714,-3.435 29.366,2.169 11.261,6.538 -22.84,-2.89 -38.617,16.177 -7.972,9.635 9.469,11.482 2.381,6.993 z M 1271.25,84.577 c 0,-2.671 -1.533,-4.857 -3.407,-4.857 -7.459,-0.001 3.407,21.677 3.407,4.857 z m -1186.3,244 c -2.671,0 -4.857,1.533 -4.857,3.407 -0.001,7.459 21.677,-3.407 4.857,-3.407 z m 244,1186.3 c 0,2.671 1.533,4.857 3.407,4.857 7.459,0 -3.407,-21.678 -3.407,-4.857 z m 1186.3,-244 c 2.671,0 4.857,-1.533 4.857,-3.407 0,-7.459 -21.678,3.407 -4.857,3.407 z m 4.857,-938.92 c 0,-1.874 -2.186,-3.407 -4.857,-3.407 -16.821,0 4.857,10.866 4.857,3.407 z M 332.307,79.687 c -1.874,0 -3.407,2.186 -3.407,4.857 0,16.821 10.866,-4.857 3.407,-4.857 z m -252.27,1187.8 c 0,1.874 2.186,3.407 4.857,3.407 16.821,0 -4.857,-10.866 -4.857,-3.407 z m 1187.8,252.27 c 1.874,0 3.407,-2.186 3.407,-4.857 0,-16.821 -10.866,4.857 -3.407,4.857 z m -10.106,-1412.5 c -1.145,0 -18.993,16.598 -19.841,17.374 13.915,5.563 14.032,6.257 21.632,2.306 3.006,-1.563 5.831,-3.147 6.276,-3.521 0.931,-0.78 -6.747,-16.159 -8.067,-16.159 z m -1150.1,234.85 c 0,1.145 16.598,18.993 17.374,19.841 5.563,-13.915 6.257,-14.032 2.306,-21.632 -1.563,-3.006 -3.147,-5.831 -3.521,-6.276 -0.78,-0.931 -16.159,6.747 -16.159,8.067 z m 234.85,1150.1 c 1.145,0 18.993,-16.598 19.841,-17.374 -13.915,-5.563 -14.032,-6.257 -21.632,-2.306 -3.006,1.563 -5.831,3.147 -6.276,3.521 -0.931,0.78 6.747,16.159 8.067,16.159 z m 1150.1,-234.85 c 0,-1.145 -16.598,-18.993 -17.374,-19.841 -5.563,13.915 -6.257,14.032 -2.306,21.632 1.563,3.006 3.147,5.831 3.521,6.276 0.78,0.931 16.159,-6.747 16.159,-8.067 z m -16.16,-923.36 c -0.374,0.446 -1.958,3.27 -3.521,6.276 -3.951,7.6 -3.256,7.717 2.306,21.632 0.777,-0.848 17.374,-18.696 17.374,-19.841 10e-4,-1.32 -15.378,-8.998 -16.159,-8.067 z m -1142.1,-210.62 c 0.446,0.374 3.27,1.958 6.276,3.521 7.6,3.951 7.717,3.256 21.632,-2.306 -0.848,-0.777 -18.696,-17.374 -19.841,-17.374 -1.32,-0.001 -8.998,15.378 -8.067,16.159 z m -210.62,1142.1 c 0.374,-0.446 1.958,-3.27 3.521,-6.276 3.951,-7.6 3.256,-7.717 -2.306,-21.632 -0.777,0.848 -17.374,18.696 -17.374,19.841 -0.001,1.32 15.378,8.998 16.159,8.067 z m 1142.1,210.62 c -0.446,-0.374 -3.27,-1.958 -6.276,-3.521 -7.6,-3.951 -7.717,-3.256 -21.632,2.306 0.848,0.777 18.696,17.374 19.841,17.374 1.32,10e-4 8.998,-15.378 8.067,-16.159 z m -43.024,-1350 c 2.237,-5.828 -14.071,-13.801 -14.13,-22.167 -0.036,-5.089 -4.869,-19.503 -4.928,-1.029 -0.035,10.96 -0.52,11.887 -6.216,11.887 -19.446,0 20.592,23.511 25.274,11.309 z m -1096.4,250.99 c -5.828,-2.237 -13.801,14.07 -22.167,14.13 -5.089,0.037 -19.503,4.868 -1.029,4.928 10.96,0.035 11.887,0.52 11.887,6.216 0,19.446 23.511,-20.592 11.309,-25.274 z m 250.99,1096.4 c -2.237,5.828 14.07,13.801 14.13,22.167 0.037,5.089 4.868,19.503 4.928,1.029 0.035,-10.96 0.52,-11.887 6.216,-11.887 19.446,0 -20.592,-23.511 -25.274,-11.309 z m 1096.4,-250.99 c 5.828,2.237 13.801,-14.071 22.167,-14.13 5.089,-0.036 19.503,-4.869 1.029,-4.928 -10.96,-0.035 -11.887,-0.52 -11.887,-6.216 0,-19.446 -23.511,20.592 -11.309,25.274 z m 11.309,-820.11 c 0,-5.696 0.927,-6.181 11.887,-6.216 18.474,-0.06 4.06,-4.892 -1.029,-4.928 -8.366,-0.059 -16.339,-16.366 -22.167,-14.13 -12.202,4.682 11.309,44.72 11.309,25.274 z m -1082.4,-287.57 c -5.696,0 -6.181,-0.927 -6.216,-11.887 -0.06,-18.474 -4.892,-4.06 -4.928,1.029 -0.059,8.366 -16.366,16.339 -14.13,22.167 4.682,12.202 44.72,-11.309 25.274,-11.309 z m -287.57,1082.4 c 0,5.696 -0.927,6.181 -11.887,6.216 -18.474,0.06 -4.06,4.892 1.029,4.928 8.366,0.059 16.339,16.366 22.167,14.13 12.202,-4.682 -11.309,-44.72 -11.309,-25.274 z m 1082.4,287.57 c 5.696,0 6.181,0.927 6.216,11.887 0.06,18.474 4.892,4.06 4.928,-1.029 0.059,-8.366 16.366,-16.339 14.13,-22.167 -4.682,-12.202 -44.72,11.309 -25.274,11.309 z m 43.822,-1372.5 c 6.271,-3.356 11.785,-13.02 6.207,-10.88 -2.096,0.804 -3.812,2.468 -3.812,3.697 0,2.846 -17.517,3.209 -17.517,-0.56 0,-4.168 9.224,1.084 11.579,-2.725 2.302,-3.725 -4.388,-7.009 -10.933,-5.366 -3.752,0.942 -5.71,0.276 -5.827,-1.981 -0.194,-3.745 -4.372,4.838 -4.653,9.56 -0.52,8.717 14.691,13.748 24.956,8.255 z m -1128.8,246.31 c -3.356,-6.271 -13.02,-11.785 -10.88,-6.207 0.804,2.096 2.468,3.812 3.697,3.812 2.846,0 3.209,17.517 -0.56,17.517 -4.168,0 1.084,-9.225 -2.725,-11.579 -3.725,-2.302 -7.009,4.388 -5.366,10.933 0.942,3.752 0.276,5.71 -1.981,5.827 -3.745,0.194 4.838,4.372 9.56,4.653 8.717,0.52 13.748,-14.691 8.255,-24.956 z m 246.31,1128.8 c -6.271,3.356 -11.785,13.02 -6.207,10.88 2.096,-0.804 3.812,-2.468 3.812,-3.697 0,-2.846 17.517,-3.209 17.517,0.56 0,4.168 -9.225,-1.084 -11.579,2.725 -2.302,3.725 4.388,7.009 10.933,5.366 3.752,-0.942 5.71,-0.276 5.827,1.981 0.194,3.745 4.372,-4.838 4.653,-9.56 0.52,-8.717 -14.691,-13.748 -24.956,-8.255 z m 1128.8,-246.31 c 3.356,6.271 13.02,11.785 10.88,6.207 -0.804,-2.096 -2.468,-3.812 -3.697,-3.812 -2.846,0 -3.209,-17.517 0.56,-17.517 4.168,0 -1.084,9.224 2.725,11.579 3.725,2.302 7.009,-4.388 5.366,-10.933 -0.942,-3.752 -0.276,-5.71 1.981,-5.827 3.745,-0.194 -4.838,-4.372 -9.56,-4.653 -8.717,-0.52 -13.748,14.691 -8.255,24.956 z m 8.254,-857.52 c 4.722,-0.282 13.305,-4.459 9.56,-4.653 -2.257,-0.117 -2.923,-2.075 -1.981,-5.827 1.643,-6.545 -1.641,-13.235 -5.366,-10.933 -3.809,2.355 1.443,11.579 -2.725,11.579 -3.769,0 -3.406,-17.517 -0.56,-17.517 1.229,0 2.893,-1.715 3.697,-3.812 2.14,-5.578 -7.523,-0.064 -10.88,6.207 -5.492,10.265 -0.461,25.476 8.255,24.956 z m -1112.1,-279.52 c -0.282,-4.722 -4.459,-13.305 -4.653,-9.56 -0.117,2.257 -2.075,2.923 -5.827,1.981 -6.545,-1.643 -13.235,1.641 -10.933,5.366 2.355,3.809 11.579,-1.443 11.579,2.725 0,3.769 -17.517,3.406 -17.517,0.56 0,-1.229 -1.715,-2.893 -3.812,-3.697 -5.578,-2.14 -0.064,7.524 6.207,10.88 10.265,5.492 25.476,0.461 24.956,-8.255 z m -279.52,1112.1 c -4.722,0.281 -13.305,4.459 -9.56,4.653 2.257,0.117 2.923,2.075 1.981,5.827 -1.643,6.545 1.641,13.235 5.366,10.933 3.809,-2.355 -1.443,-11.579 2.725,-11.579 3.769,0 3.406,17.517 0.56,17.517 -1.229,0 -2.893,1.715 -3.697,3.812 -2.14,5.578 7.524,0.064 10.88,-6.207 5.492,-10.265 0.461,-25.476 -8.255,-24.956 z m 1112.1,279.52 c 0.281,4.722 4.459,13.305 4.653,9.56 0.117,-2.257 2.075,-2.923 5.827,-1.981 6.545,1.643 13.235,-1.641 10.933,-5.366 -2.355,-3.809 -11.579,1.443 -11.579,-2.725 0,-3.769 17.517,-3.406 17.517,-0.56 0,1.229 1.715,2.893 3.812,3.697 5.578,2.14 0.064,-7.523 -6.207,-10.88 -10.265,-5.492 -25.476,-0.461 -24.956,8.255 z m -24.493,-1419.6 c 4.572,6.981 5.688,10.856 17.635,11.941 13.105,1.191 15.165,3.378 13.354,-3.808 -3.217,-12.766 3.654,7.792 8.631,0.613 1.953,-2.816 2.908,-2.968 3.864,-0.613 0.777,1.914 6.11,3.128 13.747,3.128 11.509,0 12.416,-0.437 11.678,-5.631 -0.941,-6.63 -0.821,-5.63 -68.909,-5.63 z m -1115.6,331.99 c 6.981,-4.572 10.856,-5.688 11.941,-17.635 1.191,-13.105 3.378,-15.165 -3.808,-13.354 -12.766,3.217 7.792,-3.654 0.613,-8.632 -2.816,-1.953 -2.968,-2.908 -0.613,-3.863 1.914,-0.777 3.128,-6.11 3.128,-13.747 0,-11.509 -0.437,-12.416 -5.631,-11.678 -6.63,0.941 -5.63,0.821 -5.63,68.909 z m 331.99,1115.6 c -4.572,-6.981 -5.688,-10.856 -17.635,-11.941 -13.105,-1.191 -15.165,-3.378 -13.354,3.808 3.217,12.766 -3.654,-7.792 -8.632,-0.613 -1.953,2.816 -2.908,2.968 -3.863,0.613 -0.777,-1.914 -6.11,-3.128 -13.747,-3.128 -11.509,0 -12.416,0.437 -11.678,5.63 0.941,6.63 0.821,5.631 68.909,5.631 z m 1115.6,-331.99 c -6.981,4.572 -10.856,5.688 -11.941,17.635 -1.191,13.105 -3.378,15.165 3.808,13.354 12.766,-3.217 -7.792,3.654 -0.613,8.631 2.816,1.953 2.968,2.908 0.613,3.864 -1.914,0.777 -3.128,6.11 -3.128,13.747 0,11.509 0.437,12.416 5.63,11.678 6.63,-0.941 5.631,-0.821 5.631,-68.909 z m -5.63,-852.49 c -5.193,-0.738 -5.63,0.17 -5.63,11.678 0,7.637 1.214,12.97 3.128,13.747 2.354,0.956 2.203,1.911 -0.613,3.863 -7.179,4.977 13.38,11.848 0.613,8.632 -7.186,-1.81 -4.999,0.249 -3.808,13.354 1.085,11.947 4.96,13.063 11.941,17.635 -10e-4,-68.087 0.998,-67.967 -5.631,-68.909 z M 339.439,81.727 c -0.738,5.193 0.17,5.631 11.678,5.631 7.637,0 12.97,-1.214 13.747,-3.128 0.956,-2.355 1.911,-2.203 3.863,0.613 4.977,7.179 11.848,-13.38 8.632,-0.613 -1.81,7.186 0.249,4.999 13.354,3.808 11.947,-1.085 13.063,-4.96 17.635,-11.941 -68.087,0 -67.967,-1 -68.909,5.63 z m -257.45,1178.8 c 5.193,0.738 5.631,-0.17 5.631,-11.678 0,-7.637 -1.214,-12.97 -3.128,-13.747 -2.355,-0.956 -2.203,-1.911 0.613,-3.864 7.179,-4.977 -13.38,-11.848 -0.613,-8.631 7.186,1.81 4.999,-0.249 3.808,-13.354 -1.085,-11.947 -4.96,-13.063 -11.941,-17.635 0,68.087 -1,67.967 5.63,68.909 z m 1178.8,257.45 c 0.738,-5.193 -0.17,-5.63 -11.678,-5.63 -7.637,0 -12.97,1.214 -13.747,3.128 -0.956,2.354 -1.911,2.203 -3.864,-0.613 -4.977,-7.179 -11.848,13.38 -8.631,0.613 1.81,-7.186 -0.249,-4.999 -13.354,-3.808 -11.947,1.085 -13.063,4.96 -17.635,11.941 68.087,0 67.967,0.998 68.909,-5.631 z m -112.67,-1392.5 6.768,-6.882 c -49.617,-3.46 -41.245,-6.255 -24.816,-6.27 18.749,-0.019 31.512,-3.541 37.579,-10.374 4.707,-5.302 4.702,-5.328 -0.552,-2.574 -21.233,11.129 -46.878,3.419 -26.994,3.111 23.457,-0.363 45.005,-23.727 26.187,-13.996 -21.064,10.893 -49.905,6.785 -65.551,-9.338 -10.413,-10.73 -13.453,-10.589 -15.94,0.736 -8.438,38.417 43.285,65.958 63.319,45.587 z m -1022.4,326.32 -6.882,-6.768 c -3.46,49.617 -6.255,41.245 -6.27,24.816 -0.019,-18.749 -3.541,-31.512 -10.374,-37.579 -5.302,-4.707 -5.328,-4.702 -2.574,0.552 11.129,21.233 3.419,46.878 3.111,26.993 -0.363,-23.457 -23.727,-45.005 -13.996,-26.187 10.893,21.064 6.785,49.905 -9.338,65.551 -10.73,10.413 -10.589,13.453 0.736,15.94 38.417,8.439 65.958,-43.284 45.587,-63.318 z m 326.32,1022.4 -6.768,6.882 c 49.617,3.46 41.245,6.255 24.816,6.27 -18.749,0.019 -31.512,3.541 -37.579,10.374 -4.707,5.302 -4.702,5.327 0.552,2.574 21.233,-11.129 46.878,-3.419 26.993,-3.111 -23.457,0.363 -45.005,23.727 -26.187,13.996 21.064,-10.893 49.905,-6.785 65.551,9.338 10.413,10.73 13.453,10.589 15.94,-0.736 8.439,-38.417 -43.284,-65.958 -63.318,-45.587 z m 1022.4,-326.32 6.882,6.768 c 3.46,-49.617 6.255,-41.245 6.27,-24.816 0.019,18.749 3.541,31.512 10.374,37.579 5.302,4.707 5.327,4.702 2.574,-0.552 -11.129,-21.233 -3.419,-46.878 -3.111,-26.994 0.363,23.457 23.727,45.005 13.996,26.187 -10.893,-21.064 -6.785,-49.905 9.338,-65.551 10.73,-10.413 10.589,-13.453 -0.736,-15.94 -38.417,-8.438 -65.958,43.285 -45.587,63.319 z m 45.587,-632.74 c 11.326,-2.487 11.466,-5.528 0.736,-15.94 -16.122,-15.646 -20.23,-44.487 -9.338,-65.551 9.731,-18.818 -13.633,2.73 -13.996,26.187 -0.308,19.884 -8.018,-5.761 3.111,-26.993 2.753,-5.254 2.728,-5.259 -2.574,-0.552 -6.833,6.067 -10.355,18.83 -10.374,37.579 -0.016,16.429 -2.81,24.801 -6.27,-24.816 l -6.882,6.768 c -20.371,20.033 7.17,71.756 45.587,63.318 z M 515.326,79.907 c -2.487,-11.326 -5.528,-11.466 -15.94,-0.736 -15.646,16.122 -44.487,20.23 -65.551,9.338 -18.818,-9.731 2.73,13.633 26.187,13.996 19.884,0.308 -5.761,8.018 -26.993,-3.111 -5.254,-2.754 -5.259,-2.728 -0.552,2.574 6.067,6.833 18.83,10.355 37.579,10.374 16.429,0.015 24.801,2.81 -24.816,6.27 l 6.768,6.882 c 20.033,20.371 71.756,-7.17 63.318,-45.587 z m -435.23,1004.7 c -11.326,2.487 -11.466,5.528 -0.736,15.94 16.122,15.646 20.23,44.487 9.338,65.551 -9.731,18.818 13.633,-2.73 13.996,-26.187 0.308,-19.884 8.018,5.761 -3.111,26.994 -2.754,5.254 -2.728,5.259 2.574,0.552 6.833,-6.067 10.355,-18.83 10.374,-37.579 0.015,-16.429 2.81,-24.801 6.27,24.816 l 6.882,-6.768 c 20.371,-20.034 -7.17,-71.757 -45.587,-63.319 z m 1004.7,435.23 c 2.487,11.326 5.528,11.466 15.94,0.736 15.646,-16.122 44.487,-20.23 65.551,-9.338 18.818,9.731 -2.73,-13.633 -26.187,-13.996 -19.884,-0.308 5.761,-8.018 26.994,3.111 5.254,2.753 5.259,2.728 0.552,-2.574 -6.067,-6.833 -18.83,-10.355 -37.579,-10.374 -16.429,-0.016 -24.801,-2.81 24.816,-6.27 l -6.768,-6.882 c -20.034,-20.371 -71.757,7.17 -63.319,45.587 z m 3.459,-1351.4 c 13.956,-2.791 8.295,-4.691 -14.132,-4.742 -47.027,-0.107 -57.787,-25.745 -46.24,-15.675 2.675,2.332 40.843,20.94 44.819,10.58 1.207,-3.146 4.018,-3.578 14.634,-2.252 20.88,2.609 10.414,-3.864 23.902,-3.864 9.728,0 9.884,-5.005 -0.247,-5.005 -16.336,0 -42.805,-20.821 -19.305,-9.39 26.983,13.13 55.833,2.108 29.96,1.959 -16.614,-0.095 -25.047,-3.628 -47.137,-19.745 -9.696,-7.075 -18.946,-12.863 -20.554,-12.863 -4.715,0 -3.265,15.687 2.081,22.522 6.322,8.082 6.231,10.01 -0.474,10.01 -3.395,0 -10.067,-4.964 -17.542,-13.053 -25.101,-27.16 -23.705,0.859 -32.973,-27.676 -6.379,-19.639 -2.624,-30.734 12.938,-38.236 12.417,-5.986 11.403,-8.621 -3.318,-8.621 -60.833,-0.001 -26.214,136.01 73.588,116.05 z m -919.67,343.33 c -2.791,-13.956 -4.691,-8.295 -4.742,14.132 -0.107,47.027 -25.745,57.788 -15.675,46.24 2.332,-2.675 20.94,-40.843 10.58,-44.819 -3.146,-1.207 -3.578,-4.018 -2.252,-14.634 2.609,-20.88 -3.864,-10.414 -3.864,-23.902 0,-9.728 -5.005,-9.884 -5.005,0.247 0,16.336 -20.821,42.805 -9.39,19.305 13.13,-26.983 2.108,-55.833 1.959,-29.96 -0.095,16.614 -3.628,25.047 -19.745,47.137 -7.075,9.696 -12.863,18.946 -12.863,20.554 0,4.715 15.687,3.265 22.522,-2.081 8.082,-6.322 10.01,-6.231 10.01,0.474 0,3.395 -4.964,10.067 -13.053,17.542 -27.16,25.101 0.859,23.705 -27.676,32.973 -19.639,6.379 -30.734,2.624 -38.236,-12.938 -5.986,-12.417 -8.621,-11.403 -8.621,3.319 -10e-4,60.832 136.01,26.213 116.05,-73.589 z m 343.33,919.67 c -13.956,2.791 -8.295,4.691 14.132,4.742 47.027,0.107 57.788,25.745 46.24,15.675 -2.675,-2.332 -40.843,-20.94 -44.819,-10.58 -1.207,3.146 -4.018,3.578 -14.634,2.252 -20.88,-2.609 -10.414,3.864 -23.902,3.864 -9.728,0 -9.884,5.005 0.247,5.005 16.336,0 42.805,20.821 19.305,9.39 -26.983,-13.13 -55.833,-2.108 -29.96,-1.959 16.614,0.095 25.047,3.628 47.137,19.745 9.696,7.075 18.946,12.863 20.554,12.863 4.715,0 3.265,-15.687 -2.081,-22.522 -6.322,-8.083 -6.231,-10.01 0.474,-10.01 3.395,0 10.067,4.964 17.542,13.053 25.101,27.16 23.705,-0.859 32.973,27.676 6.379,19.639 2.624,30.734 -12.938,38.235 -12.417,5.986 -11.403,8.621 3.319,8.621 60.832,0 26.213,-136.01 -73.589,-116.05 z m 919.67,-343.33 c 2.791,13.956 4.691,8.295 4.742,-14.132 0.107,-47.027 25.745,-57.787 15.675,-46.24 -2.332,2.675 -20.94,40.843 -10.58,44.819 3.146,1.207 3.578,4.018 2.252,14.634 -2.609,20.88 3.864,10.414 3.864,23.902 0,9.728 5.005,9.884 5.005,-0.247 0,-16.336 20.821,-42.805 9.39,-19.305 -13.13,26.983 -2.108,55.833 -1.959,29.96 0.095,-16.614 3.628,-25.047 19.745,-47.137 7.075,-9.696 12.863,-18.946 12.863,-20.554 0,-4.715 -15.687,-3.265 -22.522,2.081 -8.083,6.322 -10.01,6.231 -10.01,-0.474 0,-3.395 4.964,-10.067 13.053,-17.542 27.16,-25.101 -0.859,-23.705 27.676,-32.973 19.639,-6.379 30.734,-2.624 38.235,12.938 5.986,12.417 8.621,11.403 8.621,-3.318 0,-60.833 -136.01,-26.214 -116.05,73.588 z m 116.05,-502.75 c 0,-14.721 -2.636,-15.736 -8.621,-3.319 -7.502,15.563 -18.597,19.317 -38.235,12.938 -28.535,-9.268 -0.516,-7.872 -27.676,-32.973 -8.089,-7.475 -13.053,-14.147 -13.053,-17.542 0,-6.705 1.927,-6.797 10.01,-0.474 6.835,5.346 22.522,6.796 22.522,2.081 0,-1.608 -5.788,-10.857 -12.863,-20.554 -16.117,-22.089 -19.65,-30.522 -19.745,-47.137 -0.149,-25.874 -11.171,2.976 1.959,29.96 11.431,23.5 -9.39,-2.969 -9.39,-19.305 0,-10.131 -5.005,-9.975 -5.005,-0.247 0,13.488 -6.473,3.023 -3.864,23.902 1.326,10.615 0.894,13.427 -2.252,14.634 -10.359,3.975 8.248,42.144 10.58,44.819 10.07,11.548 -15.568,0.787 -15.675,-46.24 -0.051,-22.427 -1.951,-28.088 -4.742,-14.132 -19.962,99.801 116.05,134.42 116.05,73.589 z M 585.505,52.387 c -14.721,0 -15.736,2.636 -3.319,8.621 15.563,7.502 19.317,18.597 12.938,38.236 -9.268,28.535 -7.872,0.516 -32.973,27.676 -7.475,8.089 -14.147,13.053 -17.542,13.053 -6.705,0 -6.797,-1.927 -0.474,-10.01 5.346,-6.835 6.796,-22.522 2.081,-22.522 -1.608,0 -10.857,5.788 -20.554,12.863 -22.089,16.117 -30.522,19.65 -47.137,19.745 -25.874,0.149 2.976,11.171 29.96,-1.959 23.5,-11.431 -2.969,9.39 -19.305,9.39 -10.131,0 -9.975,5.005 -0.247,5.005 13.488,0 3.023,6.473 23.902,3.864 10.615,-1.326 13.427,-0.894 14.634,2.252 3.975,10.359 42.144,-8.248 44.819,-10.58 11.548,-10.07 0.787,15.568 -46.24,15.675 -22.427,0.051 -28.088,1.951 -14.132,4.742 99.801,19.961 134.42,-116.05 73.589,-116.05 z m -532.97,962.13 c 0,14.721 2.636,15.736 8.621,3.318 7.502,-15.563 18.597,-19.317 38.236,-12.938 28.535,9.268 0.516,7.872 27.676,32.973 8.089,7.475 13.053,14.147 13.053,17.542 0,6.705 -1.927,6.797 -10.01,0.474 -6.835,-5.346 -22.522,-6.796 -22.522,-2.081 0,1.608 5.788,10.857 12.863,20.554 16.117,22.089 19.65,30.522 19.745,47.137 0.149,25.874 11.171,-2.976 -1.959,-29.96 -11.431,-23.5 9.39,2.969 9.39,19.305 0,10.131 5.005,9.975 5.005,0.247 0,-13.488 6.473,-3.023 3.864,-23.902 -1.326,-10.615 -0.894,-13.427 2.252,-14.634 10.359,-3.975 -8.248,-42.144 -10.58,-44.819 -10.07,-11.547 15.568,-0.787 15.675,46.24 0.051,22.427 1.951,28.088 4.742,14.132 19.961,-99.8 -116.05,-134.42 -116.05,-73.588 z m 962.13,532.97 c 14.721,0 15.736,-2.636 3.318,-8.621 -15.563,-7.502 -19.317,-18.597 -12.938,-38.235 9.268,-28.535 7.872,-0.516 32.973,-27.676 7.475,-8.089 14.147,-13.053 17.542,-13.053 6.705,0 6.797,1.927 0.474,10.01 -5.346,6.835 -6.796,22.522 -2.081,22.522 1.608,0 10.857,-5.788 20.554,-12.863 22.089,-16.117 30.522,-19.65 47.137,-19.745 25.874,-0.149 -2.976,-11.171 -29.96,1.959 -23.5,11.431 2.969,-9.39 19.305,-9.39 10.131,0 9.975,-5.005 0.247,-5.005 -13.488,0 -3.023,-6.473 -23.902,-3.864 -10.615,1.326 -13.427,0.894 -14.634,-2.252 -3.975,-10.359 -42.144,8.248 -44.819,10.58 -11.547,10.07 -0.787,-15.568 46.24,-15.675 22.427,-0.051 28.088,-1.951 14.132,-4.742 -99.8,-19.962 -134.42,116.05 -73.588,116.05 z m -27.43,-1412.5 c 1.47,2.378 6.238,3.517 6.238,1.49 0.001,-1.51 -8.257,-4.757 -6.238,-1.49 z m -852.09,477.79 c 2.378,-1.47 3.517,-6.238 1.49,-6.238 -1.51,-10e-4 -4.757,8.256 -1.49,6.238 z m 477.79,852.09 c -1.47,-2.378 -6.238,-3.517 -6.238,-1.49 -10e-4,1.51 8.256,4.757 6.238,1.49 z m 852.09,-477.79 c -2.378,1.47 -3.517,6.238 -1.49,6.238 1.51,10e-4 4.757,-8.257 1.49,-6.238 z m -1.49,-380.54 c -2.027,0 -0.888,4.769 1.49,6.238 3.267,2.019 0.02,-6.238 -1.49,-6.238 z m -856.84,-470.06 c 0,2.027 4.769,0.888 6.238,-1.49 2.019,-3.267 -6.238,-0.02 -6.238,1.49 z m -470.06,856.84 c 2.027,0 0.888,-4.769 -1.49,-6.238 -3.267,-2.02 -0.02,6.238 1.49,6.238 z m 856.84,470.06 c 0,-2.027 -4.769,-0.888 -6.238,1.49 -2.02,3.267 6.238,0.02 6.238,-1.49 z M 972.66,128.277 c 2.319,2.319 3.206,2.079 7.25,-1.965 1.977,-1.977 2.729,-4.129 1.671,-4.783 -2.616,-1.615 -10.967,4.702 -8.921,6.748 z m -844.18,499.03 c 2.319,-2.319 2.079,-3.206 -1.965,-7.25 -1.977,-1.977 -4.129,-2.729 -4.783,-1.671 -1.615,2.616 4.702,10.967 6.748,8.921 z m 499.03,844.18 c -2.319,-2.319 -3.206,-2.079 -7.25,1.965 -1.977,1.977 -2.729,4.129 -1.671,4.783 2.616,1.615 10.967,-4.702 8.921,-6.748 z m 844.18,-499.03 c -2.319,2.319 -2.079,3.206 1.965,7.25 1.977,1.977 4.129,2.729 4.783,1.671 1.615,-2.616 -4.702,-10.967 -6.748,-8.921 z m 6.748,-354.07 c -0.654,-1.058 -2.806,-0.306 -4.783,1.671 -4.043,4.044 -4.284,4.93 -1.965,7.25 2.046,2.045 8.363,-6.306 6.748,-8.921 z m -859.85,-496.86 c -1.058,0.654 -0.306,2.806 1.671,4.783 4.044,4.043 4.93,4.284 7.25,1.965 2.045,-2.046 -6.306,-8.363 -8.921,-6.748 z m -496.86,859.85 c 0.654,1.058 2.806,0.306 4.783,-1.671 4.043,-4.044 4.284,-4.93 1.965,-7.25 -2.046,-2.045 -8.363,6.306 -6.748,8.921 z m 859.85,496.86 c 1.058,-0.654 0.306,-2.806 -1.671,-4.783 -4.044,-4.043 -4.93,-4.284 -7.25,-1.965 -2.045,2.046 6.306,8.363 8.921,6.748 z m -15.632,-1363 c 0,6.856 12.134,-4.021 9.176,-6.98 -1.818,-1.817 -9.176,3.78 -9.176,6.98 z m -850.54,518.82 c 6.856,0 -4.021,-12.134 -6.98,-9.176 -1.817,1.818 3.78,9.176 6.98,9.176 z m 518.82,850.54 c 0,-6.856 -12.134,4.021 -9.176,6.98 1.818,1.817 9.176,-3.78 9.176,-6.98 z m 850.54,-518.82 c -6.856,0 4.021,12.134 6.98,9.176 1.817,-1.818 -3.78,-9.176 -6.98,-9.176 z m 6.979,-340.9 c -2.958,-2.958 -13.836,9.176 -6.98,9.176 3.201,-10e-4 8.798,-7.359 6.98,-9.176 z m -866.7,-516.62 c -2.958,2.958 9.176,13.836 9.176,6.98 -10e-4,-3.201 -7.359,-8.798 -9.176,-6.98 z m -516.62,866.7 c 2.958,2.958 13.836,-9.176 6.98,-9.176 -3.201,0.001 -8.798,7.359 -6.98,9.176 z m 866.7,516.62 c 2.958,-2.958 -9.176,-13.836 -9.176,-6.98 0.001,3.201 7.359,8.798 9.176,6.98 z m -16.67,-1379.2 c -0.019,4.796 14.963,-12.898 13.092,-15.962 -1.744,-2.853 -13.075,10.962 -13.092,15.962 z m -845.95,529.22 c 4.796,0.019 -12.898,-14.963 -15.962,-13.092 -2.853,1.744 10.962,13.075 15.962,13.092 z m 529.22,845.95 c 0.019,-4.796 -14.963,12.898 -13.092,15.962 1.744,2.853 13.075,-10.962 13.092,-15.962 z m 845.95,-529.22 c -4.796,-0.019 12.898,14.963 15.962,13.092 2.853,-1.744 -10.962,-13.075 -15.962,-13.092 z m 15.962,-329.82 c -3.063,-1.872 -20.758,13.11 -15.962,13.092 5,-0.018 18.815,-11.349 15.962,-13.092 z M 628.627,96.417 c -1.872,3.063 13.11,20.758 13.092,15.962 -0.018,-5 -11.349,-18.815 -13.092,-15.962 z m -532.09,875.01 c 3.063,1.872 20.758,-13.11 15.962,-13.092 -5,0.018 -18.815,11.349 -15.962,13.092 z m 875.01,532.09 c 1.872,-3.063 -13.11,-20.758 -13.092,-15.962 0.018,5 11.349,18.815 13.092,15.962 z M 954.922,95.417 c -6.404,9.144 -1.364,10.489 6.195,1.653 16.992,-19.859 -1.073,-8.965 -6.195,-1.653 z m -859.42,549.75 c 9.144,6.404 10.489,1.364 1.653,-6.195 -19.859,-16.992 -8.965,1.073 -1.653,6.195 z m 549.75,859.42 c 6.404,-9.144 1.364,-10.489 -6.195,-1.653 -16.992,19.859 1.073,8.965 6.195,1.653 z m 859.42,-549.75 c -9.144,-6.404 -10.489,-1.364 -1.653,6.195 19.859,16.992 8.965,-1.073 1.653,-6.195 z m -1.654,-315.86 c -8.835,7.559 -7.49,12.6 1.653,6.195 7.313,-5.121 18.207,-23.186 -1.653,-6.195 z m -863.96,-541.9 c 7.559,8.836 12.6,7.49 6.195,-1.653 -5.121,-7.313 -23.186,-18.207 -6.195,1.653 z m -541.9,863.96 c 8.836,-7.559 7.49,-12.6 -1.653,-6.195 -7.313,5.121 -18.207,23.186 1.653,6.195 z m 863.96,541.9 c -7.559,-8.835 -12.6,-7.49 -6.195,1.653 5.121,7.313 23.186,18.207 6.195,-1.653 z M 949.972,86.137 c -7.265,11.087 -4.101,17.024 6.241,-1.789 h -10e-4 c 3.733,-6.792 -1.624,-5.256 -6.24,1.789 z m -863.74,563.97 c 11.087,7.265 17.024,4.101 -1.789,-6.241 v 10e-4 c -6.792,-3.733 -5.256,1.624 1.789,6.24 z m 563.97,863.74 c 7.265,-11.087 4.101,-17.024 -6.241,1.789 h 10e-4 c -3.733,6.792 1.624,5.256 6.24,-1.789 z m 863.74,-563.97 c -11.087,-7.265 -17.024,-4.101 1.789,6.241 v -0.001 c 6.792,3.733 5.256,-1.624 -1.789,-6.24 z m 1.789,-306.01 c -18.813,10.341 -12.876,13.504 -1.789,6.24 7.045,-4.616 8.581,-9.973 1.789,-6.24 z M 643.961,84.347 c 10.341,18.813 13.504,12.876 6.24,1.789 -4.616,-7.045 -9.973,-8.581 -6.24,-1.789 z m -559.52,871.77 c 18.813,-10.341 12.876,-13.504 1.789,-6.24 -7.045,4.616 -8.581,9.973 -1.789,6.24 z m 871.77,559.52 c -10.341,-18.813 -13.504,-12.876 -6.24,-1.789 4.616,7.045 9.973,8.581 6.24,1.789 z m -15.203,-1432.6 0.083,5.709 c 1.391,-1.67 10.293,-11.646 8.763,-13.176 -2.866,-2.866 -8.922,2.245 -8.846,7.467 z m -857.89,576.05 5.709,-0.083 c -1.67,-1.391 -11.646,-10.293 -13.176,-8.763 -2.866,2.866 2.245,8.922 7.467,8.846 z m 576.05,857.89 -0.083,-5.709 c -1.391,1.67 -10.293,11.646 -8.763,13.176 2.866,2.866 8.922,-2.245 8.846,-7.467 z m 857.89,-576.05 -5.709,0.083 c 1.67,1.391 11.646,10.293 13.176,8.763 2.866,-2.866 -2.245,-8.922 -7.467,-8.846 z m 7.467,-290.69 c -1.53,-1.53 -11.506,7.372 -13.176,8.763 l 5.709,0.083 c 5.222,0.076 10.333,-5.98 7.467,-8.846 z M 650.315,75.557 c -1.53,1.53 7.372,11.506 8.763,13.176 l 0.083,-5.709 c 0.076,-5.222 -5.98,-10.333 -8.846,-7.467 z m -574.68,874.21 c 1.53,1.53 11.506,-7.372 13.176,-8.763 l -5.709,-0.083 c -5.222,-0.076 -10.333,5.98 -7.467,8.846 z m 874.21,574.68 c 1.53,-1.53 -7.372,-11.506 -8.763,-13.176 l -0.083,5.709 c -0.076,5.222 5.98,10.333 8.846,7.467 z m -6.426,-1452.4 c 0,-4.046 -7.375,-1.984 -9.922,2.774 -10.019,18.719 9.922,1.021 9.922,-2.774 z m -871.31,584.63 c -4.046,0 -1.984,7.375 2.774,9.922 18.719,10.019 1.021,-9.922 -2.774,-9.922 z m 584.63,871.31 c 0,4.046 7.375,1.984 9.922,-2.774 10.019,-18.719 -9.922,-1.021 -9.922,2.774 z m 871.31,-584.63 c 4.046,0 1.984,-7.375 -2.774,-9.922 -18.719,-10.019 -1.021,9.922 2.774,9.922 z m -2.774,-276.76 c 4.758,-2.546 6.82,-9.922 2.774,-9.922 -3.795,0 -21.493,19.941 -2.774,9.922 z M 666.665,74.817 c -2.546,-4.758 -9.922,-6.82 -9.922,-2.774 0,3.795 19.941,21.493 9.922,2.774 z m -591.78,858.61 c -4.758,2.546 -6.82,9.922 -2.774,9.922 3.795,0 21.493,-19.941 2.774,-9.922 z m 858.61,591.78 c 2.546,4.758 9.922,6.82 9.922,2.774 0,-3.795 -19.941,-21.493 -9.922,-2.774 z m -8.389,-1463.2 c -0.799,-1.996 -1.392,-1.403 -1.512,1.512 -0.265,6.434 3.268,2.876 1.512,-1.512 z m -863.04,612.98 c -1.996,0.799 -1.403,1.392 1.512,1.512 6.434,0.265 2.876,-3.268 -1.512,-1.512 z m 612.98,863.04 c 0.799,1.996 1.392,1.403 1.512,-1.512 0.265,-6.435 -3.268,-2.876 -1.512,1.512 z m 863.04,-612.98 c 1.996,-0.799 1.403,-1.392 -1.512,-1.512 -6.435,-0.265 -2.876,3.268 1.512,1.512 z m -1.512,-248.55 c 2.915,-0.12 3.508,-0.713 1.512,-1.512 -4.388,-1.756 -7.947,1.777 -1.512,1.512 z M 676.554,63.517 c -0.12,-2.915 -0.713,-3.508 -1.512,-1.512 -1.756,4.388 1.777,7.946 1.512,1.512 z m -612.98,860.02 c -2.915,0.12 -3.508,0.713 -1.512,1.512 4.388,1.756 7.946,-1.777 1.512,-1.512 z m 860.02,612.98 c 0.12,2.915 0.713,3.508 1.512,1.512 1.756,-4.388 -1.777,-7.947 -1.512,-1.512 z m 8.505,-1468.7 c -1.892,-1.892 -10.599,7.063 -11.972,12.314 -3.953,15.115 13.406,-10.879 11.972,-12.314 z m -864.2,600.15 c -1.892,1.892 7.063,10.599 12.314,11.972 15.115,3.953 -10.879,-13.406 -12.314,-11.972 z m 600.15,864.2 c 1.892,1.892 10.599,-7.063 11.972,-12.314 3.953,-15.115 -13.406,10.879 -11.972,12.314 z m 864.2,-600.15 c 1.892,-1.892 -7.063,-10.599 -12.314,-11.972 -15.115,-3.953 10.879,13.406 12.314,11.972 z m -12.315,-252.07 c 5.251,-1.373 14.206,-10.08 12.314,-11.972 -1.434,-1.434 -27.428,15.925 -12.314,11.972 z M 680.024,80.137 c -1.373,-5.251 -10.08,-14.206 -11.972,-12.314 -1.434,1.434 15.925,27.428 11.972,12.314 z m -599.81,839.91 c -5.251,1.373 -14.206,10.08 -12.314,11.972 1.434,1.434 27.428,-15.925 12.314,-11.972 z m 839.91,599.81 c 1.373,5.251 10.08,14.206 11.972,12.314 1.434,-1.434 -15.925,-27.428 -11.972,-12.314 z m -7.843,-1424.9 c 1.869,0 1.693,-5.005 -1.547,-5.005 -3.226,0 -0.499,5.005 1.547,5.005 z m -817.22,592.8 c 0,-1.869 -5.005,-1.693 -5.005,1.547 0,3.226 5.005,0.499 5.005,-1.547 z m 592.8,817.22 c -1.869,0 -1.693,5.005 1.547,5.005 3.226,0 0.499,-5.005 -1.547,-5.005 z m 817.22,-592.8 c 0,1.869 5.005,1.693 5.005,-1.547 0,-3.226 -5.005,-0.499 -5.005,1.547 z m 5.005,-222.87 c 0,-3.24 -5.005,-3.416 -5.005,-1.547 0,2.046 5.005,4.773 5.005,1.547 z M 689.416,89.957 c -3.24,0 -3.416,5.005 -1.547,5.005 2.046,0 4.773,-5.005 1.547,-5.005 z m -599.35,820.67 c 0,3.24 5.005,3.416 5.005,1.547 0,-2.046 -5.005,-4.773 -5.005,-1.547 z m 820.67,599.35 c 3.24,0 3.416,-5.005 1.547,-5.005 -2.046,0 -4.773,5.005 -1.547,5.005 z m -41.143,-1375 c 4.469,-1.92 4.284,-2.17 -1.729,-2.327 -11.245,-0.294 -12.715,8.533 1.729,2.327 z m -734.49,595.45 c -1.92,-4.469 -2.17,-4.284 -2.327,1.729 -0.294,11.245 8.533,12.715 2.327,-1.729 z m 595.45,734.49 c -4.469,1.92 -4.284,2.17 1.729,2.326 11.245,0.295 12.715,-8.532 -1.729,-2.326 z m 734.49,-595.45 c 1.92,4.469 2.17,4.284 2.326,-1.729 0.295,-11.245 -8.532,-12.715 -2.326,1.729 z m 2.327,-137.3 c -0.157,-6.013 -0.406,-6.198 -2.326,-1.729 -6.207,14.444 2.62,12.974 2.326,1.729 z M 732.29,132.657 c -6.013,0.157 -6.198,0.406 -1.729,2.327 14.444,6.206 12.974,-2.621 1.729,-2.327 z m -599.51,735.08 c 0.157,6.013 0.406,6.198 2.327,1.729 6.206,-14.444 -2.621,-12.974 -2.327,-1.729 z m 735.08,599.51 c 6.013,-0.157 6.198,-0.406 1.729,-2.326 -14.444,-6.207 -12.974,2.62 -1.729,2.326 z m 0.478,-1324.8 c 0,3.281 7.507,3.32 7.507,0 0,-3.281 -7.507,-3.32 -7.507,0 z m -725.73,589.2 c 3.281,0 3.32,-7.507 0,-7.507 -3.281,0 -3.32,7.507 0,7.507 z m 589.2,725.73 c 0,-3.281 -7.507,-3.32 -7.507,0 0,3.281 7.507,3.32 7.507,0 z m 725.73,-589.2 c -3.281,0 -3.32,7.507 0,7.507 3.281,0 3.32,-7.507 0,-7.507 z m 0,-144.04 c -3.32,0 -3.281,7.507 0,7.507 3.32,0 3.281,-7.507 0,-7.507 z m -733.24,-581.69 c 0,3.32 7.507,3.281 7.507,0 0,-3.32 -7.507,-3.281 -7.507,0 z m -581.69,733.24 c 3.32,0 3.281,-7.507 0,-7.507 -3.32,0 -3.281,7.507 0,7.507 z m 733.24,581.69 c 0,-3.32 -7.507,-3.281 -7.507,0 0,3.32 7.507,3.281 7.507,0 z m -16.266,-1329.9 c 2.014,-3.258 -7.946,-3.34 -10.01,0 -2.013,3.258 7.946,3.34 10.01,0 z m -731.98,612.97 c -3.258,-2.014 -3.34,7.946 0,10.01 3.258,2.013 3.34,-7.946 0,-10.01 z m 612.97,731.98 c -2.014,3.258 7.946,3.34 10.01,0 2.013,-3.258 -7.946,-3.34 -10.01,0 z m 731.98,-612.97 c 3.258,2.014 3.34,-7.946 0,-10.01 -3.258,-2.013 -3.34,7.946 0,10.01 z m 0,-109 c 3.34,-2.064 3.258,-12.023 0,-10.01 -3.34,2.064 -3.258,12.023 0,10.01 z m -721.97,-622.98 c -2.064,-3.34 -12.023,-3.258 -10.01,0 2.064,3.34 12.023,3.258 10.01,0 z m -622.98,721.97 c -3.34,2.064 -3.258,12.023 0,10.01 3.34,-2.064 3.258,-12.023 0,-10.01 z m 721.97,622.98 c 2.064,3.34 12.023,3.258 10.01,0 -2.064,-3.34 -12.023,-3.258 -10.01,0 z m -17.329,-1355.1 c 2.649,2.671 7.632,4.852 11.073,4.846 12.939,-0.022 -5.005,-1.836 -5.005,-7.119 0,-1.421 -2.449,-2.583 -5.443,-2.583 -5.373,-0.001 -5.381,0.061 -0.625,4.856 z m -714.8,650.47 c 2.671,-2.649 4.852,-7.632 4.846,-11.073 -0.022,-12.939 -1.836,5.005 -7.119,5.005 -1.421,0 -2.583,2.449 -2.583,5.443 -0.001,5.373 0.061,5.381 4.856,0.625 z m 650.47,714.8 c -2.649,-2.671 -7.632,-4.852 -11.073,-4.846 -12.939,0.022 5.005,1.836 5.005,7.119 0,1.421 2.449,2.583 5.443,2.583 5.373,0 5.381,-0.061 0.625,-4.856 z m 714.8,-650.47 c -2.671,2.649 -4.852,7.632 -4.846,11.073 0.022,12.939 1.836,-5.005 7.119,-5.005 1.421,0 2.583,-2.449 2.583,-5.443 10e-4,-5.373 -0.061,-5.381 -4.856,-0.625 z m 4.857,-64.961 c 0,-2.994 -1.162,-5.443 -2.583,-5.443 -5.284,0 -7.097,-17.944 -7.119,-5.005 -0.01,3.441 2.175,8.424 4.846,11.073 4.794,4.756 4.856,4.748 4.856,-0.625 z m -720.28,-654.7 c -2.994,0 -5.443,1.162 -5.443,2.583 0,5.284 -17.944,7.097 -5.005,7.119 3.441,0.006 8.424,-2.175 11.073,-4.846 4.756,-4.794 4.748,-4.856 -0.625,-4.856 z m -654.7,720.28 c 0,2.994 1.162,5.443 2.583,5.443 5.284,0 7.097,17.944 7.119,5.005 0.006,-3.441 -2.175,-8.424 -4.846,-11.073 -4.794,-4.756 -4.856,-4.748 -4.856,0.625 z m 720.28,654.7 c 2.994,0 5.443,-1.162 5.443,-2.583 0,-5.284 17.944,-7.097 5.005,-7.119 -3.441,-0.01 -8.424,2.175 -11.073,4.846 -4.756,4.794 -4.748,4.856 0.625,4.856 z m -32.094,-1355 c 0,3.235 9.2,3.336 11.261,0 2.068,-3.345 -11.261,-3.302 -11.261,0 z m -668.17,666.77 c 3.235,0 3.336,-9.2 0,-11.261 -3.345,-2.068 -3.302,11.261 0,11.261 z m 666.77,668.17 c 0,-3.235 -9.2,-3.336 -11.261,0 -2.068,3.345 11.261,3.302 11.261,0 z m 668.17,-666.77 c -3.235,0 -3.336,9.2 0,11.261 3.345,2.068 3.302,-11.261 0,-11.261 z m 0,-12.659 c -3.336,2.062 -3.235,11.261 0,11.261 3.302,0 3.345,-13.329 0,-11.261 z m -679.43,-655.51 c 2.062,3.336 11.261,3.235 11.261,0 0,-3.302 -13.329,-3.345 -11.261,0 z m -655.51,679.43 c 3.336,-2.062 3.235,-11.261 0,-11.261 -3.302,0 -3.345,13.329 0,11.261 z m 679.43,655.51 c -2.062,-3.336 -11.261,-3.235 -11.261,0 0,3.302 13.329,3.345 11.261,0 z m 60.059,-1308.3 c 15.857,6.255 16.748,2.662 1.251,-5.05 -47.021,-23.4 -70.291,-53.98 -67.124,-40.789 2.058,8.567 42.197,36.499 65.873,45.839 z m -712.8,568.77 c 6.255,-15.857 2.662,-16.748 -5.05,-1.251 -23.4,47.021 -53.98,70.291 -40.789,67.124 8.567,-2.058 36.499,-42.197 45.839,-65.873 z m 568.77,712.8 c -15.857,-6.255 -16.748,-2.662 -1.251,5.05 47.021,23.401 70.291,53.98 67.124,40.79 -2.058,-8.568 -42.197,-36.5 -65.873,-45.84 z m 712.8,-568.77 c -6.255,15.857 -2.662,16.748 5.05,1.251 23.401,-47.021 53.98,-70.291 40.79,-67.124 -8.568,2.058 -36.5,42.197 -45.84,65.873 z m 45.839,-78.165 c 13.19,3.167 -17.389,-20.104 -40.79,-67.124 -7.712,-15.496 -11.305,-14.606 -5.05,1.251 9.341,23.676 37.273,63.815 45.84,65.873 z m -692.77,-680.48 c 3.167,-13.19 -20.104,17.389 -67.124,40.789 -15.496,7.712 -14.606,11.305 1.251,5.05 23.676,-9.34 63.815,-37.272 65.873,-45.839 z m -680.48,692.77 c -13.19,-3.167 17.389,20.104 40.789,67.124 7.712,15.496 11.305,14.606 5.05,-1.251 -9.34,-23.676 -37.272,-63.815 -45.839,-65.873 z m 692.77,680.48 c -3.167,13.19 20.104,-17.389 67.124,-40.79 15.496,-7.712 14.606,-11.305 -1.251,-5.05 -23.676,9.341 -63.815,37.273 -65.873,45.84 z m -6.146,-1306.2 c 0.425,-0.56 0.869,-1.11 1.325,-1.64 6.049,-7.022 20.353,-9.495 39.82,-6.884 23.311,3.127 -4.296,7.012 -10.796,14.857 -6.929,8.363 22.557,-2.597 32.45,3.581 3.88,2.423 6.954,2.159 15.726,-1.351 11.104,-4.443 25.674,-5.502 40.371,-2.935 13.215,2.308 -10.361,-9.815 -64.924,-23.973 -19.828,-5.145 -21.146,-5.187 -37.537,-1.204 -6.947,1.688 -12.323,3.783 -16.435,6.087 -4.112,-2.304 -9.488,-4.399 -16.435,-6.087 -16.391,-3.983 -17.709,-3.941 -37.537,1.204 -54.564,14.158 -78.14,26.281 -64.924,23.973 14.698,-2.567 29.268,-1.508 40.371,2.935 8.772,3.51 11.847,3.774 15.726,1.351 9.893,-6.179 39.379,4.782 32.45,-3.581 -6.5,-7.845 -34.107,-11.73 -10.796,-14.857 19.467,-2.611 33.771,-0.138 39.82,6.884 0.456,0.53 0.9,1.08 1.325,1.64 z m 619.54,619.54 c 0.56,0.425 1.111,0.869 1.64,1.325 7.022,6.049 9.495,20.353 6.884,39.82 -3.127,23.311 -7.012,-4.296 -14.857,-10.796 -8.363,-6.929 2.597,22.557 -3.581,32.45 -2.423,3.88 -2.159,6.954 1.351,15.726 4.443,11.104 5.502,25.674 2.934,40.371 -2.308,13.215 9.815,-10.361 23.973,-64.924 5.145,-19.828 5.187,-21.146 1.204,-37.537 -1.688,-6.947 -3.783,-12.323 -6.087,-16.435 2.304,-4.112 4.399,-9.488 6.087,-16.435 3.983,-16.391 3.941,-17.709 -1.204,-37.537 -14.157,-54.564 -26.281,-78.14 -23.973,-64.924 2.567,14.698 1.508,29.268 -2.934,40.371 -3.51,8.772 -3.774,11.847 -1.351,15.726 6.179,9.893 -4.782,39.379 3.581,32.45 7.845,-6.5 11.73,-34.107 14.857,-10.796 2.611,19.467 0.138,33.771 -6.884,39.82 -0.53,0.456 -1.08,0.9 -1.64,1.325 z m -619.54,619.54 c -0.425,0.56 -0.869,1.111 -1.325,1.64 -6.049,7.022 -20.353,9.495 -39.82,6.884 -23.311,-3.127 4.296,-7.012 10.796,-14.857 6.929,-8.363 -22.557,2.597 -32.45,-3.581 -3.88,-2.423 -6.954,-2.159 -15.726,1.351 -11.104,4.443 -25.674,5.502 -40.371,2.934 -13.215,-2.308 10.361,9.815 64.924,23.973 19.828,5.145 21.146,5.187 37.537,1.204 6.947,-1.688 12.323,-3.783 16.435,-6.087 4.112,2.304 9.488,4.399 16.435,6.087 16.391,3.983 17.709,3.941 37.537,-1.204 54.564,-14.157 78.14,-26.281 64.924,-23.973 -14.698,2.567 -29.268,1.508 -40.371,-2.934 -8.772,-3.51 -11.847,-3.774 -15.726,-1.351 -9.893,6.179 -39.379,-4.782 -32.45,3.581 6.5,7.845 34.107,11.73 10.796,14.857 -19.467,2.611 -33.771,0.138 -39.82,-6.884 -0.456,-0.53 -0.9,-1.08 -1.325,-1.64 z m -619.54,-619.54 c -0.56,-0.425 -1.11,-0.869 -1.64,-1.325 -7.022,-6.049 -9.495,-20.353 -6.884,-39.82 3.127,-23.311 7.012,4.296 14.857,10.796 8.363,6.929 -2.597,-22.557 3.581,-32.45 2.423,-3.88 2.159,-6.954 -1.351,-15.726 -4.443,-11.104 -5.502,-25.674 -2.935,-40.371 2.308,-13.215 -9.815,10.361 -23.973,64.924 -5.145,19.828 -5.187,21.146 -1.204,37.537 1.688,6.947 3.783,12.323 6.087,16.435 -2.304,4.112 -4.399,9.488 -6.087,16.435 -3.983,16.391 -3.941,17.709 1.204,37.537 14.158,54.564 26.281,78.14 23.973,64.924 -2.567,-14.698 -1.508,-29.268 2.935,-40.371 3.51,-8.772 3.774,-11.847 1.351,-15.726 -6.179,-9.893 4.782,-39.379 -3.581,-32.45 -7.845,6.5 -11.73,34.107 -14.857,10.796 -2.611,-19.467 -0.138,-33.771 6.884,-39.82 0.53,-0.456 1.08,-0.9 1.64,-1.325 z m 999.27,-696.83 c -3.49,5.137 -7.432,9.34 -8.759,9.34 -2.669,0 -63.913,104.57 -167.58,43.788 -26.048,-15.271 -39.684,-12.181 -54.364,-40.383 -19.846,-38.126 -31.27,2.871 -23.204,7.856 2.669,1.65 5.365,14.523 -3.058,13.312 -3.885,-0.559 -6.348,-3.439 -8.173,-9.558 -3.169,-10.623 -31.175,-72.571 -48.103,-72.571 -10.75,0 1.195,-1.215 4.56,35.257 4.113,44.571 37.16,78.641 37.219,71.723 0.057,-6.438 -2.94,-0.64 -8.97,-12.512 -3.206,-6.311 -0.486,-4.349 12.141,8.759 17.766,18.443 27.732,23.259 13.343,6.449 -12.514,-14.619 -7.288,-14.781 -0.255,-6.609 6.189,7.191 37.59,29.563 41.493,29.563 4.992,0 1.998,-4.541 -4.869,-7.386 -7.941,-3.289 -22.932,-17.639 -18.427,-17.639 0,0 33.299,27.093 59.424,26.983 7.213,-0.03 7.164,-0.102 -1.251,-1.837 -15.757,-3.248 -42.779,-18.236 -39.246,-21.768 0.923,-0.923 3.656,0.104 6.073,2.283 7.447,6.713 80.776,38.969 157.34,-2.669 49.159,-26.735 73.427,-89.986 54.669,-62.381 z m -1076.6,317.1 c 5.137,3.49 9.34,7.432 9.34,8.759 0,2.669 104.57,63.913 43.788,167.58 -15.271,26.048 -12.181,39.684 -40.383,54.364 -38.126,19.846 2.871,31.27 7.856,23.204 1.65,-2.669 14.523,-5.365 13.312,3.058 -0.559,3.885 -3.439,6.348 -9.558,8.173 -10.623,3.169 -72.571,31.175 -72.571,48.103 0,10.75 -1.215,-1.195 35.257,-4.56 44.571,-4.113 78.641,-37.16 71.723,-37.219 -6.438,-0.057 -0.64,2.94 -12.512,8.97 -6.311,3.206 -4.349,0.486 8.759,-12.141 18.443,-17.766 23.259,-27.732 6.449,-13.343 -14.619,12.514 -14.781,7.288 -6.609,0.255 7.191,-6.189 29.563,-37.59 29.563,-41.493 0,-4.992 -4.541,-1.998 -7.386,4.869 -3.289,7.941 -17.639,22.932 -17.639,18.427 0,0 27.093,-33.299 26.983,-59.424 -0.03,-7.213 -0.102,-7.164 -1.837,1.251 -3.248,15.758 -18.236,42.779 -21.768,39.246 -0.923,-0.923 0.104,-3.656 2.283,-6.073 6.713,-7.447 38.969,-80.776 -2.669,-157.34 -26.735,-49.159 -89.986,-73.427 -62.381,-54.669 z m 317.1,1076.6 c 3.49,-5.137 7.432,-9.34 8.759,-9.34 2.669,0 63.913,-104.57 167.58,-43.788 26.048,15.271 39.684,12.181 54.364,40.383 19.846,38.126 31.27,-2.871 23.204,-7.856 -2.669,-1.65 -5.365,-14.523 3.058,-13.312 3.885,0.559 6.348,3.439 8.173,9.558 3.169,10.623 31.175,72.571 48.103,72.571 10.75,0 -1.195,1.215 -4.56,-35.257 -4.113,-44.571 -37.16,-78.641 -37.219,-71.723 -0.057,6.438 2.94,0.64 8.97,12.512 3.206,6.311 0.486,4.349 -12.141,-8.759 -17.766,-18.443 -27.732,-23.259 -13.343,-6.449 12.514,14.619 7.288,14.781 0.255,6.609 -6.189,-7.191 -37.59,-29.563 -41.493,-29.563 -4.992,0 -1.998,4.541 4.869,7.385 7.941,3.289 22.932,17.639 18.427,17.639 0,0 -33.299,-27.093 -59.424,-26.983 -7.213,0.03 -7.164,0.102 1.251,1.837 15.758,3.248 42.779,18.236 39.246,21.769 -0.923,0.923 -3.656,-0.104 -6.073,-2.283 -7.447,-6.713 -80.776,-38.969 -157.34,2.669 -49.159,26.735 -73.427,89.986 -54.669,62.381 z m 1076.6,-317.1 c -5.137,-3.49 -9.34,-7.432 -9.34,-8.759 0,-2.669 -104.57,-63.913 -43.788,-167.58 15.271,-26.048 12.181,-39.684 40.383,-54.364 38.126,-19.846 -2.871,-31.27 -7.856,-23.204 -1.65,2.669 -14.523,5.365 -13.312,-3.058 0.559,-3.885 3.439,-6.348 9.558,-8.173 10.623,-3.169 72.571,-31.175 72.571,-48.103 0,-10.75 1.215,1.195 -35.257,4.56 -44.571,4.113 -78.641,37.16 -71.723,37.219 6.438,0.057 0.64,-2.94 12.512,-8.97 6.311,-3.206 4.349,-0.486 -8.759,12.141 -18.443,17.766 -23.259,27.732 -6.449,13.343 14.619,-12.514 14.781,-7.288 6.609,-0.255 -7.191,6.189 -29.563,37.59 -29.563,41.493 0,4.992 4.541,1.998 7.385,-4.869 3.289,-7.941 17.639,-22.932 17.639,-18.427 0,0 -27.093,33.299 -26.983,59.424 0.03,7.213 0.102,7.164 1.837,-1.251 3.248,-15.757 18.236,-42.779 21.769,-39.246 0.923,0.923 -0.104,3.656 -2.283,6.073 -6.713,7.447 -38.969,80.776 2.669,157.34 26.735,49.159 89.986,73.427 62.381,54.669 z m -62.381,-704.8 c -41.637,76.564 -9.382,149.89 -2.669,157.34 2.179,2.417 3.206,5.15 2.283,6.073 -3.533,3.533 -18.521,-23.489 -21.769,-39.246 -1.735,-8.415 -1.807,-8.464 -1.837,-1.251 -0.109,26.125 26.983,59.424 26.983,59.424 0,4.505 -14.35,-10.487 -17.639,-18.427 -2.845,-6.867 -7.385,-9.861 -7.385,-4.869 0,3.903 22.373,35.304 29.563,41.493 8.172,7.034 8.01,12.259 -6.609,-0.255 -16.81,-14.389 -11.993,-4.423 6.449,13.343 13.108,12.627 15.07,15.347 8.759,12.141 -11.873,-6.031 -6.074,-9.027 -12.512,-8.97 -6.918,0.059 27.152,33.106 71.723,37.219 36.472,3.366 35.257,15.31 35.257,4.56 0,-16.927 -61.948,-44.933 -72.571,-48.103 -6.119,-1.826 -9,-4.289 -9.558,-8.173 -1.211,-8.422 11.662,-5.727 13.312,-3.058 4.985,8.065 45.981,-3.359 7.856,-23.204 -28.201,-14.68 -25.112,-28.316 -40.383,-54.364 -60.778,-103.67 43.788,-164.91 43.788,-167.58 0,-1.327 4.203,-5.268 9.34,-8.759 27.605,-18.758 -35.646,5.51 -62.381,54.669 z m -959.51,-309.39 c 76.564,41.637 149.89,9.382 157.34,2.669 2.417,-2.179 5.15,-3.206 6.073,-2.283 3.533,3.533 -23.489,18.521 -39.246,21.768 -8.415,1.735 -8.464,1.807 -1.251,1.837 26.125,0.109 59.424,-26.983 59.424,-26.983 4.505,0 -10.487,14.35 -18.427,17.639 -6.867,2.845 -9.861,7.386 -4.869,7.386 3.903,0 35.304,-22.373 41.493,-29.563 7.034,-8.172 12.259,-8.01 -0.255,6.609 -14.389,16.81 -4.423,11.993 13.343,-6.449 12.627,-13.108 15.347,-15.07 12.141,-8.759 -6.031,11.873 -9.027,6.074 -8.97,12.512 0.059,6.918 33.106,-27.152 37.219,-71.723 3.366,-36.472 15.31,-35.257 4.56,-35.257 -16.927,0 -44.933,61.948 -48.103,72.571 -1.826,6.119 -4.289,9 -8.173,9.558 -8.422,1.211 -5.727,-11.662 -3.058,-13.312 8.065,-4.985 -3.359,-45.981 -23.204,-7.856 -14.68,28.201 -28.316,25.112 -54.364,40.383 -103.67,60.778 -164.91,-43.788 -167.58,-43.788 -1.327,0 -5.268,-4.203 -8.759,-9.34 -18.758,-27.605 5.51,35.646 54.669,62.381 z m -309.39,959.51 c 41.637,-76.564 9.382,-149.89 2.669,-157.34 -2.179,-2.417 -3.206,-5.15 -2.283,-6.073 3.533,-3.533 18.521,23.489 21.768,39.246 1.735,8.415 1.807,8.464 1.837,1.251 0.109,-26.125 -26.983,-59.424 -26.983,-59.424 0,-4.505 14.35,10.487 17.639,18.427 2.845,6.867 7.386,9.861 7.386,4.869 0,-3.903 -22.373,-35.304 -29.563,-41.493 -8.172,-7.034 -8.01,-12.259 6.609,0.255 16.81,14.389 11.993,4.423 -6.449,-13.343 -13.108,-12.627 -15.07,-15.347 -8.759,-12.141 11.873,6.031 6.074,9.027 12.512,8.97 6.918,-0.059 -27.152,-33.106 -71.723,-37.219 -36.472,-3.366 -35.257,-15.31 -35.257,-4.56 0,16.927 61.948,44.933 72.571,48.103 6.119,1.826 9,4.289 9.558,8.173 1.211,8.422 -11.662,5.727 -13.312,3.058 -4.985,-8.065 -45.981,3.359 -7.856,23.204 28.201,14.68 25.112,28.316 40.383,54.364 60.778,103.67 -43.788,164.91 -43.788,167.58 0,1.327 -4.203,5.268 -9.34,8.759 -27.605,18.758 35.646,-5.51 62.381,-54.669 z m 959.51,309.39 c -76.564,-41.637 -149.89,-9.382 -157.34,-2.669 -2.417,2.179 -5.15,3.206 -6.073,2.283 -3.533,-3.533 23.489,-18.521 39.246,-21.769 8.415,-1.735 8.464,-1.807 1.251,-1.837 -26.125,-0.109 -59.424,26.983 -59.424,26.983 -4.505,0 10.487,-14.35 18.427,-17.639 6.867,-2.845 9.861,-7.385 4.869,-7.385 -3.903,0 -35.304,22.373 -41.493,29.563 -7.034,8.172 -12.259,8.01 0.255,-6.609 14.389,-16.81 4.423,-11.993 -13.343,6.449 -12.627,13.108 -15.347,15.07 -12.141,8.759 6.031,-11.873 9.027,-6.074 8.97,-12.512 -0.059,-6.918 -33.106,27.152 -37.219,71.723 -3.366,36.472 -15.31,35.257 -4.56,35.257 16.927,0 44.933,-61.948 48.103,-72.571 1.826,-6.119 4.289,-9 8.173,-9.558 8.422,-1.211 5.727,11.662 3.058,13.312 -8.065,4.985 3.359,45.981 23.204,7.856 14.68,-28.201 28.316,-25.112 54.364,-40.383 103.67,-60.778 164.91,43.788 167.58,43.788 1.327,0 5.268,4.203 8.759,9.34 18.758,27.605 -5.51,-35.646 -54.669,-62.381 z m 67.126,-1261.2 c -9.929,1.898 -1.856,-2.893 -6.807,-7.843 -2.075,-2.075 -2.041,-2.807 0.131,-2.807 1.616,0 4.717,-3.438 6.89,-7.64 7.628,-14.751 15.919,-15.443 11.053,-21.305 -6.446,-7.767 -24.335,-0.899 -34.372,13.196 -5.512,7.741 -4.074,14.453 2.552,11.91 16.137,-6.193 -10.037,28.781 -16.861,31.375 -20.32,7.725 15.503,5.403 24.502,1.537 12.883,-5.536 28.098,-21.326 12.912,-18.423 z m -1019,234.6 c 1.898,9.929 -2.893,1.856 -7.843,6.807 -2.075,2.075 -2.807,2.041 -2.807,-0.131 0,-1.616 -3.438,-4.717 -7.64,-6.89 -14.751,-7.628 -15.443,-15.919 -21.305,-11.053 -7.767,6.446 -0.899,24.335 13.196,34.372 7.741,5.512 14.453,4.074 11.91,-2.551 -6.193,-16.138 28.781,10.037 31.375,16.861 7.725,20.32 5.403,-15.503 1.537,-24.502 -5.536,-12.884 -21.326,-28.099 -18.423,-12.913 z m 234.6,1019 c 9.929,-1.898 1.856,2.893 6.807,7.843 2.075,2.075 2.041,2.807 -0.131,2.807 -1.616,0 -4.717,3.438 -6.89,7.641 -7.628,14.751 -15.919,15.443 -11.053,21.305 6.446,7.767 24.335,0.899 34.372,-13.196 5.512,-7.741 4.074,-14.453 -2.551,-11.91 -16.138,6.193 10.037,-28.781 16.861,-31.375 20.32,-7.725 -15.503,-5.403 -24.502,-1.537 -12.884,5.535 -28.099,21.325 -12.913,18.422 z m 1019,-234.6 c -1.898,-9.929 2.893,-1.856 7.843,-6.807 2.075,-2.075 2.807,-2.041 2.807,0.131 0,1.616 3.438,4.717 7.641,6.89 14.751,7.628 15.443,15.919 21.305,11.053 7.767,-6.446 0.899,-24.335 -13.196,-34.372 -7.741,-5.512 -14.453,-4.074 -11.91,2.552 6.193,16.137 -28.781,-10.037 -31.375,-16.861 -7.725,-20.32 -5.403,15.503 -1.537,24.502 5.535,12.883 21.325,28.098 18.422,12.912 z m -18.422,-771.47 c -3.866,9 -6.188,44.822 1.537,24.502 2.595,-6.824 37.568,-32.999 31.375,-16.861 -2.542,6.626 4.169,8.064 11.91,2.551 14.095,-10.037 20.963,-27.926 13.196,-34.372 -5.863,-4.866 -6.554,3.425 -21.305,11.053 -4.202,2.173 -7.641,5.273 -7.641,6.89 0,2.172 -0.733,2.206 -2.807,0.131 -4.949,-4.951 -9.741,3.122 -7.843,-6.807 2.903,-15.185 -12.887,0.03 -18.422,12.913 z m -987.65,-229.09 c 9,3.866 44.822,6.188 24.502,-1.537 -6.824,-2.595 -32.999,-37.568 -16.861,-31.375 6.626,2.543 8.064,-4.169 2.551,-11.91 -10.037,-14.095 -27.926,-20.963 -34.372,-13.196 -4.866,5.863 3.425,6.554 11.053,21.305 2.173,4.202 5.273,7.64 6.89,7.64 2.172,0 2.206,0.732 0.131,2.807 -4.951,4.95 3.122,9.741 -6.807,7.843 -15.185,-2.902 0.03,12.888 12.913,18.423 z m -229.09,987.65 c 3.866,-9 6.188,-44.822 -1.537,-24.502 -2.595,6.824 -37.568,32.999 -31.375,16.861 2.543,-6.626 -4.169,-8.064 -11.91,-2.552 -14.095,10.037 -20.963,27.926 -13.196,34.372 5.863,4.866 6.554,-3.425 21.305,-11.053 4.202,-2.173 7.64,-5.273 7.64,-6.89 0,-2.172 0.732,-2.206 2.807,-0.131 4.95,4.951 9.741,-3.122 7.843,6.807 -2.902,15.186 12.888,-0.029 18.423,-12.912 z m 987.65,229.09 c -9,-3.866 -44.822,-6.188 -24.502,1.537 6.824,2.595 32.999,37.568 16.861,31.375 -6.626,-2.542 -8.064,4.169 -2.552,11.91 10.037,14.095 27.926,20.963 34.372,13.196 4.866,-5.863 -3.425,-6.554 -11.053,-21.305 -2.173,-4.202 -5.273,-7.641 -6.89,-7.641 -2.172,0 -2.206,-0.733 -0.131,-2.807 4.951,-4.949 -3.122,-9.741 6.807,-7.843 15.186,2.903 -0.029,-12.887 -12.912,-18.422 z m 82.412,-1256.4 c -17.18,-38.751 -58.485,-10.748 -62.031,3.928 -3.751,15.526 15.888,-2.558 14.659,11.684 -1.463,16.959 -1.233,20.129 1.719,23.687 5.156,6.212 23.94,5.086 28.708,-1.721 9.095,-12.985 -2.685,-26.311 11.165,-23.269 9.887,2.171 11.412,-1.604 5.78,-14.309 z m -1109.7,186.36 c -38.751,17.18 -10.748,58.485 3.928,62.031 15.526,3.751 -2.558,-15.888 11.684,-14.659 16.959,1.463 20.129,1.233 23.687,-1.719 6.212,-5.156 5.086,-23.94 -1.721,-28.708 -12.985,-9.095 -26.311,2.685 -23.269,-11.165 2.171,-9.887 -1.604,-11.412 -14.309,-5.78 z m 186.36,1109.7 c 17.18,38.751 58.485,10.748 62.031,-3.928 3.751,-15.526 -15.888,2.558 -14.659,-11.684 1.463,-16.959 1.233,-20.129 -1.719,-23.687 -5.156,-6.213 -23.94,-5.086 -28.708,1.721 -9.095,12.985 2.685,26.311 -11.165,23.269 -9.887,-2.171 -11.412,1.604 -5.78,14.309 z m 1109.7,-186.36 c 38.751,-17.18 10.748,-58.485 -3.928,-62.031 -15.526,-3.751 2.558,15.888 -11.684,14.659 -16.959,-1.463 -20.129,-1.233 -23.687,1.719 -6.213,5.156 -5.086,23.94 1.721,28.708 12.985,9.095 26.311,-2.685 23.269,11.165 -2.171,9.887 1.604,11.412 14.309,5.78 z m -14.308,-917.6 c 3.042,13.85 -10.284,2.07 -23.269,11.165 -6.808,4.768 -7.934,23.552 -1.721,28.708 3.557,2.952 6.728,3.182 23.687,1.719 14.242,-1.229 -3.843,18.41 11.684,14.659 14.676,-3.546 42.679,-44.851 3.928,-62.031 -12.706,-5.632 -16.481,-4.107 -14.309,5.78 z m -1089.6,-177.83 c 13.85,-3.042 2.07,10.284 11.165,23.269 4.768,6.808 23.552,7.934 28.708,1.721 2.952,-3.557 3.182,-6.728 1.719,-23.687 -1.229,-14.242 18.41,3.843 14.659,-11.684 -3.546,-14.676 -44.851,-42.679 -62.031,-3.928 -5.632,12.706 -4.107,16.481 5.78,14.309 z m -177.83,1089.6 c -3.042,-13.85 10.284,-2.07 23.269,-11.165 6.808,-4.768 7.934,-23.552 1.721,-28.708 -3.557,-2.952 -6.728,-3.182 -23.687,-1.719 -14.242,1.229 3.843,-18.41 -11.684,-14.659 -14.676,3.546 -42.679,44.851 -3.928,62.031 12.706,5.632 16.481,4.107 14.309,-5.78 z m 1089.6,177.83 c -13.85,3.042 -2.07,-10.284 -11.165,-23.269 -4.768,-6.808 -23.552,-7.934 -28.708,-1.721 -2.952,3.557 -3.182,6.728 -1.719,23.687 1.229,14.242 -18.41,-3.843 -14.659,11.684 3.546,14.676 44.851,42.679 62.031,3.928 5.632,-12.706 4.107,-16.481 -5.78,-14.309 z m 39.652,-1284.5 c -10.756,-16.598 -26.952,-16.683 -37.252,-16.683 13.825,19.416 15.393,37.954 13.743,40.624 -1.892,3.062 10.361,0.387 7.713,4.672 -2.141,3.464 -16.11,-0.205 -16.11,2.186 0,3.116 15.028,14.269 21.271,15.786 9.327,2.266 26.276,1.81 26.276,-0.706 0,-1.376 -1.039,-2.502 -2.31,-2.502 -2.67,0 -14.558,-9.431 -24.834,-30.03 17.624,0 21.009,1.322 11.503,-13.347 z m -1146.4,155.23 c -16.598,10.756 -16.683,26.952 -16.683,37.252 19.416,-13.825 37.954,-15.393 40.624,-13.743 3.062,1.892 0.387,-10.361 4.672,-7.713 3.464,2.141 -0.205,16.11 2.186,16.11 3.116,0 14.269,-15.028 15.786,-21.271 2.266,-9.327 1.81,-26.276 -0.706,-26.276 -1.376,0 -2.502,1.039 -2.502,2.31 0,2.67 -9.431,14.558 -30.03,24.833 0,-17.623 1.322,-21.008 -13.347,-11.502 z m 155.23,1146.4 c 10.756,16.598 26.952,16.683 37.252,16.683 -13.825,-19.416 -15.393,-37.954 -13.743,-40.624 1.892,-3.062 -10.361,-0.387 -7.713,-4.672 2.141,-3.464 16.11,0.205 16.11,-2.186 0,-3.116 -15.028,-14.269 -21.271,-15.786 -9.327,-2.266 -26.276,-1.81 -26.276,0.706 0,1.376 1.039,2.502 2.31,2.502 2.67,0 14.558,9.431 24.833,30.03 -17.623,0 -21.008,-1.322 -11.502,13.347 z m 1146.4,-155.23 c 16.598,-10.756 16.683,-26.952 16.683,-37.252 -19.416,13.825 -37.954,15.393 -40.624,13.743 -3.062,-1.892 -0.387,10.361 -4.672,7.713 -3.464,-2.141 0.205,-16.11 -2.186,-16.11 -3.116,0 -14.269,15.028 -15.786,21.271 -2.266,9.327 -1.81,26.276 0.706,26.276 1.376,0 2.502,-1.039 2.502,-2.31 0,-2.67 9.431,-14.558 30.03,-24.834 0,17.624 -1.322,21.009 13.347,11.503 z m -13.347,-979.62 c -20.599,-10.276 -30.03,-22.163 -30.03,-24.833 0,-1.27 -1.126,-2.31 -2.502,-2.31 -2.516,0 -2.972,16.949 -0.706,26.276 1.516,6.242 12.669,21.271 15.786,21.271 2.39,0 -1.278,-13.97 2.186,-16.11 4.285,-2.648 1.61,9.605 4.672,7.713 2.67,-1.65 21.208,-0.082 40.624,13.743 0,-10.3 -0.085,-26.496 -16.683,-37.252 -14.669,-9.507 -13.347,-6.122 -13.347,11.502 z M 316.02,162.492 c -10.276,20.599 -22.163,30.03 -24.833,30.03 -1.27,0 -2.31,1.126 -2.31,2.502 0,2.516 16.949,2.972 26.276,0.706 6.242,-1.516 21.271,-12.669 21.271,-15.786 0,-2.39 -13.97,1.278 -16.11,-2.186 -2.648,-4.285 9.605,-1.61 7.713,-4.672 -1.65,-2.67 -0.082,-21.209 13.743,-40.624 -10.3,0 -26.496,0.085 -37.252,16.683 -9.507,14.669 -6.122,13.347 11.502,13.347 z m -153.38,1121.5 c 20.599,10.276 30.03,22.163 30.03,24.834 0,1.27 1.126,2.31 2.502,2.31 2.516,0 2.972,-16.949 0.706,-26.276 -1.516,-6.242 -12.669,-21.271 -15.786,-21.271 -2.39,0 1.278,13.97 -2.186,16.11 -4.285,2.648 -1.61,-9.605 -4.672,-7.713 -2.67,1.65 -21.209,0.082 -40.624,-13.743 0,10.3 0.085,26.496 16.683,37.252 14.669,9.506 13.347,6.121 13.347,-11.503 z m 1121.5,153.38 c 10.276,-20.599 22.163,-30.03 24.834,-30.03 1.27,0 2.31,-1.126 2.31,-2.502 0,-2.516 -16.949,-2.972 -26.276,-0.706 -6.242,1.516 -21.271,12.669 -21.271,15.786 0,2.39 13.97,-1.278 16.11,2.186 2.648,4.285 -9.605,1.61 -7.713,4.672 1.65,2.67 0.082,21.208 -13.743,40.624 10.3,0 26.496,-0.085 37.252,-16.683 9.506,-14.669 6.121,-13.347 -11.503,-13.347 z m 150.42,-1271.9 c -28.501,12.222 -47.956,15.34 -99.5,-11.027 -35.575,-18.199 -61.31,-72.358 -61.31,-56.829 0,11.437 44.863,52.841 45.335,61.076 0.245,4.267 0.471,4.37 1.441,0.65 1.071,-4.107 1.658,-4.053 8.435,0.772 25.071,17.852 54.692,26.789 81.859,29.097 2.308,27.167 11.246,56.789 29.097,81.859 4.826,6.777 4.88,7.364 0.772,8.435 -3.72,0.97 -3.617,1.197 0.65,1.441 8.235,0.472 49.64,45.335 61.076,45.335 15.529,0 -38.63,-25.735 -56.829,-61.31 -26.366,-51.544 -23.247,-70.998 -11.026,-99.499 z m 0,1269 c -12.221,-28.501 -15.34,-47.956 11.027,-99.5 18.198,-35.575 72.358,-61.31 56.829,-61.31 -11.437,0 -52.841,44.863 -61.076,45.335 -4.267,0.245 -4.37,0.471 -0.65,1.441 4.107,1.071 4.053,1.658 -0.772,8.435 -17.852,25.071 -26.789,54.692 -29.097,81.859 -27.167,2.308 -56.789,11.246 -81.859,29.097 -6.777,4.826 -7.364,4.88 -8.435,0.772 -0.97,-3.72 -1.197,-3.617 -1.441,0.65 -0.472,8.235 -45.335,49.64 -45.335,61.076 0,15.529 25.735,-38.63 61.31,-56.829 51.544,-26.366 70.998,-23.247 99.499,-11.026 z m -1269,0 c 28.501,-12.221 47.956,-15.34 99.5,11.027 35.575,18.198 61.31,72.358 61.31,56.829 0,-11.437 -44.863,-52.841 -45.335,-61.076 -0.245,-4.267 -0.471,-4.37 -1.441,-0.65 -1.071,4.107 -1.658,4.053 -8.435,-0.772 -25.071,-17.852 -54.692,-26.789 -81.859,-29.097 -2.308,-27.167 -11.246,-56.789 -29.097,-81.859 -4.826,-6.777 -4.879,-7.364 -0.772,-8.435 3.72,-0.97 3.617,-1.197 -0.65,-1.441 -8.235,-0.472 -49.639,-45.335 -61.076,-45.335 -15.529,0 38.631,25.735 56.829,61.31 26.366,51.544 23.247,70.998 11.026,99.499 z m 0,-1269 c 12.222,28.501 15.34,47.956 -11.027,99.5 -18.199,35.575 -72.358,61.31 -56.829,61.31 11.437,0 52.841,-44.863 61.076,-45.335 4.267,-0.245 4.37,-0.471 0.65,-1.441 -4.107,-1.071 -4.053,-1.658 0.772,-8.435 17.852,-25.071 26.789,-54.692 29.097,-81.859 27.167,-2.308 56.789,-11.246 81.859,-29.097 6.777,-4.826 7.364,-4.879 8.435,-0.772 0.97,3.72 1.197,3.617 1.441,-0.65 0.472,-8.235 45.335,-49.639 45.335,-61.076 0,-15.529 -25.735,38.631 -61.31,56.829 -51.544,26.366 -70.998,23.247 -99.499,11.026 z m 1109.3,19.664 c -0.814,1.316 0.84,2.393 3.674,2.393 11.897,0 -1.293,-6.245 -3.674,-2.393 z m -1089.7,139.96 c 1.316,0.814 2.393,-0.84 2.393,-3.674 0,-11.897 -6.245,1.293 -2.393,3.674 z m 139.96,1089.7 c 0.814,-1.316 -0.84,-2.393 -3.674,-2.393 -11.897,0 1.293,6.245 3.674,2.393 z m 1089.7,-139.96 c -1.316,-0.814 -2.393,0.84 -2.393,3.674 0,11.897 6.245,-1.293 2.393,-3.674 z m -2.393,-953.37 c 0,2.834 1.077,4.487 2.393,3.674 3.852,-2.381 -2.393,-15.571 -2.393,-3.674 z m -1090.9,-133.9 c 2.834,0 4.487,-1.077 3.674,-2.393 -2.381,-3.852 -15.571,2.393 -3.674,2.393 z m -133.9,1090.9 c 0,-2.834 -1.077,-4.487 -2.393,-3.674 -3.852,2.381 2.393,15.571 2.393,3.674 z m 1090.9,133.9 c -2.834,0 -4.487,1.077 -3.674,2.393 2.381,3.852 15.571,-2.393 3.674,-2.393 z m -57.409,-1269.9 c 0,3.2 17.57,3.2 22.522,0 5.817,-3.759 -22.522,-3.052 -22.522,0 z m -1078.6,236.35 c 3.2,0 3.2,-17.57 0,-22.522 -3.759,-5.817 -3.052,22.522 0,22.522 z m 236.35,1078.6 c 0,-3.2 -17.57,-3.2 -22.522,0 -5.817,3.759 22.522,3.052 22.522,0 z m 1078.6,-236.35 c -3.2,0 -3.2,17.57 0,22.522 3.759,5.817 3.052,-22.522 0,-22.522 z m 0,-864.75 c -3.2,4.952 -3.2,22.522 0,22.522 3.052,0 3.759,-28.339 0,-22.522 z m -1101.1,-213.83 c 4.952,3.2 22.522,3.2 22.522,0 0,-3.052 -28.339,-3.759 -22.522,0 z m -213.83,1101.1 c 3.2,-4.952 3.2,-22.522 0,-22.522 -3.052,0 -3.759,28.339 0,22.522 z m 1101.1,213.83 c -4.952,-3.2 -22.522,-3.2 -22.522,0 0,3.052 28.339,3.759 22.522,0 z m -14.341,-1299.1 c -2.435,0.635 -1.049,1.196 3.08,1.247 10.095,0.124 2.823,-2.786 -3.08,-1.247 z m -1071,212.38 c 0.635,2.435 1.196,1.049 1.247,-3.08 0.124,-10.095 -2.786,-2.823 -1.247,3.08 z m 212.38,1071 c 2.435,-0.635 1.049,-1.196 -3.08,-1.246 -10.095,-0.125 -2.823,2.785 3.08,1.246 z m 1071,-212.38 c -0.635,-2.435 -1.196,-1.049 -1.246,3.08 -0.125,10.095 2.785,2.823 1.246,-3.08 z m -1.247,-861.67 c 0.051,4.129 0.612,5.515 1.246,3.08 1.54,-5.903 -1.37,-13.175 -1.246,-3.08 z M 367.63,159.586 c 4.129,-0.051 5.515,-0.612 3.08,-1.246 -5.903,-1.54 -13.175,1.37 -3.08,1.246 z m -208.06,1072.8 c -0.051,-4.129 -0.612,-5.515 -1.246,-3.08 -1.54,5.903 1.37,13.175 1.246,3.08 z m 1072.8,208.06 c -4.129,0.051 -5.515,0.612 -3.08,1.246 5.903,1.54 13.175,-1.37 3.08,-1.246 z m -2.503,-1288.6 c 6.882,0.019 9.994,-0.452 6.916,-1.046 -7.476,-1.443 -23.743,1 -6.916,1.046 z m -1078,218.3 c 0.019,-6.882 -0.452,-9.994 -1.046,-6.916 -1.443,7.476 1,23.743 1.046,6.916 z m 218.3,1078 c -6.882,-0.019 -9.994,0.452 -6.916,1.046 7.476,1.443 23.743,-1 6.916,-1.046 z m 1078,-218.3 c -0.019,6.882 0.452,9.994 1.046,6.916 1.443,-7.476 -1,-23.743 -1.046,-6.916 z m 1.046,-866.66 c -0.594,-3.078 -1.065,0.035 -1.046,6.916 0.046,16.828 2.489,0.561 1.046,-6.916 z m -1086,-212.43 c -3.078,0.594 0.035,1.065 6.916,1.046 16.828,-0.046 0.561,-2.489 -6.916,-1.046 z m -212.43,1086 c 0.594,3.078 1.065,-0.035 1.046,-6.916 -0.046,-16.828 -2.489,-0.561 -1.046,6.916 z m 1086,212.43 c 3.078,-0.594 -0.035,-1.065 -6.916,-1.046 -16.828,0.046 -0.561,2.489 6.916,1.046 z m -157.06,-1304.2 7.507,3.537 c 10.76,5.069 16.795,1.221 -7.507,-3.537 z m -934.71,375.26 3.537,-7.507 c 5.069,-10.76 1.221,-16.795 -3.537,7.507 z m 375.26,934.71 -7.507,-3.536 c -10.76,-5.07 -16.795,-1.222 7.507,3.536 z m 934.71,-375.26 -3.536,7.507 c -5.07,10.76 -1.222,16.795 3.536,-7.507 z m -3.537,-566.96 3.536,7.507 c -4.757,-24.302 -8.605,-18.267 -3.536,-7.507 z m -938.68,-364.22 7.507,-3.537 c -24.302,4.758 -18.267,8.606 -7.507,3.537 z m -364.22,938.68 -3.537,-7.507 c 4.758,24.302 8.606,18.267 3.537,7.507 z m 938.68,364.22 -7.507,3.536 c 24.302,-4.757 18.267,-8.605 7.507,-3.536 z m -23.773,-1297.6 c 0,-1.97 -15.385,-9.287 -16.72,-7.952 -1.658,1.658 16.72,12.146 16.72,7.952 z m -909.6,382.68 c -1.97,0 -9.287,15.385 -7.952,16.72 1.658,1.658 12.146,-16.72 7.952,-16.72 z m 382.68,909.6 c 0,1.97 15.385,9.287 16.72,7.952 1.658,-1.658 -16.72,-12.146 -16.72,-7.952 z m 909.6,-382.68 c 1.97,0 9.287,-15.385 7.952,-16.72 -1.658,-1.658 -12.146,16.72 -7.952,16.72 z m 7.952,-510.2 c 1.335,-1.335 -5.982,-16.72 -7.952,-16.72 -4.194,0 6.294,18.378 7.952,16.72 z m -900.83,-407.35 c -1.335,-1.335 -16.72,5.982 -16.72,7.952 0,4.194 18.378,-6.294 16.72,-7.952 z m -407.35,900.83 c -1.335,1.335 5.982,16.72 7.952,16.72 4.194,0 -6.294,-18.378 -7.952,-16.72 z m 900.83,407.35 c 1.335,1.335 16.72,-5.982 16.72,-7.952 0,-4.194 -18.378,6.294 -16.72,7.952 z m 85.06,-1331.6 c -13.8,-0.039 -19.411,-1.654 -24.547,-2.782 25.362,15.494 49.58,2.846 24.547,2.782 z m -1009.3,345.72 c -0.039,13.8 -1.654,19.411 -2.782,24.547 15.494,-25.362 2.846,-49.58 2.782,-24.547 z m 345.72,1009.3 c 13.8,0.039 19.411,1.654 24.547,2.782 -25.362,-15.494 -49.58,-2.846 -24.547,-2.782 z m 1009.3,-345.72 c 0.039,-13.8 1.654,-19.411 2.782,-24.547 -15.494,25.362 -2.846,49.58 -2.782,24.547 z m 2.782,-639.05 c -1.128,-5.136 -2.743,-10.747 -2.782,-24.547 -0.064,-25.033 -12.712,-0.815 2.782,24.547 z m -987.55,-373.05 c -5.136,1.128 -10.747,2.743 -24.547,2.782 -25.033,0.064 -0.815,12.712 24.547,-2.782 z m -373.05,987.55 c 1.128,5.136 2.743,10.747 2.782,24.547 0.064,25.033 12.712,0.815 -2.782,-24.547 z m 987.55,373.05 c 5.136,-1.128 10.747,-2.743 24.547,-2.782 25.033,-0.064 0.815,-12.712 -24.547,2.782 z m 290.9,-1278.4 c -20.79,-4.149 -22.724,-10.404 -37.834,-13.167 -24.957,-4.564 -41.792,-31.129 -56.498,-19.221 -16.329,13.223 22.398,21.289 22.398,25.933 0,7.373 -39.921,19.616 -64.002,-2.988 -10.125,-9.505 -2.044,2.857 -20.937,11.377 -12.579,5.672 -24.668,2.552 -31.426,-8.111 -4.504,-7.107 -13.764,-11.176 -13.764,-6.048 0,2.669 -16.893,11.887 -25.491,13.91 -15.442,3.633 -51.398,-10.501 -32.972,-14.937 38.776,-9.336 28.209,-30.64 16.157,-24.616 -80.134,40.058 -103.98,37.004 -152.89,37.176 -102.91,0.362 -79.19,-17.158 -128.58,-0.944 -29.217,9.591 -7.327,-4.632 -37.475,-1.089 -17.697,2.08 -12.783,-0.135 -15.542,-7.328 -1.706,-4.444 6.403,-10.992 9.872,-14.224 -20.891,0 -28.133,8.185 -24.092,14.818 4.24,6.959 4.183,7.075 -4.481,8.978 -0.2,0.044 -0.399,0.085 -0.597,0.123 -0.198,-0.038 -0.397,-0.079 -0.597,-0.123 -8.664,-1.903 -8.721,-2.018 -4.481,-8.978 4.042,-6.633 -3.201,-14.818 -24.092,-14.818 3.469,3.232 11.578,9.78 9.872,14.224 -2.76,7.193 2.154,9.407 -15.542,7.328 -30.148,-3.543 -8.258,10.68 -37.475,1.089 -49.391,-16.214 -25.672,1.306 -128.58,0.944 -48.911,-0.172 -72.752,2.882 -152.89,-37.176 -12.051,-6.024 -22.619,15.28 16.157,24.616 18.426,4.436 -17.53,18.57 -32.972,14.937 -8.598,-2.023 -25.491,-11.241 -25.491,-13.91 0,-5.128 -9.259,-1.059 -13.764,6.048 -6.758,10.663 -18.847,13.783 -31.426,8.111 -18.893,-8.52 -10.812,-20.882 -20.937,-11.377 -24.081,22.605 -64.002,10.362 -64.002,2.988 0,-4.644 38.727,-12.71 22.398,-25.933 -14.706,-11.908 -31.542,14.657 -56.498,19.221 -15.11,2.764 -17.043,9.018 -37.834,13.167 -4.149,20.79 -10.404,22.724 -13.167,37.834 -4.564,24.957 -31.129,41.792 -19.221,56.498 13.223,16.329 21.289,-22.398 25.933,-22.398 7.373,0 19.616,39.921 -2.988,64.002 -9.505,10.125 2.857,2.044 11.377,20.937 5.672,12.579 2.552,24.668 -8.111,31.426 -7.107,4.504 -11.176,13.764 -6.048,13.764 2.669,0 11.887,16.893 13.91,25.491 3.633,15.442 -10.501,51.398 -14.937,32.972 -9.336,-38.776 -30.64,-28.209 -24.616,-16.157 40.058,80.134 37.004,103.98 37.176,152.89 0.362,102.91 -17.158,79.19 -0.944,128.58 9.591,29.217 -4.632,7.327 -1.089,37.475 2.08,17.697 -0.135,12.783 -7.328,15.542 -4.444,1.706 -10.992,-6.403 -14.224,-9.872 0,20.891 8.185,28.133 14.818,24.092 6.959,-4.24 7.075,-4.183 8.978,4.481 0.044,0.2 0.085,0.399 0.123,0.597 -0.038,0.198 -0.079,0.397 -0.123,0.597 -1.903,8.664 -2.018,8.721 -8.978,4.481 -6.633,-4.042 -14.818,3.201 -14.818,24.092 3.232,-3.469 9.78,-11.578 14.224,-9.872 7.193,2.76 9.407,-2.154 7.328,15.542 -3.543,30.148 10.68,8.258 1.089,37.475 -16.214,49.391 1.306,25.672 0.944,128.58 -0.172,48.911 2.882,72.752 -37.176,152.89 -6.024,12.051 15.28,22.619 24.616,-16.157 4.436,-18.426 18.57,17.53 14.937,32.972 -2.023,8.598 -11.241,25.491 -13.91,25.491 -5.128,0 -1.059,9.259 6.048,13.764 10.663,6.758 13.783,18.847 8.111,31.426 -8.52,18.893 -20.882,10.812 -11.377,20.937 22.605,24.081 10.362,64.002 2.988,64.002 -4.644,0 -12.71,-38.727 -25.933,-22.398 -11.908,14.706 14.657,31.542 19.221,56.498 2.764,15.11 9.018,17.043 13.167,37.834 20.79,4.149 22.724,10.404 37.834,13.167 24.957,4.564 41.792,31.129 56.498,19.221 16.329,-13.223 -22.398,-21.289 -22.398,-25.933 0,-7.374 39.921,-19.616 64.002,2.988 10.125,9.505 2.044,-2.857 20.937,-11.377 12.579,-5.672 24.668,-2.552 31.426,8.111 4.504,7.107 13.764,11.176 13.764,6.048 0,-2.669 16.893,-11.887 25.491,-13.91 15.442,-3.633 51.398,10.501 32.972,14.937 -38.776,9.336 -28.209,30.64 -16.157,24.616 80.134,-40.058 103.98,-37.004 152.89,-37.176 102.91,-0.362 79.19,17.158 128.58,0.944 29.217,-9.591 7.327,4.632 37.475,1.089 17.697,-2.08 12.783,0.135 15.542,7.328 1.706,4.444 -6.403,10.992 -9.872,14.224 20.891,0 28.133,-8.185 24.092,-14.818 -4.24,-6.959 -4.183,-7.075 4.481,-8.978 0.2,-0.044 0.399,-0.085 0.597,-0.123 0.198,0.038 0.397,0.079 0.597,0.123 8.664,1.903 8.721,2.018 4.481,8.978 -4.042,6.633 3.201,14.818 24.092,14.818 -3.469,-3.232 -11.578,-9.78 -9.872,-14.224 2.76,-7.193 -2.154,-9.407 15.542,-7.328 30.148,3.543 8.258,-10.68 37.475,-1.089 49.391,16.214 25.672,-1.306 128.58,-0.944 48.911,0.172 72.752,-2.882 152.89,37.176 12.051,6.024 22.619,-15.28 -16.157,-24.616 -18.426,-4.436 17.53,-18.57 32.972,-14.937 8.598,2.023 25.491,11.241 25.491,13.91 0,5.128 9.259,1.059 13.764,-6.048 6.758,-10.663 18.847,-13.783 31.426,-8.111 18.893,8.52 10.812,20.882 20.937,11.377 24.081,-22.605 64.002,-10.362 64.002,-2.988 0,4.644 -38.727,12.71 -22.398,25.933 14.706,11.908 31.542,-14.657 56.498,-19.221 15.11,-2.764 17.043,-9.018 37.834,-13.167 4.149,-20.79 10.404,-22.724 13.167,-37.834 4.564,-24.957 31.129,-41.792 19.221,-56.498 -13.223,-16.329 -21.289,22.398 -25.933,22.398 -7.374,0 -19.616,-39.921 2.988,-64.002 9.505,-10.125 -2.857,-2.044 -11.377,-20.937 -5.672,-12.579 -2.552,-24.668 8.111,-31.426 7.107,-4.504 11.176,-13.764 6.048,-13.764 -2.669,0 -11.887,-16.893 -13.91,-25.491 -3.633,-15.442 10.501,-51.398 14.937,-32.972 9.336,38.776 30.64,28.209 24.616,16.157 -40.058,-80.134 -37.004,-103.98 -37.176,-152.89 -0.362,-102.91 17.158,-79.19 0.944,-128.58 -9.591,-29.217 4.632,-7.327 1.089,-37.475 -2.08,-17.697 0.135,-12.783 7.328,-15.542 4.444,-1.706 10.992,6.403 14.224,9.872 0,-20.891 -8.185,-28.133 -14.818,-24.092 -6.959,4.24 -7.075,4.183 -8.978,-4.481 -0.044,-0.2 -0.085,-0.399 -0.123,-0.597 0.038,-0.198 0.079,-0.397 0.123,-0.597 1.903,-8.664 2.018,-8.721 8.978,-4.481 6.633,4.042 14.818,-3.201 14.818,-24.092 -3.232,3.469 -9.78,11.578 -14.224,9.872 -7.193,-2.76 -9.407,2.154 -7.328,-15.542 3.543,-30.148 -10.68,-8.258 -1.089,-37.475 16.214,-49.391 -1.306,-25.672 -0.944,-128.58 0.172,-48.911 -2.882,-72.752 37.176,-152.89 6.024,-12.051 -15.28,-22.619 -24.616,16.157 -4.436,18.426 -18.57,-17.53 -14.937,-32.972 2.023,-8.598 11.241,-25.491 13.91,-25.491 5.128,0 1.059,-9.259 -6.048,-13.764 -10.663,-6.758 -13.783,-18.847 -8.111,-31.426 8.52,-18.893 20.882,-10.812 11.377,-20.937 -22.605,-24.081 -10.362,-64.002 -2.988,-64.002 4.644,0 12.71,38.727 25.933,22.398 11.908,-14.706 -14.657,-31.542 -19.221,-56.498 -2.763,-15.11 -9.017,-17.044 -13.167,-37.834 z M 799.997,159.01 c 4.247,-2.096 9.254,-3.849 15.088,-5.108 4.473,-0.966 8.131,-2.511 8.13,-3.434 -0.004,-2.101 -12.39,-7.194 -23.218,-10.328 -10.828,3.133 -23.214,8.227 -23.218,10.328 -0.002,0.923 3.656,2.468 8.13,3.434 5.834,1.259 10.841,3.012 15.088,5.108 z M 159.007,800 c -2.096,-4.247 -3.849,-9.254 -5.108,-15.088 -0.966,-4.473 -2.511,-8.131 -3.434,-8.13 -2.101,0.004 -7.194,12.39 -10.328,23.218 3.133,10.828 8.227,23.214 10.328,23.218 0.923,0.002 2.468,-3.656 3.434,-8.13 1.259,-5.834 3.012,-10.841 5.108,-15.088 z m 640.99,640.99 c -4.247,2.096 -9.254,3.849 -15.088,5.108 -4.473,0.966 -8.131,2.511 -8.13,3.434 0.004,2.101 12.39,7.194 23.218,10.328 10.828,-3.133 23.214,-8.227 23.218,-10.328 0.002,-0.923 -3.656,-2.468 -8.13,-3.434 -5.834,-1.259 -10.841,-3.012 -15.088,-5.108 z M 1440.987,800 c 2.096,4.247 3.849,9.254 5.108,15.088 0.966,4.473 2.511,8.131 3.434,8.13 2.101,-0.004 7.194,-12.39 10.328,-23.218 -3.133,-10.828 -8.227,-23.214 -10.328,-23.218 -0.923,-0.002 -2.468,3.656 -3.434,8.13 -1.259,5.834 -3.012,10.841 -5.108,15.088 z M 799.997,0 c 5.121,2.434 10.09,5.643 14.061,9.415 21.468,20.392 18.537,54.253 2.447,73.882 -3.189,3.891 -5.799,9.803 -5.799,13.138 0,13.061 11.884,-2.63 52.552,15.829 0,-25.409 1.344,-43.466 -10.727,-52.761 -7.108,-5.473 -4.696,-7.508 10.65,-8.982 13.641,-1.311 13.294,-3.466 44.584,35.585 17.195,-62.893 15.567,-36.169 41.664,-21.238 19.853,11.359 23.385,23.032 30.204,6.713 7.115,-17.029 29.335,-29.973 43.651,-25.43 9.365,2.973 25.601,22.223 5.763,19.592 -28.004,-3.713 -23.531,39.257 -7.201,39.258 12.851,0 22.205,33.997 23.285,6.021 0.244,-6.323 1.013,-12.066 1.709,-12.762 10.156,-10.156 51.556,41.142 36.992,12.371 -7.614,-15.041 -8.53,-23.841 -4.076,-39.161 12.762,-43.899 19.458,31.004 79.254,11.269 8.921,-2.944 18.051,-11.028 19.048,-16.231 29.191,5.155 97.491,3.891 100.16,3.944 21.641,7.876 53.362,40.231 86.339,0.514 23.427,-28.216 28.161,25.284 21.183,36.457 -4.26,6.821 0.489,9.193 2.544,5.928 0.957,-1.521 7.159,-5.305 13.781,-8.408 14.023,-6.572 16.501,-5.265 18.517,9.765 3.545,26.431 13.654,-7.204 22.968,-7.204 13.795,0 13.276,-41.61 -16.023,-36.114 -7.588,1.423 -8.724,0.988 -8.724,-3.34 0,-14.337 26.158,-13.937 35.869,-10.732 9.401,3.103 24.19,17.774 24.19,23.998 0,5.465 2.448,4.726 26.187,-7.902 14.962,-7.959 22.626,-13.62 24.563,-18.143 4.023,-9.394 3.988,-9.383 8.741,-2.679 1.327,1.872 2.481,3.732 3.484,5.568 1.836,1.004 3.696,2.157 5.568,3.484 6.704,4.754 6.715,4.718 -2.679,8.741 -4.523,1.937 -10.184,9.601 -18.143,24.563 -12.629,23.739 -13.367,26.187 -7.902,26.187 6.224,0 20.895,14.789 23.998,24.19 3.205,9.711 3.605,35.869 -10.732,35.869 -4.329,0 -4.764,-1.136 -3.34,-8.724 5.496,-29.299 -36.114,-29.817 -36.114,-16.023 0,9.314 -33.635,19.423 -7.204,22.968 15.03,2.016 16.336,4.494 9.765,18.517 -3.103,6.622 -6.887,12.823 -8.408,13.78 -3.265,2.055 -0.893,6.803 5.928,2.544 11.173,-6.978 64.672,-2.244 36.457,21.183 -39.717,32.977 -7.362,64.698 0.514,86.339 0.053,2.672 -1.211,70.972 3.944,100.16 -5.203,0.997 -13.286,10.126 -16.231,19.048 -19.734,59.795 55.168,66.492 11.269,79.254 -15.321,4.454 -24.12,3.538 -39.161,-4.076 -28.771,-14.565 22.527,26.836 12.371,36.991 -0.696,0.696 -6.439,1.465 -12.762,1.709 -27.976,1.08 6.021,10.434 6.021,23.285 0,16.33 42.971,20.803 39.258,-7.201 -2.631,-19.838 16.62,-3.602 19.592,5.763 4.544,14.316 -8.401,36.535 -25.43,43.651 -16.319,6.819 -4.646,10.351 6.713,30.204 14.931,26.097 41.655,24.468 -21.238,41.664 39.051,31.29 36.896,30.943 35.585,44.584 -1.474,15.345 -3.509,17.757 -8.982,10.65 -9.295,-12.07 -27.353,-10.727 -52.761,-10.727 18.459,40.668 2.768,52.552 15.829,52.552 3.335,0 9.247,-2.61 13.138,-5.799 19.629,-16.09 53.49,-19.021 73.882,2.447 3.772,3.971 6.981,8.94 9.415,14.061 -2.434,5.121 -5.643,10.09 -9.415,14.061 -20.392,21.468 -54.253,18.537 -73.882,2.447 -3.891,-3.189 -9.803,-5.799 -13.138,-5.799 -13.061,0 2.63,11.884 -15.829,52.552 25.409,0 43.466,1.344 52.761,-10.727 5.474,-7.108 7.508,-4.696 8.982,10.65 1.311,13.641 3.466,13.294 -35.585,44.584 62.893,17.195 36.169,15.567 21.238,41.664 -11.359,19.853 -23.032,23.385 -6.713,30.204 17.029,7.115 29.973,29.335 25.43,43.651 -2.973,9.365 -22.223,25.601 -19.592,5.763 3.714,-28.004 -39.258,-23.531 -39.258,-7.201 0,12.851 -33.997,22.205 -6.021,23.285 6.323,0.244 12.066,1.013 12.762,1.709 10.156,10.156 -41.142,51.556 -12.371,36.992 15.041,-7.614 23.841,-8.53 39.161,-4.076 43.899,12.762 -31.004,19.458 -11.269,79.254 2.944,8.921 11.028,18.051 16.231,19.048 -5.155,29.191 -3.891,97.491 -3.944,100.16 -7.876,21.641 -40.231,53.362 -0.514,86.339 28.216,23.427 -25.284,28.161 -36.457,21.183 -6.821,-4.26 -9.193,0.489 -5.928,2.544 1.521,0.957 5.305,7.159 8.408,13.781 6.572,14.023 5.265,16.501 -9.765,18.517 -26.431,3.545 7.204,13.654 7.204,22.968 0,13.795 41.61,13.276 36.114,-16.023 -1.423,-7.588 -0.989,-8.724 3.34,-8.724 14.337,0 13.937,26.158 10.732,35.869 -3.103,9.401 -17.774,24.19 -23.998,24.19 -5.465,0 -4.726,2.448 7.902,26.187 7.959,14.962 13.62,22.626 18.143,24.563 9.394,4.023 9.383,3.988 2.679,8.741 -1.872,1.327 -3.732,2.481 -5.568,3.484 -1.004,1.836 -2.157,3.696 -3.484,5.568 -4.754,6.704 -4.718,6.715 -8.741,-2.679 -1.937,-4.523 -9.601,-10.184 -24.563,-18.143 -23.739,-12.629 -26.187,-13.367 -26.187,-7.902 0,6.224 -14.789,20.895 -24.19,23.998 -9.711,3.205 -35.869,3.605 -35.869,-10.732 0,-4.329 1.136,-4.764 8.724,-3.34 29.299,5.496 29.817,-36.114 16.023,-36.114 -9.314,0 -19.423,-33.635 -22.968,-7.204 -2.016,15.03 -4.494,16.336 -18.517,9.765 -6.622,-3.103 -12.823,-6.887 -13.781,-8.408 -2.055,-3.265 -6.803,-0.893 -2.544,5.928 6.978,11.173 2.244,64.672 -21.183,36.457 -32.977,-39.717 -64.698,-7.362 -86.339,0.514 -2.672,0.053 -70.972,-1.211 -100.16,3.944 -0.997,-5.203 -10.126,-13.286 -19.048,-16.231 -59.795,-19.734 -66.492,55.168 -79.254,11.269 -4.454,-15.321 -3.538,-24.12 4.076,-39.161 14.565,-28.771 -26.836,22.527 -36.992,12.371 -0.696,-0.696 -1.465,-6.439 -1.709,-12.762 -1.08,-27.976 -10.434,6.021 -23.285,6.021 -16.33,0 -20.803,42.971 7.201,39.258 19.838,-2.631 3.602,16.62 -5.763,19.592 -14.316,4.544 -36.535,-8.401 -43.651,-25.43 -6.819,-16.319 -10.351,-4.646 -30.204,6.713 -26.097,14.931 -24.468,41.655 -41.664,-21.238 -31.29,39.051 -30.943,36.896 -44.584,35.585 -15.345,-1.474 -17.757,-3.509 -10.65,-8.982 12.07,-9.295 10.727,-27.353 10.727,-52.761 -40.668,18.459 -52.552,2.768 -52.552,15.829 0,3.335 2.61,9.247 5.799,13.138 16.09,19.629 19.021,53.49 -2.447,73.882 -3.971,3.772 -8.94,6.981 -14.061,9.415 -5.121,-2.434 -10.09,-5.643 -14.061,-9.415 -21.468,-20.392 -18.537,-54.253 -2.447,-73.882 3.189,-3.891 5.799,-9.803 5.799,-13.138 0,-13.061 -11.884,2.63 -52.552,-15.829 0,25.409 -1.344,43.466 10.727,52.761 7.108,5.474 4.696,7.508 -10.65,8.982 -13.641,1.311 -13.294,3.466 -44.584,-35.585 -17.195,62.893 -15.567,36.169 -41.664,21.238 -19.853,-11.359 -23.385,-23.032 -30.204,-6.713 -7.115,17.029 -29.335,29.973 -43.651,25.43 -9.365,-2.973 -25.601,-22.223 -5.763,-19.592 28.004,3.714 23.531,-39.258 7.201,-39.258 -12.851,0 -22.205,-33.997 -23.285,-6.021 -0.244,6.323 -1.013,12.066 -1.709,12.762 -10.156,10.156 -51.556,-41.142 -36.991,-12.371 7.614,15.041 8.53,23.841 4.076,39.161 -12.762,43.899 -19.458,-31.004 -79.254,-11.269 -8.921,2.944 -18.051,11.028 -19.048,16.231 -29.191,-5.155 -97.491,-3.891 -100.16,-3.944 -21.641,-7.876 -53.362,-40.231 -86.339,-0.514 -23.427,28.216 -28.161,-25.284 -21.183,-36.457 4.26,-6.821 -0.489,-9.193 -2.544,-5.928 -0.957,1.521 -7.159,5.305 -13.78,8.408 -14.023,6.572 -16.501,5.265 -18.517,-9.765 -3.545,-26.431 -13.654,7.204 -22.968,7.204 -13.795,0 -13.276,41.61 16.023,36.114 7.588,-1.423 8.724,-0.989 8.724,3.34 0,14.337 -26.158,13.937 -35.869,10.732 -9.401,-3.103 -24.19,-17.774 -24.19,-23.998 0,-5.465 -2.448,-4.726 -26.187,7.902 -14.962,7.959 -22.626,13.62 -24.563,18.143 -4.023,9.394 -3.988,9.383 -8.741,2.679 -1.327,-1.872 -2.481,-3.732 -3.484,-5.568 -1.836,-1.004 -3.696,-2.157 -5.568,-3.484 -6.705,-4.754 -6.715,-4.718 2.679,-8.741 4.523,-1.937 10.184,-9.601 18.143,-24.563 12.629,-23.739 13.367,-26.187 7.902,-26.187 -6.224,0 -20.895,-14.789 -23.998,-24.19 -3.205,-9.711 -3.605,-35.869 10.732,-35.869 4.329,0 4.764,1.136 3.34,8.724 -5.496,29.299 36.114,29.817 36.114,16.023 0,-9.314 33.635,-19.423 7.204,-22.968 -15.029,-2.016 -16.336,-4.494 -9.765,-18.517 3.103,-6.622 6.887,-12.823 8.408,-13.781 3.265,-2.055 0.893,-6.803 -5.928,-2.544 -11.173,6.978 -64.672,2.244 -36.457,-21.183 39.717,-32.977 7.362,-64.698 -0.514,-86.339 -0.053,-2.672 1.211,-70.972 -3.944,-100.16 5.203,-0.997 13.286,-10.126 16.231,-19.048 19.734,-59.795 -55.168,-66.492 -11.269,-79.254 15.321,-4.454 24.12,-3.538 39.161,4.076 28.771,14.565 -22.527,-26.836 -12.371,-36.992 0.696,-0.696 6.439,-1.465 12.762,-1.709 27.976,-1.08 -6.021,-10.434 -6.021,-23.285 0,-16.33 -42.971,-20.803 -39.258,7.201 2.631,19.838 -16.62,3.602 -19.592,-5.763 -4.544,-14.316 8.401,-36.535 25.43,-43.651 16.319,-6.819 4.646,-10.351 -6.713,-30.204 C 49.936,923.333 23.212,924.962 86.105,907.766 47.054,876.476 49.209,876.823 50.52,863.182 c 1.474,-15.345 3.509,-17.757 8.982,-10.65 9.295,12.07 27.353,10.727 52.761,10.727 -18.459,-40.668 -2.768,-52.552 -15.829,-52.552 -3.335,0 -9.247,2.61 -13.138,5.799 -19.629,16.09 -53.49,19.021 -73.882,-2.447 -3.771,-3.972 -6.98,-8.941 -9.414,-14.062 2.434,-5.121 5.643,-10.09 9.415,-14.061 20.392,-21.468 54.253,-18.537 73.882,-2.447 3.891,3.189 9.803,5.799 13.138,5.799 13.061,0 -2.63,-11.884 15.829,-52.552 -25.409,0 -43.466,-1.344 -52.761,10.727 -5.473,7.108 -7.508,4.696 -8.982,-10.65 C 49.21,723.172 47.055,723.519 86.106,692.229 23.213,675.034 49.937,676.662 64.868,650.565 76.227,630.712 87.9,627.18 71.581,620.361 54.552,613.246 41.608,591.026 46.151,576.71 c 2.973,-9.365 22.223,-25.601 19.592,-5.763 -3.713,28.004 39.257,23.531 39.258,7.201 0,-12.851 33.997,-22.205 6.021,-23.285 -6.323,-0.244 -12.066,-1.013 -12.762,-1.709 -10.156,-10.156 41.142,-51.556 12.371,-36.991 -15.041,7.614 -23.841,8.53 -39.161,4.076 -43.899,-12.762 31.004,-19.458 11.269,-79.254 -2.944,-8.921 -11.028,-18.051 -16.231,-19.048 5.155,-29.191 3.891,-97.491 3.944,-100.16 7.876,-21.641 40.231,-53.362 0.514,-86.339 -28.216,-23.427 25.284,-28.161 36.457,-21.183 6.821,4.26 9.193,-0.489 5.928,-2.544 -1.521,-0.957 -5.305,-7.159 -8.408,-13.78 -6.572,-14.023 -5.265,-16.501 9.765,-18.517 26.431,-3.545 -7.204,-13.654 -7.204,-22.968 0,-13.795 -41.61,-13.276 -36.114,16.023 1.423,7.588 0.988,8.724 -3.34,8.724 -14.337,0 -13.937,-26.158 -10.732,-35.869 3.103,-9.401 17.774,-24.19 23.998,-24.19 5.465,0 4.726,-2.448 -7.902,-26.187 -7.959,-14.962 -13.62,-22.626 -18.143,-24.563 -9.394,-4.023 -9.383,-3.988 -2.679,-8.741 1.872,-1.327 3.732,-2.481 5.568,-3.484 1.004,-1.836 2.157,-3.696 3.484,-5.568 4.754,-6.705 4.718,-6.715 8.741,2.679 1.937,4.523 9.601,10.184 24.563,18.143 23.739,12.629 26.187,13.367 26.187,7.902 0,-6.224 14.789,-20.895 24.19,-23.998 9.711,-3.205 35.869,-3.605 35.869,10.732 0,4.329 -1.136,4.764 -8.724,3.34 -29.299,-5.496 -29.817,36.114 -16.023,36.114 9.314,0 19.423,33.635 22.968,7.204 2.016,-15.029 4.494,-16.336 18.517,-9.765 6.622,3.103 12.823,6.887 13.78,8.408 2.055,3.265 6.803,0.893 2.544,-5.928 -6.978,-11.173 -2.244,-64.672 21.183,-36.457 32.977,39.717 64.698,7.362 86.339,-0.514 2.672,-0.053 70.972,1.211 100.16,-3.944 0.997,5.203 10.126,13.286 19.048,16.231 59.795,19.734 66.492,-55.168 79.254,-11.269 4.454,15.321 3.538,24.12 -4.076,39.161 -14.565,28.771 26.836,-22.527 36.991,-12.371 0.696,0.696 1.465,6.439 1.709,12.762 1.08,27.976 10.434,-6.021 23.285,-6.021 16.33,0 20.803,-42.971 -7.201,-39.258 -19.838,2.631 -3.602,-16.62 5.763,-19.592 14.316,-4.544 36.535,8.401 43.651,25.43 6.819,16.319 10.351,4.646 30.204,-6.713 26.097,-14.931 24.468,-41.655 41.664,21.238 31.29,-39.051 30.943,-36.896 44.584,-35.585 15.345,1.474 17.757,3.509 10.65,8.982 -12.07,9.295 -10.727,27.353 -10.727,52.761 40.668,-18.459 52.552,-2.768 52.552,-15.829 0,-3.335 -2.61,-9.247 -5.799,-13.138 -16.09,-19.629 -19.021,-53.49 2.447,-73.882 3.97,-3.771 8.939,-6.98 14.06,-9.414 z m 695.28,104.72 c -1.247,-3.392 -2.641,-6.44 1.234,-2.845 0.278,0.258 0.574,0.502 0.881,0.73 0.228,0.308 0.472,0.603 0.73,0.881 3.595,3.875 0.547,2.481 -2.845,1.234 z m -1390.6,0 c -3.392,1.247 -6.44,2.641 -2.845,-1.234 0.258,-0.278 0.502,-0.574 0.73,-0.881 0.308,-0.228 0.603,-0.472 0.881,-0.73 3.875,-3.595 2.481,-0.547 1.234,2.845 z m 0,1390.6 c 1.247,3.392 2.641,6.44 -1.234,2.845 -0.278,-0.258 -0.574,-0.502 -0.881,-0.73 -0.228,-0.307 -0.472,-0.603 -0.73,-0.881 -3.595,-3.875 -0.547,-2.481 2.845,-1.234 z m 1390.6,0 c 3.392,-1.247 6.44,-2.641 2.845,1.234 -0.258,0.278 -0.502,0.574 -0.73,0.881 -0.307,0.228 -0.603,0.472 -0.881,0.73 -3.875,3.595 -2.481,0.547 -1.234,-2.845 z m 6.588,-1397.2 c -0.526,-0.422 -1.106,-0.865 -1.744,-1.329 -5.881,-4.278 -6.291,-4.265 -10.898,0.341 -4.715,4.715 -4.688,4.886 1.753,11.328 0.092,0.092 0.184,0.183 0.275,0.273 0.09,0.091 0.181,0.183 0.273,0.275 6.441,6.441 6.613,6.468 11.328,1.753 4.607,-4.607 4.62,-5.017 0.341,-10.898 -0.464,-0.637 -0.907,-1.217 -1.328,-1.743 z m -1403.7,0 c -0.422,0.526 -0.865,1.106 -1.329,1.744 -4.278,5.881 -4.265,6.291 0.341,10.898 4.715,4.715 4.886,4.688 11.328,-1.753 0.092,-0.092 0.183,-0.184 0.273,-0.275 0.091,-0.09 0.183,-0.181 0.275,-0.273 6.441,-6.441 6.468,-6.613 1.753,-11.328 -4.607,-4.607 -5.017,-4.62 -10.898,-0.341 -0.637,0.464 -1.217,0.907 -1.743,1.328 z m 0,1403.7 c 0.526,0.422 1.106,0.865 1.744,1.329 5.881,4.278 6.291,4.265 10.898,-0.341 4.715,-4.715 4.688,-4.886 -1.753,-11.328 -0.092,-0.092 -0.184,-0.183 -0.275,-0.273 -0.09,-0.091 -0.181,-0.183 -0.273,-0.275 -6.441,-6.441 -6.613,-6.468 -11.328,-1.753 -4.607,4.607 -4.62,5.017 -0.341,10.898 0.464,0.637 0.907,1.217 1.328,1.743 z m 1403.7,0 c 0.422,-0.526 0.865,-1.106 1.329,-1.744 4.278,-5.881 4.265,-6.291 -0.341,-10.898 -4.715,-4.715 -4.886,-4.688 -11.328,1.753 -0.092,0.092 -0.183,0.184 -0.273,0.275 -0.091,0.09 -0.183,0.181 -0.275,0.273 -6.441,6.441 -6.468,6.613 -1.753,11.328 4.607,4.607 5.017,4.62 10.898,0.341 0.637,-0.464 1.217,-0.907 1.743,-1.328 z M 799.995,59.12 c 3.335,3.678 5.704,7.364 5.704,9.124 0,5.157 5.005,6.719 5.005,-2.322 0,-13.948 9.515,5.791 6.161,-14.058 -3.733,-22.098 8.284,6.738 4.803,-12.27 -3.05,-16.656 -12.351,-26.213 -21.673,-31.374 -9.322,5.161 -18.623,14.718 -21.673,31.374 -3.481,19.008 8.536,-9.828 4.803,12.27 -3.354,19.849 6.161,0.111 6.161,14.058 0,9.041 5.005,7.479 5.005,2.322 0,-1.76 2.369,-5.446 5.704,-9.124 z M 59.135,799.98 c 3.678,-3.335 7.364,-5.704 9.124,-5.704 5.157,0 6.719,-5.005 -2.322,-5.005 -13.948,0 5.791,-9.515 -14.058,-6.161 -22.098,3.733 6.738,-8.284 -12.27,-4.803 -16.656,3.05 -26.213,12.351 -31.374,21.673 5.161,9.322 14.718,18.623 31.374,21.673 19.008,3.481 -9.828,-8.536 12.27,-4.803 19.849,3.354 0.111,-6.161 14.058,-6.161 9.041,0 7.479,-5.005 2.322,-5.005 -1.76,0 -5.446,-2.369 -9.124,-5.704 z m 740.86,740.86 c -3.335,-3.678 -5.704,-7.364 -5.704,-9.124 0,-5.157 -5.005,-6.719 -5.005,2.322 0,13.948 -9.515,-5.791 -6.161,14.058 3.733,22.099 -8.284,-6.738 -4.803,12.27 3.05,16.656 12.351,26.213 21.673,31.374 9.322,-5.161 18.623,-14.718 21.673,-31.374 3.481,-19.008 -8.536,9.828 -4.803,-12.27 3.354,-19.849 -6.161,-0.111 -6.161,-14.058 0,-9.041 -5.005,-7.479 -5.005,-2.322 0,1.76 -2.369,5.446 -5.704,9.124 z m 740.86,-740.86 c -3.678,3.335 -7.364,5.704 -9.124,5.704 -5.157,0 -6.719,5.005 2.322,5.005 13.948,0 -5.791,9.515 14.058,6.161 22.099,-3.733 -6.738,8.284 12.27,4.803 16.656,-3.05 26.213,-12.351 31.374,-21.673 -5.161,-9.322 -14.718,-18.623 -31.374,-21.673 -19.008,-3.481 9.828,8.536 -12.27,4.803 -19.849,-3.354 -0.111,6.161 -14.058,6.161 -9.041,0 -7.479,5.005 -2.322,5.005 1.76,0 5.446,2.369 9.124,5.704 z M 799.995,16.74 c 1.602,1.499 2.566,2.926 2.817,4.232 0.831,4.337 0.673,4.55 -2.817,1.085 -3.489,3.465 -3.647,3.252 -2.817,-1.085 0.251,-1.306 1.215,-2.733 2.817,-4.232 z M 16.755,799.98 c 1.499,-1.602 2.926,-2.566 4.232,-2.817 4.337,-0.831 4.55,-0.673 1.085,2.817 3.465,3.489 3.252,3.647 -1.085,2.817 -1.306,-0.251 -2.733,-1.215 -4.232,-2.817 z m 783.24,783.24 c -1.602,-1.499 -2.566,-2.926 -2.817,-4.232 -0.831,-4.337 -0.673,-4.55 2.817,-1.085 3.489,-3.465 3.647,-3.252 2.817,1.085 -0.251,1.306 -1.215,2.733 -2.817,4.232 z m 783.24,-783.24 c -1.499,1.602 -2.926,2.566 -4.232,2.817 -4.337,0.831 -4.55,0.673 -1.085,-2.817 -3.465,-3.489 -3.252,-3.647 1.085,-2.817 1.306,0.251 2.733,1.215 4.232,2.817 z"
     id="path2"
     style="fill:#929292;fill-opacity:1"
     inkscape:connector-curvature="0" /></svg>