<?xml version="1.0" encoding="UTF-8" standalone="no"?>
<!-- Created with Inkscape (http://www.inkscape.org/) -->

<svg
   xmlns:dc="http://purl.org/dc/elements/1.1/"
   xmlns:cc="http://creativecommons.org/ns#"
   xmlns:rdf="http://www.w3.org/1999/02/22-rdf-syntax-ns#"
   xmlns:svg="http://www.w3.org/2000/svg"
   xmlns="http://www.w3.org/2000/svg"
   xmlns:sodipodi="http://sodipodi.sourceforge.net/DTD/sodipodi-0.dtd"
   xmlns:inkscape="http://www.inkscape.org/namespaces/inkscape"
   width="50.746071mm"
   height="6.7226944mm"
   viewBox="0 0 50.746071 6.7226945"
   version="1.1"
   id="svg12747"
   inkscape:version="0.92.1 r15371"
   sodipodi:docname="drawing2.svg">
  <defs
     id="defs12741" />
  <sodipodi:namedview
     id="base"
     pagecolor="#ffffff"
     bordercolor="#666666"
     borderopacity="1.0"
     inkscape:pageopacity="0.0"
     inkscape:pageshadow="2"
     inkscape:zoom="0.98994949"
     inkscape:cx="-7.3462985"
     inkscape:cy="82.331849"
     inkscape:document-units="mm"
     inkscape:current-layer="layer1"
     showgrid="false"
     fit-margin-top="0"
     fit-margin-left="0"
     fit-margin-right="0"
     fit-margin-bottom="0"
     inkscape:window-width="1920"
     inkscape:window-height="1026"
     inkscape:window-x="0"
     inkscape:window-y="31"
     inkscape:window-maximized="1" />
  <metadata
     id="metadata12744">
    <rdf:RDF>
      <cc:Work
         rdf:about="">
        <dc:format>image/svg+xml</dc:format>
        <dc:type
           rdf:resource="http://purl.org/dc/dcmitype/StillImage" />
        <dc:title></dc:title>
      </cc:Work>
    </rdf:RDF>
  </metadata>
  <g
     inkscape:label="Layer 1"
     inkscape:groupmode="layer"
     id="layer1"
     transform="translate(-180.42407,-138.74144)">
    <path
       inkscape:connector-curvature="0"
       id="path2228"
       style="fill:#c6c6c6;fill-opacity:1;fill-rule:evenodd;stroke:none;stroke-width:0.03527778"
       d="m 188.01914,143.94244 c -1.73002,0.94791 -3.29001,1.31798 -4.73216,0.56762 0.81315,1.75754 3.23038,0.69603 4.33916,-0.0882 0.39723,-0.28046 0.81668,-0.59126 1.21285,-0.81915 0.92604,-0.53199 1.77095,-0.83256 2.87937,-0.69674 -1.65135,-0.22154 -2.54952,0.40605 -3.69922,1.03647 z m -0.0289,-0.88829 c 2.19992,-1.21038 4.17724,-0.59479 5.31142,0.10901 -2.00272,-1.48273 -3.72957,-0.93734 -5.78697,-0.0289 -1.50212,0.66286 -3.13584,1.00576 -4.81083,0.75917 -0.73131,-0.10759 -1.60267,-0.48083 -2.14312,-1.20614 -0.50871,0.6604 0.49036,1.42381 1.55222,1.57127 1.03893,0.14252 3.33163,0.0688 5.87728,-1.20439 v 0" />
    <path
       inkscape:connector-curvature="0"
       id="path2230"
       style="fill:#c6c6c6;fill-opacity:1;fill-rule:evenodd;stroke:none;stroke-width:0.03527778"
       d="m 195.27613,141.1682 c 2.30434,-0.5842 5.01862,-0.52176 7.25099,0.3302 -1.74201,-0.78035 -3.84704,-0.99907 -5.73193,-0.78634 -2.8515,0.32208 -7.29897,1.73425 -9.95574,-0.0956 l 0.58102,0.0215 c 1.63619,0.80398 3.38032,0.77611 5.41373,0.54892 1.83868,-0.20461 3.66148,-0.60643 5.51886,-0.647 2.73367,-0.0589 5.27861,0.83609 7.29932,2.73262 -1.02729,-0.81562 -2.65042,-1.59702 -4.34693,-2.00272 -2.02353,-0.48401 -4.18535,-0.48648 -6.02932,-0.1016 v 0" />
    <path
       inkscape:connector-curvature="0"
       id="path2232"
       style="fill:#c6c6c6;fill-opacity:1;fill-rule:evenodd;stroke:none;stroke-width:0.03527778"
       d="m 204.58593,144.68433 c -0.65863,0 -1.28375,-0.54151 -1.70532,-0.92745 0.0198,1.03364 -0.63712,1.65982 -1.63054,1.64006 -0.4064,-0.008 -1.02588,-0.31714 -1.03611,-0.68015 -0.005,-0.16934 0.066,-0.22684 0.22684,-0.22684 0.49812,0 0.5461,0.70979 1.02235,0.70979 0.81668,0 1.36278,-0.70838 1.30069,-1.5434 -1.03646,-1.22978 -3.20852,-1.8288 -5.01862,-1.12042 -0.55598,0.21766 -0.93486,0.88194 -1.45803,1.01353 -0.21308,0.054 -0.26917,-0.12453 -0.1845,-0.2727 0.10618,-0.18344 0.70449,-0.50271 1.17616,-0.6537 2.11808,-0.66569 3.73274,-0.70167 5.47723,0.94792 -0.18768,-1.54905 -2.44158,-1.85138 -3.66431,-1.68699 -1.9311,0.25929 -3.79095,0.895 -5.73193,1.29011 -2.17346,0.44168 -4.95229,0.15028 -6.90668,-0.85055 0.57256,0.0444 1.07738,0.10407 1.47143,0.23143 -0.52987,-0.24166 -1.98367,-0.84491 -2.31316,-1.2633 2.57387,1.38324 4.28237,2.1269 6.79838,1.77976 2.49872,-0.34431 9.59097,-3.84845 12.62909,-0.13617 -0.49742,-0.56409 -1.9752,-1.28905 -2.85926,-1.11619 1.47108,0.38912 2.56504,1.19027 3.15101,1.89371 -0.9137,-0.889 -2.11102,-1.57974 -3.6569,-1.70815 0.48401,0.22402 1.10808,0.82868 1.20403,1.65876 0.2533,0.22261 0.895,0.82868 1.43934,0.83503 0.22683,0 0.49741,-0.0656 0.65793,-0.2032 0.17568,-0.1517 0.23777,-0.37853 0.42016,-0.38806 0.19579,-0.0102 0.32843,0.10196 0.29174,0.25894 -0.0455,0.16969 -0.16615,0.26388 -0.29069,0.33302 -0.25505,0.1397 -0.54116,0.19015 -0.81033,0.18521 v 0" />
    <path
       inkscape:connector-curvature="0"
       id="path2234"
       style="fill:#c6c6c6;fill-opacity:1;fill-rule:evenodd;stroke:none;stroke-width:0.03527778"
       d="m 223.57526,143.94244 c -1.14971,-0.63041 -2.04823,-1.258 -3.69923,-1.03646 1.10843,-0.13582 1.95333,0.16475 2.87902,0.69674 0.39652,0.22789 0.81597,0.53869 1.2132,0.81915 1.10878,0.78422 3.52531,1.84573 4.33917,0.0882 -1.44251,0.75035 -3.00285,0.38029 -4.73216,-0.56762 z m 0.0289,-0.88829 c 2.54529,1.27317 4.838,1.3469 5.87693,1.20438 1.06221,-0.14746 2.06128,-0.91087 1.55222,-1.57127 -0.54081,0.72531 -1.41146,1.09855 -2.14312,1.20615 -1.67499,0.24659 -3.30871,-0.0963 -4.81048,-0.75918 -2.0574,-0.90841 -3.78425,-1.4538 -5.78732,0.0289 1.13453,-0.70379 3.11185,-1.31939 5.31177,-0.10901 v 0" />
    <path
       inkscape:connector-curvature="0"
       id="path2236"
       style="fill:#c6c6c6;fill-opacity:1;fill-rule:evenodd;stroke:none;stroke-width:0.03527778"
       d="m 216.31826,141.1682 c -2.3054,-0.5842 -5.01861,-0.52176 -7.25099,0.3302 1.74167,-0.78035 3.84739,-0.99907 5.73193,-0.78634 2.85115,0.32208 7.29862,1.73425 9.95575,-0.0956 l -0.58103,0.0215 c -1.63654,0.80398 -3.38067,0.77611 -5.41443,0.54892 -1.83798,-0.20461 -3.66113,-0.60643 -5.51815,-0.647 -2.73368,-0.0589 -5.27897,0.83609 -7.29933,2.73262 1.02729,-0.81562 2.65042,-1.59702 4.34693,-2.00272 2.02353,-0.48401 4.185,-0.48648 6.02932,-0.1016 v 0" />
    <path
       inkscape:connector-curvature="0"
       id="path2238"
       style="fill:#c6c6c6;fill-opacity:1;fill-rule:evenodd;stroke:none;stroke-width:0.03527778"
       d="m 207.00846,144.68433 c 0.65864,0 1.28376,-0.54151 1.70533,-0.92745 -0.0201,1.03364 0.63676,1.65982 1.63018,1.64006 0.40605,-0.008 1.02553,-0.31714 1.03647,-0.68015 0.005,-0.16934 -0.0663,-0.22684 -0.22684,-0.22684 -0.49812,0 -0.54645,0.70979 -1.0227,0.70979 -0.81669,0 -1.36279,-0.70838 -1.3007,-1.5434 1.03646,-1.22978 3.20887,-1.8288 5.01862,-1.12042 0.55633,0.21766 0.93522,0.88194 1.45803,1.01353 0.21308,0.054 0.26952,-0.12453 0.18486,-0.2727 -0.10619,-0.18344 -0.70485,-0.50271 -1.17616,-0.6537 -2.11773,-0.66569 -3.7331,-0.70167 -5.47794,0.94792 0.18839,-1.54905 2.44193,-1.85138 3.66501,-1.68699 1.93075,0.25929 3.7906,0.895 5.73123,1.29011 2.17381,0.44168 4.95265,0.15028 6.90703,-0.85055 -0.57256,0.0444 -1.07738,0.10407 -1.47143,0.23143 0.52916,-0.24166 1.98402,-0.84491 2.31316,-1.2633 -2.57386,1.38324 -4.28237,2.1269 -6.79838,1.77976 -2.49837,-0.34431 -9.59062,-3.84845 -12.62874,-0.13617 0.49742,-0.56409 1.97485,-1.28905 2.85856,-1.11619 -1.47108,0.38912 -2.56469,1.19027 -3.1503,1.89371 0.91299,-0.889 2.11102,-1.57974 3.65654,-1.70815 -0.48366,0.22402 -1.10843,0.82868 -1.20368,1.65876 -0.2533,0.22261 -0.89535,0.82868 -1.43933,0.83503 -0.22719,0 -0.49777,-0.0656 -0.65829,-0.2032 -0.17603,-0.1517 -0.23742,-0.37853 -0.4198,-0.38806 -0.19579,-0.0102 -0.32844,0.10196 -0.29175,0.25894 0.0455,0.16969 0.16616,0.26388 0.29069,0.33302 0.25506,0.1397 0.54045,0.19015 0.81033,0.18521 v 0" />
    <path
       inkscape:connector-curvature="0"
       id="path2240"
       style="fill:#c6c6c6;fill-opacity:1;fill-rule:evenodd;stroke:none;stroke-width:0.03527778"
       d="m 205.29608,139.82941 c -0.47943,-0.24166 -0.78211,-0.54893 -0.65441,-1.08797 0.17957,0.0794 0.30163,0.25365 0.34361,0.63147 0.0201,0.18803 0.13511,0.33867 0.3108,0.4565 v 0" />
    <path
       inkscape:connector-curvature="0"
       id="path2242"
       style="fill:#c6c6c6;fill-opacity:1;fill-rule:evenodd;stroke:none;stroke-width:0.03527778"
       d="m 205.77409,144.62154 c 0.80363,-1.12783 1.04175,-4.33987 -0.7426,-4.78296 -0.48613,-0.12065 -0.9144,0.0716 -1.21955,0.48189 -0.23319,0.31468 -0.31891,0.69286 -0.14323,1.1042 0.0967,0.22542 0.25753,0.40992 0.50236,0.53587 0.0861,0.0402 0.0875,-0.0459 0.0286,-0.0808 -0.0363,-0.031 -0.005,-0.0515 0.0339,-0.0494 0.025,0.003 0.12488,-0.002 0.10583,-0.0501 -0.43533,-0.17569 -0.629,-0.46391 -0.63888,-0.81774 -0.0123,-0.42475 0.15558,-0.72285 0.49953,-0.83432 0.0885,-0.0289 0.19086,-0.0145 0.30304,0.0233 0.19438,0.0653 0.38029,0.0621 0.56444,0.0378 0.15417,-0.0208 0.30869,0.013 0.45262,0.0917 1.2319,0.67239 0.8315,3.40571 0.254,4.34057 v 0" />
    <path
       inkscape:connector-curvature="0"
       id="path2244"
       style="fill:#c6c6c6;fill-opacity:1;fill-rule:evenodd;stroke:none;stroke-width:0.03527778"
       d="m 205.90603,144.38412 c 0.30303,-0.82127 0.28716,-1.62631 -0.067,-2.32198 -0.012,-0.0928 0.0917,-0.11113 0.1464,-0.0275 0.25047,0.58173 0.28787,1.27388 -0.0145,2.20944 l -0.0649,0.14006 v 0" />
    <path
       inkscape:connector-curvature="0"
       id="path2246"
       style="fill:#c6c6c6;fill-opacity:1;fill-rule:evenodd;stroke:none;stroke-width:0.03527778"
       d="m 205.88839,141.82719 c 0.0116,-0.054 -0.0222,-0.10654 -0.0758,-0.11854 -0.0533,-0.012 -0.10619,0.0219 -0.11818,0.0755 -0.012,0.054 0.0219,0.10689 0.0755,0.11854 0.054,0.012 0.10654,-0.0219 0.11853,-0.0755 v 0" />
    <path
       inkscape:connector-curvature="0"
       id="path2248"
       style="fill:#c6c6c6;fill-opacity:1;fill-rule:evenodd;stroke:none;stroke-width:0.03527778"
       d="m 206.19742,141.66032 c -0.0395,-0.26282 -0.16757,-0.64276 -0.37817,-0.86078 -0.56198,-0.57961 -1.2573,0.28258 -0.75283,0.62266 0.14499,0.0864 0.29245,0.0755 0.39229,-0.0123 0.22472,-0.27129 -0.15699,-0.47802 -0.0931,-0.1016 0.0148,0.0332 -0.01,0.0875 -0.0395,0.0931 -0.74048,0.0684 -0.27729,-1.18357 0.46072,-0.57609 0.22649,0.18591 0.33479,0.49424 0.41064,0.83503 v 0" />
    <path
       inkscape:connector-curvature="0"
       id="path2250"
       style="fill:#c6c6c6;fill-opacity:1;fill-rule:evenodd;stroke:none;stroke-width:0.03527778"
       d="m 206.23658,139.82941 c 0.47978,-0.24166 0.78211,-0.54893 0.65405,-1.08797 -0.17921,0.0794 -0.30127,0.25365 -0.34325,0.63147 -0.0205,0.18803 -0.13512,0.33867 -0.3108,0.4565 v 0" />
    <path
       inkscape:connector-curvature="0"
       id="path2252"
       style="fill:#c6c6c6;fill-opacity:1;fill-rule:evenodd;stroke:none;stroke-width:0.03527778"
       d="m 205.75892,144.62154 c -0.80363,-1.12783 -1.04211,-4.33987 0.74224,-4.78296 0.48649,-0.12065 0.91476,0.0716 1.21956,0.48189 0.23318,0.31468 0.31926,0.69286 0.14323,1.1042 -0.0967,0.22542 -0.25753,0.40992 -0.50271,0.53587 -0.0857,0.0402 -0.0875,-0.0459 -0.0282,-0.0808 0.0363,-0.031 0.005,-0.0515 -0.0339,-0.0494 -0.0247,0.003 -0.12453,-0.002 -0.10548,-0.0501 0.43497,-0.17569 0.62865,-0.46391 0.63852,-0.81774 0.012,-0.42475 -0.15557,-0.72285 -0.49953,-0.83432 -0.0885,-0.0289 -0.1905,-0.0145 -0.30303,0.0233 -0.19403,0.0653 -0.3803,0.0621 -0.5641,0.0378 -0.15487,-0.0208 -0.30868,0.013 -0.45296,0.0917 -1.2319,0.67239 -0.8315,3.40571 -0.25365,4.34057 v 0" />
    <path
       inkscape:connector-curvature="0"
       id="path2254"
       style="fill:#c6c6c6;fill-opacity:1;fill-rule:evenodd;stroke:none;stroke-width:0.03527778"
       d="m 205.62698,144.38412 c -0.30303,-0.82127 -0.28751,-1.62631 0.0667,-2.32198 0.0127,-0.0928 -0.0914,-0.11113 -0.1464,-0.0275 -0.25083,0.58173 -0.28752,1.27388 0.0148,2.20944 l 0.0649,0.14006 v 0" />
    <path
       inkscape:connector-curvature="0"
       id="path2256"
       style="fill:#c6c6c6;fill-opacity:1;fill-rule:evenodd;stroke:none;stroke-width:0.03527778"
       d="m 205.64462,141.82719 c -0.012,-0.054 0.0219,-0.10654 0.0755,-0.11854 0.054,-0.012 0.10654,0.0219 0.11889,0.0755 0.012,0.054 -0.0226,0.10689 -0.0759,0.11854 -0.054,0.012 -0.1069,-0.0219 -0.11854,-0.0755 v 0" />
    <path
       inkscape:connector-curvature="0"
       id="path2258"
       style="fill:#c6c6c6;fill-opacity:1;fill-rule:evenodd;stroke:none;stroke-width:0.03527778"
       d="m 205.33523,141.66032 c 0.0395,-0.26282 0.16757,-0.64276 0.37853,-0.86078 0.56233,-0.57961 1.25695,0.28258 0.75248,0.62266 -0.14499,0.0864 -0.2921,0.0755 -0.39264,-0.0123 -0.22402,-0.27129 0.15769,-0.47802 0.0935,-0.1016 -0.0148,0.0332 0.01,0.0875 0.0395,0.0931 0.74083,0.0684 0.27763,-1.18357 -0.46038,-0.57609 -0.22648,0.18591 -0.33549,0.49424 -0.41098,0.83503 v 0" />
  </g>
</svg>
