<?xml version="1.0" encoding="UTF-8" standalone="no"?>
<svg
   xmlns:dc="http://purl.org/dc/elements/1.1/"
   xmlns:cc="http://creativecommons.org/ns#"
   xmlns:rdf="http://www.w3.org/1999/02/22-rdf-syntax-ns#"
   xmlns:svg="http://www.w3.org/2000/svg"
   xmlns="http://www.w3.org/2000/svg"
   xmlns:sodipodi="http://sodipodi.sourceforge.net/DTD/sodipodi-0.dtd"
   xmlns:inkscape="http://www.inkscape.org/namespaces/inkscape"
   enable-background="new 0 0 1653.371 1653.371"
   version="1.1"
   viewBox="0 0 1600.0329 1600.0358"
   id="svg466"
   sodipodi:docname="flourish-2031230.svg"
   width="1600.0328"
   height="1600.0358"
   inkscape:version="0.92.1 r15371">
  <metadata
     id="metadata472">
    <rdf:RDF>
      <cc:Work
         rdf:about="">
        <dc:format>image/svg+xml</dc:format>
        <dc:type
           rdf:resource="http://purl.org/dc/dcmitype/StillImage" />
        <dc:title></dc:title>
      </cc:Work>
    </rdf:RDF>
  </metadata>
  <defs
     id="defs470" />
  <sodipodi:namedview
     pagecolor="#ffffff"
     bordercolor="#666666"
     borderopacity="1"
     objecttolerance="10"
     gridtolerance="10"
     guidetolerance="10"
     inkscape:pageopacity="0"
     inkscape:pageshadow="2"
     inkscape:window-width="1920"
     inkscape:window-height="1026"
     id="namedview468"
     showgrid="false"
     fit-margin-top="0"
     fit-margin-left="0"
     fit-margin-right="0"
     fit-margin-bottom="0"
     inkscape:zoom="0.14273869"
     inkscape:cx="-615.17306"
     inkscape:cy="800.03243"
     inkscape:window-x="0"
     inkscape:window-y="31"
     inkscape:window-maximized="1"
     inkscape:current-layer="svg466" />
  <g
     id="g5181"
     transform="translate(-26.685088,-26.682088)">
    <path
       style="fill:#929292;fill-opacity:1"
       id="path2"
       d="m 741.06,120.51 c 0.826,-3.387 -0.614,-7.689 -3.055,-8.098 -9.361,-0.889 -16.146,22.364 -31.352,38.09 1.102,-2.459 2.426,-4.705 3.837,-6.761 -0.172,-0.287 -0.345,-0.574 -0.517,-0.854 -2.315,6.813 -10.25,13.778 -14.774,17.153 24.576,-14.279 45.279,-34.259 45.861,-39.53 z"
       inkscape:connector-curvature="0" />
    <path
       style="fill:#929292;fill-opacity:1"
       id="path4"
       d="m 1502.9,706.66 c 2.459,1.102 4.705,2.426 6.761,3.837 0.287,-0.172 0.573,-0.345 0.854,-0.517 -6.813,-2.315 -13.778,-10.25 -17.153,-14.774 14.279,24.575 34.26,45.278 39.53,45.861 3.387,0.826 7.689,-0.613 8.098,-3.055 0.889,-9.361 -22.364,-16.147 -38.09,-31.352 z"
       inkscape:connector-curvature="0" />
    <path
       style="fill:#929292;fill-opacity:1"
       id="path6"
       d="m 250.55,1541 c 14.247,0.889 24.576,-22.364 47.719,-38.09 -1.678,2.459 -3.692,4.705 -5.84,6.761 0.262,0.287 0.525,0.573 0.787,0.854 3.524,-6.813 15.601,-13.778 22.487,-17.153 -37.406,14.279 -68.916,34.26 -69.803,39.53 -1.257,3.387 0.933,7.689 4.65,8.098 z"
       inkscape:connector-curvature="0" />
    <path
       style="fill:#929292;fill-opacity:1"
       id="path8"
       d="m 150.5,298.27 c -2.459,-1.678 -4.705,-3.692 -6.761,-5.84 -0.287,0.262 -0.574,0.525 -0.854,0.787 6.813,3.524 13.778,15.601 17.153,22.487 -14.279,-37.406 -34.259,-68.916 -39.53,-69.803 -3.387,-1.257 -7.689,0.934 -8.098,4.65 -0.889,14.247 22.364,24.576 38.09,47.719 z"
       inkscape:connector-curvature="0" />
    <path
       style="fill:#929292;fill-opacity:1"
       id="path10"
       d="m 150.5,946.72 c -2.459,-1.102 -4.705,-2.426 -6.761,-3.837 -0.287,0.172 -0.574,0.345 -0.854,0.517 6.813,2.315 13.778,10.25 17.153,14.774 -14.279,-24.575 -34.259,-45.278 -39.53,-45.861 -3.387,-0.826 -7.689,0.614 -8.098,3.055 -0.889,9.361 22.364,16.147 38.09,31.352 z"
       inkscape:connector-curvature="0" />
    <path
       style="fill:#929292;fill-opacity:1"
       id="path12"
       d="m 1402.8,112.41 c -14.247,-0.889 -24.576,22.364 -47.719,38.09 1.678,-2.459 3.692,-4.705 5.84,-6.761 -0.262,-0.287 -0.525,-0.574 -0.787,-0.854 -3.524,6.813 -15.601,13.778 -22.487,17.153 37.406,-14.279 68.916,-34.259 69.803,-39.53 1.257,-3.387 -0.934,-7.689 -4.65,-8.098 z"
       inkscape:connector-curvature="0" />
    <path
       style="fill:#929292;fill-opacity:1"
       id="path14"
       d="m 1502.9,1355.1 c 2.459,1.678 4.705,3.692 6.761,5.84 0.287,-0.262 0.573,-0.525 0.854,-0.787 -6.813,-3.524 -13.778,-15.601 -17.153,-22.487 14.279,37.406 34.26,68.917 39.53,69.803 3.387,1.257 7.689,-0.934 8.098,-4.65 0.889,-14.247 -22.364,-24.575 -38.09,-47.719 z"
       inkscape:connector-curvature="0" />
    <path
       style="fill:#929292;fill-opacity:1"
       id="path16"
       d="m 912.31,1532.9 c -0.826,3.387 0.614,7.689 3.055,8.098 9.36,0.889 16.146,-22.364 31.352,-38.09 -1.103,2.459 -2.426,4.705 -3.837,6.761 0.172,0.287 0.345,0.573 0.517,0.854 2.315,-6.813 10.25,-13.778 14.774,-17.153 -24.576,14.279 -45.278,34.26 -45.861,39.53 z"
       inkscape:connector-curvature="0" />
    <path
       style="fill:#929292;fill-opacity:1"
       id="path18"
       d="m 61.671,866.87 c 46.086,-17.964 92.163,61.297 97.714,68.488 -15.591,-28.618 -42.652,-80.361 -83.258,-87.022 -21.391,-3.621 -31.921,14.622 -19.991,26.268 -8.193,1.898 -17.408,4.267 -23.75,12.047 -9.094,10.98 -7.561,29.686 8.104,36.808 13.038,4.771 28.577,-0.547 27.466,-12.95 -0.859,-12.601 -14.682,-12.718 -18.844,-9.979 -4.282,2.867 -6.588,9.367 1.898,12.508 -21.5,5.179 -27.701,-22.249 5.413,-25.991 28.96,-1.452 54.191,16.177 56.244,18.23 -0.415,0 -1.251,0.004 -1.666,0.004 -11.005,-9.42 -29.649,-11.765 -32.867,-3.813 -2.92,7.723 6.685,12.177 12.766,9.205 8.043,-3.341 -0.386,-12.615 -5.529,-4.731 -5.271,-4.058 5.359,-12.517 22.902,0.341 -7.815,5.563 -0.754,16.683 9.697,21.782 -33.627,-7.03 -27.517,18.284 -49.221,13.916 22.105,9.57 37.076,-17.172 73.739,0.381 0.067,0.221 0.195,0.666 0.256,0.886 -3.41,-2.381 -18.521,-8.087 -31.402,-5.388 -17.358,3.654 -22.244,19.869 -6.664,26.769 7.412,3.363 16.13,1.754 19.258,-5.942 -2.972,-0.265 -5.858,-1.219 -7.554,-2.883 -11.699,-10.809 32.857,-20.627 52.333,20.503 -17.592,-19.523 -34.899,-2.591 -26.959,6.13 5.639,6.381 18.369,3.993 16.982,-2.502 -0.382,-1.769 -3.546,-4.907 -10.056,-1.953 -0.669,-6.533 13.257,-9.123 22.56,5.565 2.679,4.081 3.643,8.515 5.052,12.829 29.611,102.31 -59.323,96.468 -54.523,80.055 4.274,2.387 8.028,0.025 9.446,-1.684 4.357,-5.475 -10.089,-12.568 -18.606,-6.675 -13.22,9.509 4.859,29.402 29.986,26.545 49.585,-6.344 67.838,-90.141 6.78,-170.96 -18.246,-23.906 -46.715,-51.475 -87.25,-49.717 -10.719,-6.773 -0.504,-22.032 29.681,-8.724 -9.81,-3.471 -24.293,-7.527 -30.137,1.656 z m 58.838,45.44 c 5.271,0.583 25.251,21.285 39.53,45.861 -3.375,-4.524 -10.34,-12.458 -17.153,-14.774 0.281,-0.172 0.567,-0.345 0.854,-0.517 2.056,1.411 4.302,2.734 6.761,3.837 -15.726,-15.205 -38.979,-21.991 -38.09,-31.352 0.409,-2.442 4.711,-3.881 8.098,-3.055 z"
       inkscape:connector-curvature="0" />
    <path
       style="fill:#929292;fill-opacity:1"
       id="path20"
       d="m 64.203,751.19 c 8.008,-6.854 4.135,-24.571 -15.719,-23.012 -28.004,2.312 -32.647,43.909 7.662,50.459 -17.379,17.866 11.007,43.672 51.375,11.446 20.039,-16.068 38.989,-48.445 51.808,-72.1 -2.943,3.664 -52.64,87.478 -97.581,68.436 3.302,5.537 12.556,8.914 31.237,1.086 -27.229,13.666 -42.973,0.893 -31.012,-8.171 86.554,4.414 164.44,-150.85 106.17,-207.58 -29.319,-28.222 -69.068,-4.732 -57.892,11.193 4.695,6.798 19.421,5.326 21.534,-1.339 1.22,-3.162 -4.274,-7.718 -10.044,-4.755 -2.66,-18.818 89.154,-18.9 52.064,87.864 -6.097,15.96 -24.614,20.809 -25.074,10.5 8.809,5.171 14.293,-4.624 5.809,-7.529 -8.595,-2.723 -17.454,4.52 -14.206,11.085 3.648,8.122 14.315,9.167 21.297,4.562 3.014,-1.732 4.931,-4.061 7.097,-6.23 -7.776,15.055 -22.502,32.407 -46.34,29.335 -12.88,-1.475 -8.358,-11.272 1.629,-11.839 -3.678,-7.408 -10.589,-8.866 -17.153,-6.772 -21.808,6.89 -11.21,32.153 18.624,27.803 16.31,-2.447 27.012,-10.145 33.996,-19.974 -0.675,1.96 -13.911,25.425 -35.857,44.08 -3.506,2.912 -18.347,2.038 -6.92,-9.353 4.442,-4.578 15.047,-8.96 22.114,-14.702 4.021,-2.602 7.5,-5.525 11.063,-8.395 -0.152,-0.381 -1.037,-0.778 -1.232,0.02 -38.959,24.721 -56.797,-5.994 -79.469,3.893 10.61,-1.67 11.726,0.353 17.837,6.495 7.368,7.891 17.862,10.3 30.639,7.609 -13.166,7.107 -15.665,17.492 -9.385,21.633 -16.821,12.964 -28.267,4.47 -22.877,0.293 0.409,1.92 3.277,3.761 6.322,2.838 3.655,-1.624 3.051,-5.593 -0.384,-7.2 -3.686,-2.205 -9.952,-0.982 -12.052,1.824 -8.42,10.991 12.757,18.64 31.853,3.268 0.384,-0.004 1.147,-0.008 1.532,-0.012 -11.446,9.751 -45.877,25.018 -68.973,14.958 -17.258,-7.626 -12.118,-26.56 7.433,-22.676 -15.039,5.885 1.87,20.75 13.073,10.96 z"
       inkscape:connector-curvature="0" />
    <path
       style="fill:#929292;fill-opacity:1"
       id="path22"
       d="m 104.36,1086.4 c 8.869,8.974 24.556,10.19 29.144,9.261 -32.86,-0.689 -34.015,-31.929 -12.869,-33.649 12.343,-1.259 25.851,8.038 15.42,16.65 11.759,3.334 21.394,-11.356 4.613,-18.991 -20.319,-8.952 -47.118,2.875 -39.628,21.666 -5.851,-3.326 -15.478,-1.391 -13.15,4.839 0.671,2 4.29,3.552 7.231,2.49 4.342,-1.204 2.177,-7.207 -3.326,-3.371 -1.234,-3.42 5.983,-5.803 12.565,1.105 z"
       inkscape:connector-curvature="0" />
    <path
       style="fill:#929292;fill-opacity:1"
       id="path24"
       d="m 91.328,564.54 c -8.014,2.184 -2.83,13.213 9.654,7.561 -1.752,4.562 -1.581,9.51 1.049,13.912 10.895,18.008 51.184,10.504 47.469,-4.667 -1.353,-4.868 -6.087,-8.119 -13.461,-6.816 14.901,14.853 -22.86,25.637 -28.985,6.844 -3.54,-10.396 5.66,-22.576 27.045,-23.866 -22.481,-1.388 -29.937,10.718 -34.081,12.765 -5.301,2.366 -8.933,0.555 -8.207,-2.197 7.952,4.337 7.129,-5.711 -0.483,-3.536 z"
       inkscape:connector-curvature="0" />
    <path
       style="fill:#929292;fill-opacity:1"
       id="path26"
       d="m 133.27,762.94 c -20.226,35.155 -55.448,43.788 -40.403,54.528 -3.492,-8.483 4.566,-8.384 16.561,-13.643 -12.961,13.507 -12.563,32.819 0.043,45.728 -14.055,-5.919 -18.892,-5.15 -16.891,-13.355 -13.765,9.659 17.433,17.727 40.72,53.899 -0.086,-0.24 -14.259,-31.23 -18.795,-37.229 -11.458,-17.755 -9.313,-40.208 1.623,-54.661 4.772,-8.101 17.064,-35.026 17.142,-35.267 z"
       inkscape:connector-curvature="0" />
    <path
       style="fill:#929292;fill-opacity:1"
       id="path28"
       d="m 125.98,553.64 c 52.524,-5.626 69.611,43.955 65.318,93.91 -8.731,77.846 -78.645,103.28 -67.344,198.42 1.995,17.063 7.688,33.893 16.293,50.034 16.727,31.434 75.417,99.898 42.868,171.07 -17.906,38.897 -47.281,33.489 -57.135,32.668 l 24.5,8.91 c 53.136,-11.803 66.877,-86.698 40.708,-147.51 -14.971,-34.828 -39.229,-59.78 -49.635,-92.306 -8.865,-26.16 -8.222,-60.166 -0.048,-84.16 15.359,-48.398 60.456,-78.66 62.956,-151.97 -1.289,-57.197 -27.492,-82.664 -54.041,-87.965 l -24.44,8.905 z"
       inkscape:connector-curvature="0" />
    <path
       style="fill:#929292;fill-opacity:1"
       id="path30"
       d="m 152.67,1076.7 c 0.866,1.479 3.741,2.349 5.901,1.492 3.753,-1.371 3.07,-5.974 -1.379,-6.419 -3.918,-0.397 -5.999,2.878 -4.522,4.927 z"
       inkscape:connector-curvature="0" />
    <path
       style="fill:#929292;fill-opacity:1"
       id="path32"
       d="m 157.15,574.78 c -7.357,-0.652 -5.89,8.664 1.086,6.507 4.108,-1.199 3.546,-6.042 -1.086,-6.507 z"
       inkscape:connector-curvature="0" />
    <path
       style="fill:#929292;fill-opacity:1"
       id="path34"
       d="m 165.09,1072.9 c 3.686,-0.93 3.381,-5.164 -0.574,-5.693 -6.369,-0.778 -5.487,7.25 0.574,5.693 z"
       inkscape:connector-curvature="0" />
    <path
       style="fill:#929292;fill-opacity:1"
       id="path36"
       d="m 164.44,580.31 c -6.733,-0.636 -4.899,7.531 0.854,5.585 3.515,-1.027 3.075,-5.12 -0.854,-5.585 z"
       inkscape:connector-curvature="0" />
    <path
       style="fill:#929292;fill-opacity:1"
       id="path38"
       d="m 169.88,1066.8 c 3.24,-0.854 2.96,-4.534 -0.452,-5.107 -5.926,-0.942 -5.238,6.721 0.452,5.107 z"
       inkscape:connector-curvature="0" />
    <path
       style="fill:#929292;fill-opacity:1"
       id="path40"
       d="m 169.31,586.4 c -5.809,-0.824 -4.992,6.695 0.409,5.188 3.454,-0.754 3.185,-4.723 -0.409,-5.188 z"
       inkscape:connector-curvature="0" />
    <path
       style="fill:#929292;fill-opacity:1"
       id="path42"
       d="m 174.11,1060.4 c 2.465,-1.207 1.599,-4.434 -1.684,-4.603 -5.997,-0.094 -3.153,7.24 1.684,4.603 z"
       inkscape:connector-curvature="0" />
    <path
       style="fill:#929292;fill-opacity:1"
       id="path44"
       d="m 172.41,592.43 c -6.047,-0.096 -3.023,7.352 1.8,4.567 2.331,-1.267 1.465,-4.375 -1.8,-4.567 z"
       inkscape:connector-curvature="0" />
    <path
       style="fill:#929292;fill-opacity:1"
       id="path46"
       d="m 176.46,1054 c 2.502,-1.106 1.623,-4.274 -1.617,-4.334 -5.302,0.05 -2.935,6.551 1.617,4.334 z"
       inkscape:connector-curvature="0" />
    <path
       style="fill:#929292;fill-opacity:1"
       id="path48"
       d="m 174.89,599.01 c -2.606,-0.084 -3.838,2.125 -2.673,3.456 0.812,1.227 3.649,1.512 4.851,0.385 1.77,-1.255 0.616,-3.833 -2.178,-3.841 z"
       inkscape:connector-curvature="0" />
    <path
       style="fill:#929292;fill-opacity:1"
       id="path50"
       d="m 177.72,1047.9 c 2.636,-0.798 2.05,-4.005 -1.007,-4.073 -4.661,-0.399 -3.268,5.646 1.007,4.073 z"
       inkscape:connector-curvature="0" />
    <path
       style="fill:#929292;fill-opacity:1"
       id="path52"
       d="m 176.69,605.22 c -5.202,-0.16 -2.603,6.222 1.428,3.977 2.185,-1.026 1.471,-3.853 -1.428,-3.977 z"
       inkscape:connector-curvature="0" />
    <path
       style="fill:#929292;fill-opacity:1"
       id="path54"
       d="m 178.46,1041.6 c 2.16,-0.73 1.947,-3.232 -0.47,-3.668 -4.792,-0.72 -3.435,5.319 0.47,3.668 z"
       inkscape:connector-curvature="0" />
    <path
       style="fill:#929292;fill-opacity:1"
       id="path56"
       d="m 177.91,611.46 c -4.82,-0.64 -3.194,5.546 0.695,3.668 2.057,-0.797 1.709,-3.303 -0.695,-3.668 z"
       inkscape:connector-curvature="0" />
    <path
       style="fill:#929292;fill-opacity:1"
       id="path58"
       d="m 179.33,1035.8 c 1.434,-0.814 0.702,-2.814 -1.373,-2.774 -4.143,0.092 -1.151,4.819 1.373,2.774 z"
       inkscape:connector-curvature="0" />
    <path
       style="fill:#929292;fill-opacity:1"
       id="path60"
       d="m 177.97,617.14 c -1.8,0.076 -2.66,1.696 -1.586,2.578 0.751,0.878 3.057,0.73 3.46,-0.261 0.701,-0.918 -0.22,-2.272 -1.874,-2.317 z"
       inkscape:connector-curvature="0" />
    <path
       style="fill:#929292;fill-opacity:1"
       id="path62"
       d="m 179.57,1030.7 c 1.226,-0.649 0.702,-2.401 -1.062,-2.369 -3.478,-0.357 -1.717,4.194 1.062,2.369 z"
       inkscape:connector-curvature="0" />
    <path
       style="fill:#929292;fill-opacity:1"
       id="path64"
       d="m 179.69,1025.2 c -0.513,-1.263 -3.344,-0.578 -2.709,0.617 0.274,1.46 3.606,0.674 2.709,-0.617 z"
       inkscape:connector-curvature="0" />
    <path
       style="fill:#929292;fill-opacity:1"
       id="path66"
       d="m 178.53,629.01 c 0.537,-0.425 1.458,-0.838 1.208,-1.499 -0.014,-2.107 -5.455,0.112 -1.208,1.499 z"
       inkscape:connector-curvature="0" />
    <path
       style="fill:#929292;fill-opacity:1"
       id="path68"
       d="m 178.41,622.37 c -1.641,-0.068 -2.368,1.407 -1.458,2.177 0.611,0.798 2.514,0.629 3.033,-0.14 0.665,-0.778 -0.055,-2.065 -1.575,-2.037 z"
       inkscape:connector-curvature="0" />
    <path
       style="fill:#929292;fill-opacity:1"
       id="path70"
       d="m 150.48,1108.6 -24.5,-8.91 c 0,0 12.79,8.823 24.5,8.91 z"
       inkscape:connector-curvature="0" />
    <path
       style="fill:#929292;fill-opacity:1"
       id="path72"
       d="m 125.98,553.64 24.44,-8.904 c -14.332,1.881 -24.44,8.904 -24.44,8.904 z"
       inkscape:connector-curvature="0" />
    <path
       style="fill:#929292;fill-opacity:1"
       id="path74"
       d="m 669.82,171.24 c -4.082,2.679 -8.515,3.643 -12.829,5.053 -102.31,29.611 -96.468,-59.323 -80.054,-54.523 -2.387,4.274 -0.025,8.028 1.684,9.446 5.476,4.357 12.568,-10.089 6.675,-18.606 -9.509,-13.22 -29.402,4.859 -26.545,29.986 6.344,49.585 90.141,67.838 170.96,6.78 23.906,-18.246 51.475,-46.715 49.717,-87.25 6.772,-10.719 22.032,-0.504 8.724,29.681 3.472,-9.812 7.527,-24.295 -1.656,-30.139 17.965,46.085 -61.297,92.163 -68.488,97.714 28.618,-15.591 80.361,-42.652 87.022,-83.258 3.621,-21.391 -14.622,-31.921 -26.268,-19.991 -1.897,-8.193 -4.267,-17.408 -12.047,-23.75 -10.98,-9.094 -29.686,-7.561 -36.808,8.104 -4.771,13.038 0.547,28.577 12.95,27.466 12.601,-0.859 12.718,-14.682 9.979,-18.844 -2.867,-4.282 -9.367,-6.588 -12.509,1.898 -5.178,-21.5 22.249,-27.701 25.991,5.413 1.452,28.96 -16.177,54.191 -18.229,56.244 0,-0.415 -0.004,-1.251 -0.004,-1.666 9.42,-11.005 11.765,-29.649 3.813,-32.867 -7.723,-2.92 -12.177,6.685 -9.205,12.766 3.341,8.043 12.615,-0.386 4.731,-5.529 4.058,-5.271 12.517,5.359 -0.341,22.902 -5.563,-7.815 -16.683,-0.754 -21.782,9.697 7.039,-33.67 -18.292,-27.477 -13.916,-49.221 -9.57,22.105 17.172,37.076 -0.381,73.739 -0.22,0.067 -0.665,0.195 -0.886,0.256 2.381,-3.41 8.087,-18.521 5.388,-31.402 -3.654,-17.358 -19.869,-22.244 -26.769,-6.664 -3.363,7.412 -1.754,16.13 5.942,19.258 0.265,-2.972 1.219,-5.858 2.883,-7.555 10.809,-11.699 20.627,32.857 -20.503,52.333 2.221,-2.002 4.514,-3.979 6.27,-6.926 8.568,-12.926 -4.026,-27.658 -12.4,-20.033 -6.381,5.639 -3.993,18.369 2.502,16.982 1.661,-0.359 4.957,-3.437 1.953,-10.056 2.029,-0.208 4.19,1.263 4.963,4.266 2.144,7.065 -5.808,15.306 -10.529,18.296 z m 40.151,-28.357 c 0.172,0.281 0.345,0.567 0.517,0.854 -1.411,2.056 -2.735,4.302 -3.837,6.761 15.205,-15.726 21.991,-38.979 31.352,-38.09 2.441,0.409 3.881,4.711 3.055,8.098 -0.583,5.271 -21.285,25.251 -45.861,39.53 4.525,-3.375 12.459,-10.34 14.774,-17.153 z"
       inkscape:connector-curvature="0" />
    <path
       style="fill:#929292;fill-opacity:1"
       id="path76"
       d="m 935.38,159.33 c -3.664,-2.943 -87.478,-52.639 -68.436,-97.581 -5.537,3.302 -8.914,12.556 -1.087,31.237 -13.666,-27.229 -0.893,-42.973 8.171,-31.012 -4.414,86.554 150.85,164.44 207.58,106.17 28.222,-29.319 4.732,-69.068 -11.193,-57.892 -6.798,4.695 -5.326,19.421 1.339,21.534 3.16,1.22 7.719,-4.271 4.755,-10.044 18.818,-2.66 18.9,89.154 -87.864,52.064 -15.959,-6.097 -20.809,-24.614 -10.5,-25.074 -5.171,8.809 4.624,14.293 7.529,5.809 2.723,-8.596 -4.52,-17.454 -11.085,-14.206 -8.122,3.648 -9.167,14.315 -4.562,21.297 1.732,3.014 4.061,4.931 6.23,7.097 -15.055,-7.776 -32.407,-22.502 -29.335,-46.34 1.475,-12.88 11.272,-8.358 11.839,1.629 7.408,-3.678 8.866,-10.589 6.771,-17.153 -6.89,-21.808 -32.153,-11.21 -27.803,18.624 2.447,16.31 10.145,27.012 19.974,33.995 -1.96,-0.675 -25.425,-13.911 -44.08,-35.856 -2.912,-3.506 -2.038,-18.347 9.353,-6.92 4.578,4.442 8.96,15.047 14.701,22.114 2.602,4.021 5.525,7.5 8.395,11.063 0.381,-0.152 0.778,-1.037 -0.02,-1.232 -24.721,-38.959 5.994,-56.797 -3.893,-79.469 1.67,10.61 -0.353,11.726 -6.495,17.837 -7.891,7.368 -10.3,17.862 -7.609,30.639 -7.107,-13.166 -17.492,-15.665 -21.633,-9.385 -12.964,-16.821 -4.469,-28.267 -0.293,-22.877 -1.92,0.409 -3.76,3.277 -2.839,6.322 1.624,3.655 5.593,3.051 7.2,-0.384 2.205,-3.686 0.982,-9.952 -1.824,-12.052 -10.991,-8.42 -18.64,12.757 -3.268,31.853 0.004,0.384 0.008,1.147 0.012,1.532 -9.751,-11.446 -25.018,-45.877 -14.958,-68.973 7.626,-17.258 26.56,-12.118 22.676,7.433 -5.883,-15.042 -20.748,1.867 -10.957,13.071 6.854,8.008 24.571,4.135 23.012,-15.719 -2.312,-28.004 -43.909,-32.647 -50.459,7.662 -17.866,-17.379 -43.672,11.007 -11.446,51.375 16.069,20.042 48.446,38.992 72.101,51.81 z"
       inkscape:connector-curvature="0" />
    <path
       style="fill:#929292;fill-opacity:1"
       id="path78"
       d="m 557.75,133.5 c 0.69,-32.86 31.93,-34.015 33.649,-12.869 1.259,12.343 -8.038,25.851 -16.65,15.42 -3.334,11.759 11.357,21.394 18.991,4.613 8.952,-20.319 -2.875,-47.118 -21.665,-39.628 3.326,-5.851 1.391,-15.478 -4.839,-13.15 -2,0.671 -3.552,4.29 -2.49,7.231 1.204,4.342 7.207,2.177 3.371,-3.326 3.419,-1.234 5.801,5.983 -1.107,12.565 -8.973,8.868 -10.189,24.556 -9.26,29.144 z"
       inkscape:connector-curvature="0" />
    <path
       style="fill:#929292;fill-opacity:1"
       id="path80"
       d="m 1072,149.5 c 4.868,-1.353 8.119,-6.087 6.816,-13.461 -14.853,14.901 -25.637,-22.86 -6.843,-28.985 10.396,-3.54 22.576,5.66 23.866,27.045 1.388,-22.481 -10.717,-29.936 -12.765,-34.081 -2.366,-5.301 -0.555,-8.933 2.197,-8.207 -4.345,7.967 5.71,7.123 3.536,-0.482 -2.184,-8.014 -13.213,-2.83 -7.562,9.654 -4.562,-1.752 -9.51,-1.581 -13.912,1.049 -18.008,10.894 -10.504,51.183 4.667,47.468 z"
       inkscape:connector-curvature="0" />
    <path
       style="fill:#929292;fill-opacity:1"
       id="path82"
       d="m 763.27,133.3 c 0.24,-0.086 31.23,-14.259 37.229,-18.795 17.755,-11.458 40.208,-9.313 54.661,1.623 8.102,4.77 35.027,17.063 35.268,17.141 C 855.273,113.043 846.64,77.821 835.9,92.866 c 8.483,-3.492 8.384,4.566 13.643,16.561 -13.507,-12.961 -32.819,-12.563 -45.728,0.043 5.92,-14.055 5.15,-18.892 13.354,-16.891 -9.659,-13.764 -17.728,17.434 -53.899,40.721 z"
       inkscape:connector-curvature="0" />
    <path
       style="fill:#929292;fill-opacity:1"
       id="path84"
       d="m 544.73,150.48 c 11.803,53.136 86.698,66.877 147.51,40.708 34.828,-14.971 59.78,-39.229 92.306,-49.635 26.16,-8.865 60.166,-8.222 84.16,-0.048 48.398,15.359 78.66,60.456 151.97,62.956 57.197,-1.289 82.665,-27.492 87.965,-54.041 l -8.905,-24.44 c 5.626,52.524 -43.955,69.611 -93.91,65.318 -77.846,-8.731 -103.28,-78.645 -198.42,-67.344 -17.063,1.995 -33.893,7.688 -50.034,16.293 -31.433,16.727 -99.898,75.417 -171.07,42.868 -38.897,-17.906 -33.489,-47.281 -32.668,-57.135 l -8.91,24.5 z"
       inkscape:connector-curvature="0" />
    <path
       style="fill:#929292;fill-opacity:1"
       id="path86"
       d="m 576.65,152.67 c -1.479,0.866 -2.349,3.741 -1.491,5.901 1.371,3.753 5.974,3.07 6.419,-1.379 0.397,-3.918 -2.879,-5.999 -4.928,-4.522 z"
       inkscape:connector-curvature="0" />
    <path
       style="fill:#929292;fill-opacity:1"
       id="path88"
       d="m 1078.6,157.15 c 0.652,-7.357 -8.664,-5.89 -6.507,1.086 1.198,4.107 6.041,3.546 6.507,-1.086 z"
       inkscape:connector-curvature="0" />
    <path
       style="fill:#929292;fill-opacity:1"
       id="path90"
       d="m 580.48,165.09 c 0.93,3.686 5.164,3.381 5.693,-0.574 0.778,-6.369 -7.25,-5.487 -5.693,0.574 z"
       inkscape:connector-curvature="0" />
    <path
       style="fill:#929292;fill-opacity:1"
       id="path92"
       d="m 1067.5,165.29 c 1.027,3.515 5.12,3.076 5.585,-0.854 0.636,-6.733 -7.531,-4.899 -5.585,0.854 z"
       inkscape:connector-curvature="0" />
    <path
       style="fill:#929292;fill-opacity:1"
       id="path94"
       d="m 591.71,169.43 c 0.941,-5.927 -6.721,-5.237 -5.108,0.452 0.854,3.24 4.534,2.959 5.108,-0.452 z"
       inkscape:connector-curvature="0" />
    <path
       style="fill:#929292;fill-opacity:1"
       id="path96"
       d="m 1061.8,169.72 c 0.754,3.454 4.723,3.185 5.188,-0.409 0.824,-5.81 -6.694,-4.99 -5.188,0.409 z"
       inkscape:connector-curvature="0" />
    <path
       style="fill:#929292;fill-opacity:1"
       id="path98"
       d="m 592.99,174.11 c 1.207,2.465 4.434,1.599 4.603,-1.684 0.093,-5.997 -7.241,-3.152 -4.603,1.684 z"
       inkscape:connector-curvature="0" />
    <path
       style="fill:#929292;fill-opacity:1"
       id="path100"
       d="m 1060.9,172.41 c 0.096,-6.048 -7.352,-3.022 -4.567,1.8 1.268,2.331 4.375,1.465 4.567,-1.8 z"
       inkscape:connector-curvature="0" />
    <path
       style="fill:#929292;fill-opacity:1"
       id="path102"
       d="m 603.72,174.84 c -0.05,-5.303 -6.55,-2.934 -4.334,1.617 1.107,2.502 4.274,1.623 4.334,-1.617 z"
       inkscape:connector-curvature="0" />
    <path
       style="fill:#929292;fill-opacity:1"
       id="path104"
       d="m 1054.4,174.88 c 0.084,-2.606 -2.125,-3.838 -3.456,-2.673 -1.227,0.812 -1.511,3.649 -0.385,4.851 1.255,1.771 3.833,0.617 3.841,-2.178 z"
       inkscape:connector-curvature="0" />
    <path
       style="fill:#929292;fill-opacity:1"
       id="path106"
       d="m 609.55,176.72 c 0.399,-4.662 -5.646,-3.268 -4.073,1.007 0.798,2.636 4.005,2.05 4.073,-1.007 z"
       inkscape:connector-curvature="0" />
    <path
       style="fill:#929292;fill-opacity:1"
       id="path108"
       d="m 1048.1,176.69 c 0.16,-5.202 -6.222,-2.603 -3.977,1.428 1.026,2.184 3.853,1.471 3.977,-1.428 z"
       inkscape:connector-curvature="0" />
    <path
       style="fill:#929292;fill-opacity:1"
       id="path110"
       d="m 615.39,177.98 c 0.72,-4.792 -5.32,-3.435 -3.668,0.47 0.729,2.16 3.231,1.947 3.668,-0.47 z"
       inkscape:connector-curvature="0" />
    <path
       style="fill:#929292;fill-opacity:1"
       id="path112"
       d="m 1041.9,177.91 c 0.64,-4.82 -5.546,-3.194 -3.668,0.695 0.797,2.057 3.303,1.709 3.668,-0.695 z"
       inkscape:connector-curvature="0" />
    <path
       style="fill:#929292;fill-opacity:1"
       id="path114"
       d="m 620.38,177.96 c -0.093,-4.143 -4.819,-1.151 -2.774,1.373 0.814,1.434 2.814,0.702 2.774,-1.373 z"
       inkscape:connector-curvature="0" />
    <path
       style="fill:#929292;fill-opacity:1"
       id="path116"
       d="m 1033.9,179.84 c 0.918,0.702 2.273,-0.22 2.317,-1.873 -0.076,-1.8 -1.696,-2.66 -2.578,-1.586 -0.878,0.75 -0.729,3.057 0.261,3.459 z"
       inkscape:connector-curvature="0" />
    <path
       style="fill:#929292;fill-opacity:1"
       id="path118"
       d="m 625.08,178.51 c 0.356,-3.479 -4.195,-1.717 -2.369,1.062 0.649,1.227 2.401,0.702 2.369,-1.062 z"
       inkscape:connector-curvature="0" />
    <path
       style="fill:#929292;fill-opacity:1"
       id="path120"
       d="m 628.16,179.69 c 1.263,-0.513 0.577,-3.344 -0.617,-2.709 -1.46,0.274 -0.674,3.606 0.617,2.709 z"
       inkscape:connector-curvature="0" />
    <path
       style="fill:#929292;fill-opacity:1"
       id="path122"
       d="m 1025.9,179.74 c 2.108,-0.014 -0.113,-5.456 -1.499,-1.208 0.424,0.537 0.837,1.458 1.499,1.208 z"
       inkscape:connector-curvature="0" />
    <path
       style="fill:#929292;fill-opacity:1"
       id="path124"
       d="m 1029,179.99 c 0.778,0.665 2.065,-0.055 2.037,-1.574 0.068,-1.641 -1.407,-2.368 -2.177,-1.458 -0.798,0.61 -0.629,2.513 0.14,3.032 z"
       inkscape:connector-curvature="0" />
    <path
       style="fill:#929292;fill-opacity:1"
       id="path126"
       d="m 544.73,150.48 8.91,-24.5 c 0,0 -8.823,12.79 -8.91,24.5 z"
       inkscape:connector-curvature="0" />
    <path
       style="fill:#929292;fill-opacity:1"
       id="path128"
       d="m 1099.7,125.98 8.905,24.44 c -1.882,-14.332 -8.905,-24.44 -8.905,-24.44 z"
       inkscape:connector-curvature="0" />
    <path
       style="fill:#929292;fill-opacity:1"
       id="path130"
       d="m 1591.7,786.5 c -45.131,17.592 -88.827,-56.976 -97.714,-68.488 15.591,28.618 42.652,80.361 83.258,87.022 21.391,3.621 31.921,-14.622 19.991,-26.268 8.193,-1.898 17.408,-4.267 23.75,-12.047 9.094,-10.98 7.561,-29.686 -8.104,-36.808 -13.038,-4.771 -28.577,0.547 -27.466,12.95 0.859,12.601 14.682,12.718 18.844,9.979 4.282,-2.867 6.588,-9.367 -1.898,-12.508 21.501,-5.178 27.701,22.249 -5.413,25.991 -28.96,1.452 -54.191,-16.177 -56.244,-18.23 0.415,0 1.251,-0.004 1.666,-0.004 11.005,9.42 29.649,11.765 32.867,3.813 2.92,-7.723 -6.685,-12.177 -12.766,-9.205 -8.043,3.341 0.386,12.615 5.529,4.731 5.271,4.058 -5.359,12.517 -22.902,-0.341 7.816,-5.563 0.754,-16.683 -9.697,-21.782 33.627,7.031 27.517,-18.284 49.22,-13.916 -22.105,-9.57 -37.076,17.172 -73.739,-0.381 -0.067,-0.221 -0.195,-0.665 -0.256,-0.886 3.41,2.381 18.52,8.087 31.402,5.388 17.358,-3.654 22.244,-19.869 6.663,-26.769 -7.412,-3.363 -16.13,-1.754 -19.258,5.942 2.972,0.265 5.858,1.219 7.554,2.883 11.699,10.809 -32.857,20.627 -52.333,-20.503 17.592,19.522 34.899,2.591 26.959,-6.13 -5.639,-6.381 -18.369,-3.993 -16.982,2.502 0.359,1.663 3.441,4.955 10.057,1.953 0.668,6.533 -13.258,9.123 -22.56,-5.565 -2.679,-4.081 -3.643,-8.515 -5.053,-12.829 -29.61,-102.31 59.323,-96.468 54.523,-80.054 -4.274,-2.387 -8.028,-0.025 -9.446,1.684 -4.357,5.476 10.089,12.568 18.606,6.675 13.22,-9.509 -4.859,-29.402 -29.986,-26.544 -49.585,6.344 -67.838,90.141 -6.78,170.96 18.246,23.906 46.715,51.475 87.25,49.717 10.719,6.772 0.504,22.032 -29.681,8.724 9.813,3.469 24.296,7.525 30.139,-1.658 z m -58.838,-45.44 c -5.271,-0.583 -25.251,-21.285 -39.53,-45.861 3.375,4.524 10.34,12.458 17.153,14.774 -0.281,0.172 -0.568,0.345 -0.854,0.517 -2.056,-1.411 -4.302,-2.734 -6.761,-3.837 15.726,15.205 38.979,21.991 38.09,31.351 -0.409,2.443 -4.711,3.882 -8.098,3.056 z"
       inkscape:connector-curvature="0" />
    <path
       style="fill:#929292;fill-opacity:1"
       id="path132"
       d="m 1589.2,902.18 c -8.008,6.854 -4.135,24.571 15.719,23.012 28.004,-2.312 32.647,-43.909 -7.662,-50.459 17.379,-17.866 -11.007,-43.672 -51.375,-11.446 -20.039,16.068 -38.989,48.445 -51.808,72.1 2.943,-3.664 52.639,-87.478 97.581,-68.436 -3.302,-5.537 -12.556,-8.914 -31.237,-1.087 27.229,-13.666 42.973,-0.893 31.011,8.171 -86.554,-4.414 -164.44,150.85 -106.17,207.58 29.319,28.222 69.068,4.732 57.892,-11.193 -4.695,-6.798 -19.421,-5.326 -21.535,1.339 -1.22,3.16 4.271,7.719 10.044,4.755 2.659,18.818 -89.153,18.901 -52.064,-87.864 6.097,-15.96 24.614,-20.809 25.074,-10.5 -8.809,-5.171 -14.293,4.624 -5.809,7.529 8.595,2.723 17.454,-4.52 14.206,-11.085 -3.648,-8.122 -14.315,-9.167 -21.297,-4.562 -3.014,1.732 -4.931,4.061 -7.097,6.23 7.776,-15.055 22.502,-32.407 46.34,-29.335 12.88,1.475 8.358,11.272 -1.629,11.839 3.678,7.408 10.589,8.866 17.153,6.772 21.808,-6.89 11.21,-32.153 -18.624,-27.803 -16.31,2.447 -27.012,10.145 -33.995,19.974 0.675,-1.96 13.911,-25.425 35.857,-44.08 3.506,-2.912 18.347,-2.038 6.92,9.353 -4.442,4.578 -15.047,8.96 -22.114,14.701 -4.021,2.602 -7.5,5.525 -11.063,8.395 0.152,0.381 1.037,0.778 1.232,-0.02 38.959,-24.721 56.797,5.994 79.469,-3.893 -10.61,1.67 -11.725,-0.353 -17.837,-6.495 -7.368,-7.891 -17.862,-10.3 -30.639,-7.609 13.166,-7.107 15.665,-17.492 9.385,-21.633 16.821,-12.964 28.266,-4.47 22.877,-0.293 -0.409,-1.92 -3.277,-3.761 -6.322,-2.839 -3.655,1.624 -3.051,5.593 0.384,7.2 3.686,2.205 9.952,0.982 12.052,-1.824 8.42,-10.991 -12.757,-18.64 -31.853,-3.268 -0.384,0.004 -1.147,0.008 -1.532,0.012 11.446,-9.751 45.877,-25.018 68.973,-14.958 17.258,7.626 12.118,26.56 -7.433,22.676 15.04,-5.883 -1.869,-20.746 -13.072,-10.957 z"
       inkscape:connector-curvature="0" />
    <path
       style="fill:#929292;fill-opacity:1"
       id="path134"
       d="m 1549,567.01 c -8.869,-8.974 -24.556,-10.19 -29.144,-9.261 32.86,0.69 34.015,31.929 12.869,33.649 -12.343,1.259 -25.851,-8.038 -15.42,-16.65 -11.759,-3.334 -21.394,11.356 -4.613,18.991 20.318,8.952 47.117,-2.875 39.628,-21.665 5.851,3.326 15.478,1.391 13.15,-4.839 -0.671,-2 -4.29,-3.552 -7.231,-2.49 -4.342,1.204 -2.177,7.207 3.326,3.371 1.233,3.419 -5.984,5.802 -12.565,-1.106 z"
       inkscape:connector-curvature="0" />
    <path
       style="fill:#929292;fill-opacity:1"
       id="path136"
       d="m 1562,1088.8 c 8.014,-2.184 2.83,-13.213 -9.654,-7.561 1.752,-4.562 1.581,-9.51 -1.049,-13.912 -10.895,-18.008 -51.184,-10.504 -47.469,4.667 1.353,4.868 6.087,8.119 13.461,6.816 -14.895,-14.847 22.859,-25.641 28.985,-6.843 3.54,10.396 -5.66,22.576 -27.045,23.866 22.484,1.388 29.935,-10.717 34.081,-12.765 5.301,-2.366 8.933,-0.555 8.208,2.197 -7.947,-4.333 -7.137,5.713 0.482,3.535 z"
       inkscape:connector-curvature="0" />
    <path
       style="fill:#929292;fill-opacity:1"
       id="path138"
       d="m 1520.1,890.43 c 20.226,-35.155 55.448,-43.788 40.403,-54.528 3.492,8.483 -4.566,8.384 -16.561,13.643 12.961,-13.507 12.563,-32.819 -0.043,-45.728 14.056,5.919 18.892,5.15 16.891,13.355 13.766,-9.658 -17.432,-17.727 -40.72,-53.899 0.086,0.24 14.259,31.23 18.795,37.229 11.458,17.755 9.313,40.208 -1.623,54.661 -4.771,8.1 -17.064,35.026 -17.142,35.267 z"
       inkscape:connector-curvature="0" />
    <path
       style="fill:#929292;fill-opacity:1"
       id="path140"
       d="m 1527.4,1099.7 c -52.524,5.626 -69.611,-43.955 -65.318,-93.91 8.73,-77.846 78.645,-103.28 67.344,-198.42 -1.995,-17.063 -7.689,-33.893 -16.293,-50.034 -16.727,-31.434 -75.417,-99.898 -42.868,-171.07 17.906,-38.897 47.281,-33.489 57.135,-32.668 l -24.5,-8.91 c -53.136,11.803 -66.877,86.698 -40.708,147.51 14.971,34.828 39.229,59.78 49.635,92.306 8.865,26.16 8.222,60.166 0.048,84.16 -15.359,48.398 -60.456,78.66 -62.956,151.97 1.289,57.197 27.492,82.664 54.041,87.965 l 24.44,-8.905 z"
       inkscape:connector-curvature="0" />
    <path
       style="fill:#929292;fill-opacity:1"
       id="path142"
       d="m 1500.7,576.65 c -0.866,-1.479 -3.741,-2.349 -5.901,-1.491 -3.753,1.371 -3.07,5.974 1.379,6.419 3.918,0.397 5.998,-2.879 4.522,-4.928 z"
       inkscape:connector-curvature="0" />
    <path
       style="fill:#929292;fill-opacity:1"
       id="path144"
       d="m 1496.2,1078.6 c 7.357,0.652 5.89,-8.664 -1.086,-6.507 -4.107,1.198 -3.546,6.041 1.086,6.507 z"
       inkscape:connector-curvature="0" />
    <path
       style="fill:#929292;fill-opacity:1"
       id="path146"
       d="m 1488.3,580.48 c -3.686,0.93 -3.381,5.164 0.573,5.693 6.368,0.778 5.491,-7.251 -0.573,-5.693 z"
       inkscape:connector-curvature="0" />
    <path
       style="fill:#929292;fill-opacity:1"
       id="path148"
       d="m 1488.9,1073.1 c 6.733,0.636 4.899,-7.531 -0.854,-5.585 -3.516,1.027 -3.076,5.12 0.854,5.585 z"
       inkscape:connector-curvature="0" />
    <path
       style="fill:#929292;fill-opacity:1"
       id="path150"
       d="m 1483.5,586.61 c -3.24,0.854 -2.96,4.534 0.452,5.108 5.925,0.941 5.237,-6.722 -0.452,-5.108 z"
       inkscape:connector-curvature="0" />
    <path
       style="fill:#929292;fill-opacity:1"
       id="path152"
       d="m 1484.1,1067 c 5.81,0.824 4.99,-6.695 -0.409,-5.188 -3.453,0.754 -3.185,4.723 0.409,5.188 z"
       inkscape:connector-curvature="0" />
    <path
       style="fill:#929292;fill-opacity:1"
       id="path154"
       d="m 1479.3,592.99 c -2.465,1.207 -1.599,4.434 1.684,4.603 5.997,0.093 3.152,-7.241 -1.684,-4.603 z"
       inkscape:connector-curvature="0" />
    <path
       style="fill:#929292;fill-opacity:1"
       id="path156"
       d="m 1481,1060.9 c 6.047,0.096 3.022,-7.352 -1.8,-4.567 -2.331,1.268 -1.465,4.375 1.8,4.567 z"
       inkscape:connector-curvature="0" />
    <path
       style="fill:#929292;fill-opacity:1"
       id="path158"
       d="m 1476.9,599.38 c -2.502,1.107 -1.623,4.274 1.617,4.334 5.303,-0.05 2.934,-6.55 -1.617,-4.334 z"
       inkscape:connector-curvature="0" />
    <path
       style="fill:#929292;fill-opacity:1"
       id="path160"
       d="m 1478.5,1054.4 c 2.606,0.084 3.838,-2.125 2.673,-3.456 -0.812,-1.227 -3.649,-1.512 -4.851,-0.385 -1.771,1.255 -0.617,3.833 2.178,3.841 z"
       inkscape:connector-curvature="0" />
    <path
       style="fill:#929292;fill-opacity:1"
       id="path162"
       d="m 1475.6,605.47 c -2.636,0.798 -2.05,4.005 1.007,4.073 4.662,0.399 3.268,-5.646 -1.007,-4.073 z"
       inkscape:connector-curvature="0" />
    <path
       style="fill:#929292;fill-opacity:1"
       id="path164"
       d="m 1476.7,1048.1 c 5.202,0.16 2.602,-6.221 -1.428,-3.977 -2.184,1.026 -1.47,3.853 1.428,3.977 z"
       inkscape:connector-curvature="0" />
    <path
       style="fill:#929292;fill-opacity:1"
       id="path166"
       d="m 1474.9,611.72 c -2.16,0.73 -1.947,3.232 0.47,3.668 4.791,0.721 3.435,-5.319 -0.47,-3.668 z"
       inkscape:connector-curvature="0" />
    <path
       style="fill:#929292;fill-opacity:1"
       id="path168"
       d="m 1475.5,1041.9 c 4.82,0.64 3.194,-5.547 -0.696,-3.669 -2.056,0.798 -1.708,3.304 0.696,3.669 z"
       inkscape:connector-curvature="0" />
    <path
       style="fill:#929292;fill-opacity:1"
       id="path170"
       d="m 1474,617.6 c -1.434,0.814 -0.702,2.815 1.373,2.774 4.143,-0.092 1.151,-4.819 -1.373,-2.774 z"
       inkscape:connector-curvature="0" />
    <path
       style="fill:#929292;fill-opacity:1"
       id="path172"
       d="m 1475.4,1036.2 c 1.8,-0.076 2.661,-1.696 1.587,-2.578 -0.751,-0.878 -3.057,-0.73 -3.46,0.261 -0.702,0.918 0.22,2.273 1.873,2.317 z"
       inkscape:connector-curvature="0" />
    <path
       style="fill:#929292;fill-opacity:1"
       id="path174"
       d="m 1473.8,622.71 c -1.226,0.649 -0.702,2.401 1.062,2.369 3.478,0.357 1.718,-4.194 -1.062,-2.369 z"
       inkscape:connector-curvature="0" />
    <path
       style="fill:#929292;fill-opacity:1"
       id="path176"
       d="m 1473.7,628.16 c 0.513,1.263 3.344,0.577 2.709,-0.617 -0.274,-1.46 -3.606,-0.674 -2.709,0.617 z"
       inkscape:connector-curvature="0" />
    <path
       style="fill:#929292;fill-opacity:1"
       id="path178"
       d="m 1474.8,1024.4 c -0.537,0.425 -1.458,0.838 -1.208,1.499 0.014,2.107 5.456,-0.111 1.208,-1.499 z"
       inkscape:connector-curvature="0" />
    <path
       style="fill:#929292;fill-opacity:1"
       id="path180"
       d="m 1475,1031 c 1.641,0.068 2.368,-1.407 1.458,-2.177 -0.611,-0.798 -2.514,-0.629 -3.033,0.14 -0.665,0.778 0.055,2.065 1.575,2.037 z"
       inkscape:connector-curvature="0" />
    <path
       style="fill:#929292;fill-opacity:1"
       id="path182"
       d="m 1502.9,544.73 24.5,8.91 c 0,0 -12.791,-8.823 -24.5,-8.91 z"
       inkscape:connector-curvature="0" />
    <path
       style="fill:#929292;fill-opacity:1"
       id="path184"
       d="m 1527.4,1099.7 -24.44,8.905 c 14.333,-1.882 24.44,-8.905 24.44,-8.905 z"
       inkscape:connector-curvature="0" />
    <path
       style="fill:#929292;fill-opacity:1"
       id="path186"
       d="m 983.55,1482.1 c 4.081,-2.679 8.515,-3.643 12.829,-5.053 102.31,-29.611 96.468,59.323 80.055,54.523 2.387,-4.274 0.025,-8.028 -1.684,-9.446 -5.475,-4.357 -12.568,10.089 -6.675,18.606 9.509,13.22 29.402,-4.859 26.545,-29.986 -6.344,-49.585 -90.141,-67.838 -170.96,-6.78 -23.906,18.246 -51.475,46.715 -49.717,87.25 -6.773,10.719 -22.032,0.504 -8.724,-29.681 -3.472,9.812 -7.528,24.295 1.656,30.139 -17.963,-46.086 61.297,-92.163 68.488,-97.714 -28.618,15.591 -80.361,42.652 -87.022,83.259 -3.621,21.391 14.622,31.921 26.268,19.991 1.897,8.193 4.267,17.408 12.047,23.75 10.98,9.094 29.686,7.561 36.808,-8.104 4.771,-13.038 -0.547,-28.577 -12.95,-27.466 -12.601,0.859 -12.718,14.682 -9.979,18.844 2.867,4.282 9.367,6.588 12.509,-1.898 5.178,21.5 -22.249,27.701 -25.991,-5.413 -1.452,-28.96 16.177,-54.191 18.229,-56.244 0,0.415 0.004,1.251 0.004,1.666 -9.42,11.005 -11.765,29.649 -3.813,32.867 7.723,2.92 12.177,-6.685 9.205,-12.766 -3.341,-8.043 -12.615,0.386 -4.731,5.529 -4.058,5.271 -12.517,-5.359 0.341,-22.902 5.563,7.815 16.683,0.755 21.782,-9.697 -7.031,33.627 18.284,27.517 13.916,49.221 9.57,-22.105 -17.172,-37.076 0.381,-73.739 0.22,-0.067 0.665,-0.195 0.886,-0.256 -2.381,3.41 -8.087,18.521 -5.388,31.402 3.654,17.358 19.869,22.244 26.769,6.664 3.363,-7.412 1.754,-16.13 -5.942,-19.259 -0.265,2.972 -1.219,5.858 -2.883,7.555 -10.809,11.699 -20.627,-32.857 20.503,-52.333 -2.221,2.002 -4.514,3.979 -6.27,6.926 -8.568,12.926 4.026,27.658 12.4,20.033 6.381,-5.639 3.993,-18.369 -2.502,-16.982 -1.77,0.382 -4.908,3.546 -1.953,10.057 -6.536,0.666 -9.122,-13.261 5.565,-22.563 z m -40.151,28.357 c -0.172,-0.281 -0.345,-0.567 -0.517,-0.854 1.411,-2.056 2.734,-4.302 3.837,-6.761 -15.205,15.726 -21.991,38.979 -31.352,38.09 -2.441,-0.409 -3.881,-4.711 -3.055,-8.098 0.583,-5.271 21.285,-25.251 45.861,-39.53 -4.525,3.376 -12.459,10.341 -14.774,17.153 z"
       inkscape:connector-curvature="0" />
    <path
       style="fill:#929292;fill-opacity:1"
       id="path188"
       d="m 717.99,1494 c 3.664,2.943 87.477,52.64 68.436,97.58 5.537,-3.302 8.914,-12.556 1.087,-31.237 13.666,27.229 0.893,42.973 -8.171,31.011 4.414,-86.554 -150.85,-164.44 -207.58,-106.17 -28.222,29.319 -4.732,69.068 11.193,57.892 6.798,-4.695 5.326,-19.421 -1.339,-21.535 -3.16,-1.22 -7.719,4.271 -4.755,10.044 -18.816,2.66 -18.903,-89.154 87.864,-52.064 15.959,6.097 20.809,24.614 10.5,25.074 5.171,-8.809 -4.624,-14.292 -7.529,-5.809 -2.723,8.595 4.52,17.454 11.085,14.206 8.122,-3.647 9.167,-14.314 4.562,-21.297 -1.732,-3.014 -4.061,-4.931 -6.23,-7.097 15.055,7.776 32.407,22.502 29.335,46.34 -1.475,12.88 -11.272,8.358 -11.839,-1.629 -7.408,3.678 -8.866,10.589 -6.772,17.153 6.89,21.808 32.153,11.21 27.803,-18.624 -2.447,-16.31 -10.145,-27.012 -19.974,-33.996 1.96,0.675 25.425,13.911 44.081,35.857 2.912,3.506 2.038,18.347 -9.353,6.92 -4.578,-4.442 -8.96,-15.047 -14.702,-22.114 -2.602,-4.021 -5.525,-7.5 -8.395,-11.063 -0.381,0.152 -0.778,1.037 0.02,1.232 24.721,38.959 -5.994,56.797 3.893,79.469 -1.67,-10.61 0.353,-11.725 6.495,-17.837 7.891,-7.368 10.3,-17.862 7.609,-30.639 7.107,13.166 17.492,15.665 21.633,9.385 12.964,16.821 4.47,28.267 0.293,22.877 1.92,-0.409 3.761,-3.277 2.839,-6.322 -1.624,-3.655 -5.593,-3.051 -7.2,0.385 -2.205,3.686 -0.982,9.952 1.824,12.052 10.991,8.42 18.64,-12.757 3.268,-31.853 -0.004,-0.384 -0.008,-1.147 -0.012,-1.531 9.751,11.446 25.018,45.877 14.958,68.973 -7.626,17.258 -26.56,12.118 -22.676,-7.433 5.898,15.081 20.732,-1.885 10.957,-13.071 -6.854,-8.008 -24.571,-4.135 -23.012,15.719 2.312,28.004 43.91,32.647 50.459,-7.662 17.866,17.379 43.672,-11.007 11.446,-51.375 -16.068,-20.041 -48.445,-38.991 -72.1,-51.809 z"
       inkscape:connector-curvature="0" />
    <path
       style="fill:#929292;fill-opacity:1"
       id="path190"
       d="m 1095.6,1519.9 c -0.69,32.861 -31.929,34.015 -33.649,12.87 -1.259,-12.343 8.038,-25.851 16.65,-15.42 3.334,-11.759 -11.356,-21.395 -18.991,-4.613 -8.952,20.318 2.875,47.118 21.665,39.628 -3.326,5.851 -1.39,15.478 4.839,13.15 2,-0.671 3.552,-4.29 2.49,-7.231 -1.204,-4.342 -7.207,-2.177 -3.371,3.326 -3.419,1.234 -5.801,-5.983 1.106,-12.565 8.974,-8.869 10.19,-24.557 9.261,-29.145 z"
       inkscape:connector-curvature="0" />
    <path
       style="fill:#929292;fill-opacity:1"
       id="path192"
       d="m 581.35,1503.9 c -4.868,1.353 -8.119,6.087 -6.816,13.461 14.848,-14.894 25.641,22.859 6.844,28.986 -10.396,3.54 -22.576,-5.66 -23.866,-27.045 -1.388,22.482 10.718,29.937 12.765,34.081 2.366,5.301 0.555,8.933 -2.197,8.208 4.345,-7.97 -5.709,-7.119 -3.536,0.482 2.184,8.014 13.213,2.83 7.561,-9.654 4.562,1.751 9.51,1.581 13.912,-1.05 18.007,-10.895 10.503,-51.184 -4.667,-47.469 z"
       inkscape:connector-curvature="0" />
    <path
       style="fill:#929292;fill-opacity:1"
       id="path194"
       d="m 890.1,1520.1 c -0.24,0.086 -31.23,14.259 -37.229,18.795 -17.755,11.458 -40.208,9.313 -54.661,-1.623 -8.102,-4.77 -35.027,-17.063 -35.268,-17.141 35.155,20.226 43.788,55.448 54.528,40.403 -8.483,3.492 -8.384,-4.566 -13.643,-16.562 13.507,12.961 32.819,12.563 45.728,-0.043 -5.919,14.055 -5.15,18.892 -13.354,16.891 9.659,13.765 17.727,-17.432 53.899,-40.72 z"
       inkscape:connector-curvature="0" />
    <path
       style="fill:#929292;fill-opacity:1"
       id="path196"
       d="m 1108.6,1502.9 c -11.803,-53.136 -86.698,-66.877 -147.51,-40.708 -34.828,14.971 -59.78,39.229 -92.306,49.635 -26.16,8.865 -60.166,8.222 -84.16,0.048 -48.398,-15.359 -78.66,-60.456 -151.97,-62.956 -57.198,1.289 -82.664,27.492 -87.965,54.041 l 8.904,24.44 c -5.626,-52.524 43.955,-69.611 93.91,-65.318 77.846,8.73 103.28,78.645 198.42,67.344 17.063,-1.995 33.893,-7.688 50.034,-16.293 31.433,-16.727 99.898,-75.417 171.07,-42.868 38.897,17.906 33.489,47.281 32.668,57.135 l 8.911,-24.5 z"
       inkscape:connector-curvature="0" />
    <path
       style="fill:#929292;fill-opacity:1"
       id="path198"
       d="m 1076.7,1500.7 c 1.479,-0.866 2.349,-3.741 1.492,-5.901 -1.371,-3.753 -5.974,-3.07 -6.419,1.379 -0.397,3.918 2.878,5.998 4.927,4.522 z"
       inkscape:connector-curvature="0" />
    <path
       style="fill:#929292;fill-opacity:1"
       id="path200"
       d="m 574.78,1496.2 c -0.652,7.357 8.664,5.889 6.507,-1.086 -1.199,-4.107 -6.042,-3.546 -6.507,1.086 z"
       inkscape:connector-curvature="0" />
    <path
       style="fill:#929292;fill-opacity:1"
       id="path202"
       d="m 1072.9,1488.3 c -0.93,-3.686 -5.164,-3.381 -5.693,0.573 -0.777,6.368 7.251,5.491 5.693,-0.573 z"
       inkscape:connector-curvature="0" />
    <path
       style="fill:#929292;fill-opacity:1"
       id="path204"
       d="m 585.9,1488.1 c -1.026,-3.515 -5.12,-3.075 -5.585,0.854 -0.636,6.733 7.531,4.899 5.585,-0.854 z"
       inkscape:connector-curvature="0" />
    <path
       style="fill:#929292;fill-opacity:1"
       id="path206"
       d="m 1061.7,1483.9 c -0.941,5.926 6.722,5.237 5.108,-0.452 -0.854,-3.24 -4.534,-2.959 -5.108,0.452 z"
       inkscape:connector-curvature="0" />
    <path
       style="fill:#929292;fill-opacity:1"
       id="path208"
       d="m 591.59,1483.7 c -0.754,-3.454 -4.723,-3.185 -5.188,0.409 -0.824,5.81 6.695,4.991 5.188,-0.409 z"
       inkscape:connector-curvature="0" />
    <path
       style="fill:#929292;fill-opacity:1"
       id="path210"
       d="m 1060.4,1479.3 c -1.207,-2.465 -4.434,-1.599 -4.603,1.684 -0.094,5.996 7.241,3.152 4.603,-1.684 z"
       inkscape:connector-curvature="0" />
    <path
       style="fill:#929292;fill-opacity:1"
       id="path212"
       d="m 592.43,1481 c -0.096,6.048 7.352,3.022 4.567,-1.8 -1.267,-2.331 -4.375,-1.465 -4.567,1.8 z"
       inkscape:connector-curvature="0" />
    <path
       style="fill:#929292;fill-opacity:1"
       id="path214"
       d="m 1049.7,1478.5 c 0.05,5.303 6.551,2.934 4.334,-1.617 -1.107,-2.502 -4.274,-1.623 -4.334,1.617 z"
       inkscape:connector-curvature="0" />
    <path
       style="fill:#929292;fill-opacity:1"
       id="path216"
       d="m 599.01,1478.5 c -0.084,2.606 2.125,3.838 3.456,2.673 1.227,-0.812 1.512,-3.649 0.385,-4.851 -1.255,-1.771 -3.833,-0.617 -3.841,2.178 z"
       inkscape:connector-curvature="0" />
    <path
       style="fill:#929292;fill-opacity:1"
       id="path218"
       d="m 1043.8,1476.7 c -0.399,4.662 5.646,3.268 4.073,-1.007 -0.798,-2.636 -4.005,-2.05 -4.073,1.007 z"
       inkscape:connector-curvature="0" />
    <path
       style="fill:#929292;fill-opacity:1"
       id="path220"
       d="m 605.22,1476.7 c -0.16,5.202 6.222,2.602 3.977,-1.428 -1.026,-2.184 -3.853,-1.471 -3.977,1.428 z"
       inkscape:connector-curvature="0" />
    <path
       style="fill:#929292;fill-opacity:1"
       id="path222"
       d="m 1038,1475.4 c -0.72,4.792 5.319,3.434 3.668,-0.47 -0.729,-2.16 -3.231,-1.947 -3.668,0.47 z"
       inkscape:connector-curvature="0" />
    <path
       style="fill:#929292;fill-opacity:1"
       id="path224"
       d="m 611.46,1475.5 c -0.64,4.82 5.546,3.194 3.668,-0.695 -0.797,-2.057 -3.303,-1.709 -3.668,0.695 z"
       inkscape:connector-curvature="0" />
    <path
       style="fill:#929292;fill-opacity:1"
       id="path226"
       d="m 1033,1475.4 c 0.092,4.142 4.818,1.151 2.774,-1.373 -0.813,-1.434 -2.814,-0.701 -2.774,1.373 z"
       inkscape:connector-curvature="0" />
    <path
       style="fill:#929292;fill-opacity:1"
       id="path228"
       d="m 619.46,1473.5 c -0.918,-0.702 -2.273,0.22 -2.317,1.873 0.076,1.8 1.696,2.661 2.578,1.587 0.878,-0.751 0.73,-3.058 -0.261,-3.46 z"
       inkscape:connector-curvature="0" />
    <path
       style="fill:#929292;fill-opacity:1"
       id="path230"
       d="m 1028.3,1474.9 c -0.356,3.478 4.195,1.718 2.369,-1.062 -0.649,-1.226 -2.401,-0.702 -2.369,1.062 z"
       inkscape:connector-curvature="0" />
    <path
       style="fill:#929292;fill-opacity:1"
       id="path232"
       d="m 1025.2,1473.7 c -1.263,0.513 -0.578,3.344 0.617,2.709 1.459,-0.274 0.673,-3.606 -0.617,-2.709 z"
       inkscape:connector-curvature="0" />
    <path
       style="fill:#929292;fill-opacity:1"
       id="path234"
       d="m 627.51,1473.6 c -2.106,0.014 0.112,5.456 1.499,1.208 -0.425,-0.537 -0.838,-1.458 -1.499,-1.208 z"
       inkscape:connector-curvature="0" />
    <path
       style="fill:#929292;fill-opacity:1"
       id="path236"
       d="m 624.4,1473.4 c -0.778,-0.665 -2.064,0.055 -2.037,1.574 -0.068,1.641 1.407,2.368 2.177,1.458 0.798,-0.609 0.629,-2.513 -0.14,-3.032 z"
       inkscape:connector-curvature="0" />
    <path
       style="fill:#929292;fill-opacity:1"
       id="path238"
       d="m 1108.6,1502.9 -8.91,24.5 c 0,0 8.823,-12.791 8.91,-24.5 z"
       inkscape:connector-curvature="0" />
    <path
       style="fill:#929292;fill-opacity:1"
       id="path240"
       d="m 553.64,1527.4 -8.904,-24.44 c 1.881,14.333 8.904,24.44 8.904,24.44 z"
       inkscape:connector-curvature="0" />
    <path
       style="fill:#929292;fill-opacity:1"
       id="path242"
       d="m 61.671,176.74 c 17.772,-10.544 38.773,5.565 52.65,20.827 24.051,31.813 39.036,71.531 45.065,83.417 -15.591,-43.558 -42.652,-122.32 -83.258,-132.45 -21.391,-5.512 -31.921,22.256 -19.991,39.982 -8.193,2.888 -17.408,6.494 -23.75,18.337 -9.094,16.712 -7.561,45.184 8.104,56.024 13.038,7.261 28.577,-0.833 27.466,-19.711 -0.859,-19.18 -14.682,-19.357 -18.844,-15.188 -4.282,4.364 -6.588,14.258 1.898,19.039 -21.5,7.882 -27.701,-33.864 5.413,-39.561 28.96,-2.21 54.191,24.623 56.244,27.747 -0.415,0 -1.251,0.006 -1.666,0.006 -11.005,-14.338 -29.649,-17.907 -32.867,-5.803 -2.92,11.755 6.685,18.534 12.766,14.011 8.043,-5.085 -0.386,-19.2 -5.529,-7.201 -5.271,-6.177 5.359,-19.052 22.902,0.519 -7.815,8.468 -0.754,25.392 9.697,33.153 -13.426,-4.272 -23.641,-0.021 -30.145,10.215 -6.143,8.968 -7.422,14.535 -19.075,10.966 22.105,14.566 37.076,-26.137 73.739,0.58 0.067,0.336 0.195,1.013 0.256,1.349 -3.41,-3.625 -18.521,-12.309 -31.402,-8.201 -17.358,5.562 -22.244,30.242 -6.664,40.744 7.412,5.119 16.13,2.67 19.258,-9.044 -2.972,-0.403 -5.858,-1.855 -7.554,-4.387 -11.699,-16.452 32.857,-31.396 52.333,31.207 -17.625,-29.772 -34.851,-3.863 -26.959,9.33 5.639,9.712 18.369,6.078 16.982,-3.808 -0.397,-2.795 -3.009,-5.187 -5.895,-4.967 -1.66,-0.104 -2.898,1.123 -4.162,1.995 -0.667,-9.916 13.236,-13.937 22.56,8.47 2.679,6.212 3.643,12.961 5.052,19.527 29.611,155.72 -59.323,146.83 -54.523,121.85 0.61,0.519 1.208,1.049 1.873,1.501 3.124,0.879 6.145,-1.446 7.573,-4.064 4.357,-8.334 -10.089,-19.129 -18.606,-10.16 -13.22,14.474 4.859,44.752 29.986,40.403 49.585,-9.656 67.838,-137.2 6.78,-260.22 -18.246,-36.387 -46.715,-78.348 -87.25,-75.674 -10.719,-10.308 -0.504,-33.534 29.681,-13.278 -12.171,-6.555 -24.796,-10.256 -30.138,2.52 z m 58.838,69.163 c 5.271,0.887 25.251,32.398 39.53,69.803 -3.375,-6.886 -10.34,-18.963 -17.153,-22.487 0.281,-0.262 0.567,-0.525 0.854,-0.787 2.056,2.148 4.302,4.162 6.761,5.84 -15.726,-23.143 -38.979,-33.472 -38.09,-47.719 0.409,-3.717 4.711,-5.907 8.098,-4.65 z"
       inkscape:connector-curvature="0" />
    <path
       style="fill:#929292;fill-opacity:1"
       id="path244"
       d="m 133.5,524.92 c -32.86,-1.049 -34.015,-48.599 -12.869,-51.216 12.343,-1.916 25.851,12.234 15.42,25.343 11.759,5.075 21.394,-17.285 4.613,-28.906 -20.319,-13.626 -47.118,4.376 -39.628,32.976 -5.851,-5.062 -15.478,-2.116 -13.15,7.365 0.671,3.045 4.29,5.406 7.231,3.789 4.342,-1.832 2.177,-10.97 -3.326,-5.132 -1.234,-5.204 5.983,-8.83 12.565,1.684 8.868,13.66 24.556,15.511 29.144,14.097 z"
       inkscape:connector-curvature="0" />
    <path
       style="fill:#929292;fill-opacity:1"
       id="path246"
       d="m 157.19,488.65 c -3.918,-0.604 -5.998,4.381 -4.522,7.5 0.866,2.252 3.741,3.576 5.901,2.27 3.753,-2.087 3.07,-9.093 -1.379,-9.77 z"
       inkscape:connector-curvature="0" />
    <path
       style="fill:#929292;fill-opacity:1"
       id="path248"
       d="m 165.09,490.31 c 3.686,-1.415 3.381,-7.859 -0.574,-8.665 -6.386,-1.187 -5.45,11.021 0.574,8.665 z"
       inkscape:connector-curvature="0" />
    <path
       style="fill:#929292;fill-opacity:1"
       id="path250"
       d="m 169.88,480.99 c 3.24,-1.3 2.96,-6.901 -0.452,-7.774 -5.941,-1.436 -5.165,10.199 0.452,7.774 z"
       inkscape:connector-curvature="0" />
    <path
       style="fill:#929292;fill-opacity:1"
       id="path252"
       d="m 169.69,470.55 c 0.933,1.422 3.088,1.837 4.418,0.732 2.465,-1.837 1.599,-6.749 -1.684,-7.005 -3.07,-0.073 -4.339,4.027 -2.734,6.273 z"
       inkscape:connector-curvature="0" />
    <path
       style="fill:#929292;fill-opacity:1"
       id="path254"
       d="m 176.46,461.55 c 2.502,-1.684 1.623,-6.505 -1.617,-6.597 -5.322,0.077 -2.899,9.945 1.617,6.597 z"
       inkscape:connector-curvature="0" />
    <path
       style="fill:#929292;fill-opacity:1"
       id="path256"
       d="m 177.72,452.28 c 2.636,-1.214 2.05,-6.096 -1.007,-6.2 -4.689,-0.611 -3.208,8.56 1.007,6.2 z"
       inkscape:connector-curvature="0" />
    <path
       style="fill:#929292;fill-opacity:1"
       id="path258"
       d="m 178.46,442.76 c 2.16,-1.111 1.947,-4.919 -0.47,-5.584 -4.799,-1.096 -3.382,8.064 0.47,5.584 z"
       inkscape:connector-curvature="0" />
    <path
       style="fill:#929292;fill-opacity:1"
       id="path260"
       d="m 176.31,433.38 c 0.537,1.08 2.227,1.398 3.014,0.427 1.434,-1.239 0.702,-4.284 -1.373,-4.223 -1.799,0.062 -2.623,2.435 -1.641,3.796 z"
       inkscape:connector-curvature="0" />
    <path
       style="fill:#929292;fill-opacity:1"
       id="path262"
       d="m 176.82,425.52 c 0.372,1.062 2.002,1.269 2.752,0.519 1.226,-0.988 0.702,-3.655 -1.062,-3.606 -1.605,-0.251 -2.422,1.866 -1.69,3.087 z"
       inkscape:connector-curvature="0" />
    <path
       style="fill:#929292;fill-opacity:1"
       id="path264"
       d="m 179.69,417.74 c -0.513,-1.922 -3.344,-0.879 -2.709,0.94 0.274,2.22 3.606,1.024 2.709,-0.94 z"
       inkscape:connector-curvature="0" />
    <path
       style="fill:#929292;fill-opacity:1"
       id="path266"
       d="m 150.48,544.73 -24.5,-13.562 c 0,0 12.79,13.429 24.5,13.562 z"
       inkscape:connector-curvature="0" />
    <path
       style="fill:#929292;fill-opacity:1"
       id="path268"
       d="m 503.6,168.15 c 42.956,-29.319 7.203,-69.068 -17.037,-57.892 -10.347,4.695 -8.106,19.421 2.038,21.534 4.259,1.08 8.854,-2.642 8.964,-6.956 0.122,-1.324 -1.007,-2.166 -1.727,-3.088 28.299,-2.628 29.211,89.255 -133.74,52.064 -24.292,-6.097 -31.673,-24.614 -15.982,-25.074 -7.871,8.809 7.038,14.293 11.46,5.809 4.144,-8.596 -6.88,-17.454 -16.873,-14.206 -12.362,3.648 -13.953,14.315 -6.944,21.297 2.636,3.014 6.181,4.931 9.483,7.097 -22.915,-7.776 -49.326,-22.502 -44.65,-46.34 2.245,-12.88 17.157,-8.358 18.02,1.629 11.276,-3.678 13.495,-10.589 10.307,-17.153 -10.487,-21.808 -48.939,-11.21 -42.319,18.624 3.724,16.31 15.441,27.012 30.401,33.995 -2.983,-0.675 -38.699,-13.911 -67.094,-35.856 -4.432,-3.506 -3.102,-18.347 14.236,-6.92 6.968,4.442 13.637,15.047 22.377,22.114 3.96,4.021 8.409,7.5 12.778,11.063 0.58,-0.152 1.184,-1.037 -0.03,-1.232 -37.628,-38.959 9.123,-56.797 -5.925,-79.469 2.542,10.61 -0.537,11.726 -9.885,17.837 -12.01,7.368 -15.677,17.862 -11.582,30.639 -10.818,-13.166 -26.624,-15.665 -32.927,-9.385 -19.732,-16.821 -6.803,-28.267 -0.445,-22.877 -2.923,0.409 -5.724,3.277 -4.32,6.322 2.471,3.655 8.512,3.051 10.959,-0.384 3.356,-3.686 1.495,-9.952 -2.776,-12.052 -16.729,-8.42 -28.372,12.757 -4.974,31.853 0.006,0.384 0.012,1.147 0.018,1.532 -14.842,-11.446 -38.08,-45.877 -22.767,-68.973 11.608,-17.258 40.427,-12.118 34.514,7.433 -9.03,-15.169 -31.442,1.971 -16.677,13.071 10.433,8.008 37.399,4.135 35.027,-15.719 -3.518,-28.004 -66.834,-32.647 -76.802,7.662 -27.194,-17.379 -66.472,11.007 -17.422,51.375 24.457,20.039 73.737,38.989 109.74,51.808 -4.148,-2.189 -133.17,-52.603 -104.16,-97.581 -8.428,3.302 -13.567,12.556 -1.654,31.237 -20.801,-27.229 -1.359,-42.973 12.436,-31.012 -6.72,86.555 229.6,164.44 315.95,106.17 z"
       inkscape:connector-curvature="0" />
    <path
       style="fill:#929292;fill-opacity:1"
       id="path270"
       d="m 505.85,100.02 c -3.602,-5.301 -0.845,-8.933 3.344,-8.207 -6.669,8.035 8.669,7.072 5.382,-0.482 -3.324,-8.014 -20.111,-2.83 -11.509,9.654 -6.944,-1.752 -14.475,-1.581 -21.175,1.049 -27.409,10.895 -15.988,51.184 7.103,47.469 7.41,-1.353 12.358,-6.087 10.374,-13.461 -22.365,14.742 -39.236,-22.814 -10.416,-28.985 15.823,-3.54 34.362,5.66 36.326,27.045 2.104,-22.397 -16.393,-30.045 -19.429,-34.082 z"
       inkscape:connector-curvature="0" />
    <path
       style="fill:#929292;fill-opacity:1"
       id="path272"
       d="m 212.59,133.27 c -53.508,-20.226 -66.649,-55.448 -82.996,-40.403 12.911,-3.492 12.761,4.566 20.766,16.561 -14.183,-8.942 -32.57,-11.523 -49.062,-8.126 l 0.016,0.016 c -3.489,16.893 -0.646,35.355 8.153,49.071 -14.055,-9.01 -18.892,-7.838 -16.891,-20.327 -13.774,14.71 17.415,26.942 40.72,82.038 -11.437,-48.679 -29.147,-64.078 -26.121,-104.92 l -0.005,-0.005 c 18.857,-1.387 37.758,2.004 51.74,8.955 12.331,4.772 53.313,17.064 53.68,17.142 z"
       inkscape:connector-curvature="0" />
    <path
       style="fill:#929292;fill-opacity:1"
       id="path274"
       d="m 544.73,150.42 -13.553,-24.44 c 9.64,59.132 -83.674,68.664 -142.94,65.318 -107.85,-7.947 -149.63,-66.578 -265.46,-68.517 l 0.054,0.054 c 0.779,33.526 5.343,63.771 17.412,98.233 16.727,47.844 75.417,152.05 42.868,260.38 -17.906,59.204 -47.281,50.973 -57.135,49.723 l 24.5,13.562 c 53.136,-17.964 66.877,-131.96 40.708,-224.52 -19.399,-68.691 -50.874,-104.81 -55.475,-184.5 l 0.007,0.007 c 108.72,6.264 144.47,65.814 275.12,68.741 46.131,-0.683 120.7,-10.624 133.89,-54.041 z"
       inkscape:connector-curvature="0" />
    <path
       style="fill:#929292;fill-opacity:1"
       id="path276"
       d="m 499,157.15 c 0.998,-7.393 -13.151,-5.812 -9.904,1.086 1.824,4.107 9.196,3.546 9.904,-1.086 z"
       inkscape:connector-curvature="0" />
    <path
       style="fill:#929292;fill-opacity:1"
       id="path278"
       d="m 484.26,160.47 c -1.885,0.635 -3.143,2.972 -2.19,4.821 1.562,3.515 7.792,3.076 8.5,-0.854 0.469,-3.265 -3.613,-5.352 -6.31,-3.967 z"
       inkscape:connector-curvature="0" />
    <path
       style="fill:#929292;fill-opacity:1"
       id="path280"
       d="m 481.3,169.31 c 1.262,-5.841 -10.148,-4.893 -7.896,0.409 1.147,3.454 7.188,3.185 7.896,-0.409 z"
       inkscape:connector-curvature="0" />
    <path
       style="fill:#929292;fill-opacity:1"
       id="path282"
       d="m 472.13,172.41 c 0.073,-3.014 -3.887,-4.259 -6.12,-2.795 -1.605,0.866 -2.032,3.228 -0.83,4.595 1.928,2.331 6.657,1.465 6.95,-1.8 z"
       inkscape:connector-curvature="0" />
    <path
       style="fill:#929292;fill-opacity:1"
       id="path284"
       d="m 462.11,174.88 c 0.128,-2.606 -3.234,-3.838 -5.26,-2.673 -1.867,0.812 -2.301,3.649 -0.586,4.851 1.91,1.771 5.834,0.617 5.846,-2.178 z"
       inkscape:connector-curvature="0" />
    <path
       style="fill:#929292;fill-opacity:1"
       id="path286"
       d="m 452.65,176.69 c 0.104,-2.209 -2.52,-3.43 -4.4,-2.764 -1.776,0.384 -2.91,2.709 -1.654,4.192 1.563,2.184 5.865,1.471 6.054,-1.428 z"
       inkscape:connector-curvature="0" />
    <path
       style="fill:#929292;fill-opacity:1"
       id="path288"
       d="m 443.16,177.91 c 0.495,-2.447 -2.789,-3.808 -4.625,-2.612 -1.178,0.567 -1.77,2.203 -0.958,3.307 1.214,2.057 5.028,1.709 5.583,-0.695 z"
       inkscape:connector-curvature="0" />
    <path
       style="fill:#929292;fill-opacity:1"
       id="path290"
       d="m 430.99,179.84 c 1.397,0.702 3.459,-0.22 3.527,-1.873 -0.116,-1.8 -2.581,-2.66 -3.924,-1.586 -1.337,0.75 -1.111,3.057 0.397,3.459 z"
       inkscape:connector-curvature="0" />
    <path
       style="fill:#929292;fill-opacity:1"
       id="path292"
       d="m 419.04,177.05 c -1.208,-0.397 -2.087,0.488 -2.581,1.483 3.825,3.176 4.288,-1.145 2.581,-1.483 z"
       inkscape:connector-curvature="0" />
    <path
       style="fill:#929292;fill-opacity:1"
       id="path294"
       d="m 426.56,178.41 c 0.104,-1.641 -2.142,-2.368 -3.314,-1.458 -1.214,0.611 -0.958,2.514 0.213,3.033 1.185,0.665 3.144,-0.055 3.101,-1.575 z"
       inkscape:connector-curvature="0" />
    <path
       style="fill:#929292;fill-opacity:1"
       id="path296"
       d="m 531.18,125.98 13.553,24.44 C 541.87,136.088 531.18,125.98 531.18,125.98 Z"
       inkscape:connector-curvature="0" />
    <path
       style="fill:#929292;fill-opacity:1"
       id="path298"
       d="m 1372.4,159.39 c 43.558,-15.591 122.32,-42.652 132.45,-83.258 5.512,-21.391 -22.256,-31.921 -39.982,-19.991 -2.888,-8.193 -6.495,-17.408 -18.337,-23.75 -16.712,-9.094 -45.184,-7.561 -56.024,8.104 -7.261,13.038 0.833,28.577 19.71,27.466 19.18,-0.859 19.357,-14.682 15.188,-18.844 -4.364,-4.282 -14.257,-6.588 -19.039,1.898 -7.882,-21.5 33.865,-27.701 39.561,5.413 2.21,28.96 -24.623,54.191 -27.747,56.244 0,-0.415 -0.01,-1.251 -0.01,-1.666 14.338,-11.005 17.907,-29.649 5.803,-32.867 -11.754,-2.92 -18.534,6.685 -14.011,12.766 5.085,8.043 19.2,-0.386 7.2,-5.529 6.177,-5.271 19.052,5.359 -0.519,22.902 -8.468,-7.815 -25.392,-0.754 -33.153,9.697 4.272,-13.426 0.021,-23.641 -10.215,-30.145 -8.968,-6.143 -14.535,-7.422 -10.966,-19.075 -14.566,22.105 26.137,37.076 -0.58,73.739 -0.336,0.067 -1.013,0.195 -1.349,0.256 3.625,-3.41 12.309,-18.521 8.201,-31.402 -5.562,-17.358 -30.242,-22.244 -40.744,-6.664 -5.119,7.412 -2.67,16.13 9.044,19.258 0.403,-2.972 1.855,-5.858 4.387,-7.555 16.452,-11.699 31.396,32.857 -31.207,52.333 29.772,-17.626 3.863,-34.851 -9.33,-26.959 -9.712,5.639 -6.078,18.369 3.808,16.982 2.795,-0.397 5.187,-3.009 4.967,-5.895 0.104,-1.66 -1.123,-2.898 -1.995,-4.162 9.916,-0.667 13.937,13.236 -8.47,22.56 -6.212,2.679 -12.961,3.643 -19.527,5.053 -155.72,29.611 -146.83,-59.323 -121.85,-54.523 -0.519,0.61 -1.05,1.208 -1.501,1.873 -0.878,3.124 1.446,6.145 4.064,7.573 8.334,4.357 19.129,-10.089 10.16,-18.606 -14.474,-13.22 -44.752,4.859 -40.403,29.986 9.656,49.585 137.2,67.838 260.22,6.78 36.387,-18.246 78.348,-46.715 75.674,-87.25 10.308,-10.719 33.534,-0.504 13.278,29.681 6.555,-12.172 10.255,-24.798 -2.52,-30.139 27.014,45.525 -89.346,90.16 -104.24,97.716 z m 35.082,-38.877 c -0.887,5.271 -32.398,25.251 -69.803,39.53 6.886,-3.375 18.963,-10.34 22.487,-17.153 0.262,0.281 0.525,0.567 0.787,0.854 -2.148,2.056 -4.162,4.302 -5.84,6.761 23.143,-15.726 33.472,-38.979 47.719,-38.09 3.716,0.409 5.907,4.711 4.65,8.098 z"
       inkscape:connector-curvature="0" />
    <path
       style="fill:#929292;fill-opacity:1"
       id="path300"
       d="m 1142.5,104.36 c -13.659,8.869 -15.51,24.556 -14.096,29.144 1.05,-32.86 48.599,-34.015 51.216,-12.869 1.916,12.343 -12.234,25.851 -25.343,15.42 -5.075,11.759 17.285,21.394 28.906,4.613 13.626,-20.319 -4.375,-47.118 -32.976,-39.628 5.062,-5.851 2.116,-15.478 -7.365,-13.15 -3.045,0.671 -5.406,4.29 -3.789,7.231 1.832,4.342 10.97,2.177 5.132,-3.326 5.203,-1.234 8.829,5.983 -1.685,12.565 z"
       inkscape:connector-curvature="0" />
    <path
       style="fill:#929292;fill-opacity:1"
       id="path302"
       d="m 1333.2,191.19 c 68.691,-19.399 104.81,-50.874 184.5,-55.475 l -0.01,0.007 c -6.265,108.72 -65.814,144.47 -68.741,275.12 0.578,39.071 5.829,87.322 30.554,117.46 6.273,7.31 14.169,13.596 23.487,16.427 l 24.44,-13.553 c -59.132,9.64 -68.664,-83.674 -65.318,-142.94 7.947,-107.85 66.578,-149.63 68.517,-265.46 l -0.054,0.054 c -133.45,3.1 -218,102.53 -358.61,60.28 -59.204,-17.906 -50.973,-47.281 -49.724,-57.135 l -13.562,24.5 c 17.965,53.135 131.96,66.877 224.52,40.707 z"
       inkscape:connector-curvature="0" />
    <path
       style="fill:#929292;fill-opacity:1"
       id="path304"
       d="m 1164.7,157.19 c 0.604,-3.918 -4.381,-5.998 -7.5,-4.522 -2.251,0.866 -3.576,3.741 -2.27,5.901 2.087,3.753 9.093,3.07 9.77,-1.379 z"
       inkscape:connector-curvature="0" />
    <path
       style="fill:#929292;fill-opacity:1"
       id="path306"
       d="m 1171.7,164.52 c 1.187,-6.386 -11.021,-5.451 -8.665,0.574 1.416,3.685 7.86,3.38 8.665,-0.574 z"
       inkscape:connector-curvature="0" />
    <path
       style="fill:#929292;fill-opacity:1"
       id="path308"
       d="m 1172.4,169.88 c 1.3,3.24 6.902,2.959 7.774,-0.452 1.437,-5.941 -10.199,-5.165 -7.774,0.452 z"
       inkscape:connector-curvature="0" />
    <path
       style="fill:#929292;fill-opacity:1"
       id="path310"
       d="m 1182.1,174.11 c 1.837,2.465 6.749,1.599 7.005,-1.684 0.073,-3.069 -4.027,-4.338 -6.273,-2.734 -1.421,0.933 -1.836,3.087 -0.732,4.418 z"
       inkscape:connector-curvature="0" />
    <path
       style="fill:#929292;fill-opacity:1"
       id="path312"
       d="m 1198.4,174.84 c -0.077,-5.322 -9.944,-2.899 -6.597,1.617 1.684,2.502 6.505,1.623 6.597,-1.617 z"
       inkscape:connector-curvature="0" />
    <path
       style="fill:#929292;fill-opacity:1"
       id="path314"
       d="m 1207.3,176.72 c 0.611,-4.689 -8.56,-3.208 -6.2,1.007 1.215,2.636 6.097,2.05 6.2,-1.007 z"
       inkscape:connector-curvature="0" />
    <path
       style="fill:#929292;fill-opacity:1"
       id="path316"
       d="m 1216.2,177.98 c 1.097,-4.799 -8.063,-3.382 -5.584,0.47 1.111,2.16 4.919,1.947 5.584,-0.47 z"
       inkscape:connector-curvature="0" />
    <path
       style="fill:#929292;fill-opacity:1"
       id="path318"
       d="m 1223.8,177.96 c -0.061,-1.8 -2.435,-2.624 -3.796,-1.641 -1.08,0.537 -1.397,2.227 -0.427,3.014 1.238,1.434 4.284,0.702 4.223,-1.373 z"
       inkscape:connector-curvature="0" />
    <path
       style="fill:#929292;fill-opacity:1"
       id="path320"
       d="m 1230.9,178.51 c 0.25,-1.605 -1.867,-2.423 -3.088,-1.69 -1.062,0.372 -1.269,2.002 -0.519,2.752 0.989,1.227 3.656,0.702 3.607,-1.062 z"
       inkscape:connector-curvature="0" />
    <path
       style="fill:#929292;fill-opacity:1"
       id="path322"
       d="m 1235.6,179.69 c 1.922,-0.513 0.879,-3.344 -0.94,-2.709 -2.221,0.274 -1.025,3.606 0.94,2.709 z"
       inkscape:connector-curvature="0" />
    <path
       style="fill:#929292;fill-opacity:1"
       id="path324"
       d="m 1122.2,125.98 c 0,0 -13.429,12.79 -13.562,24.5 z"
       inkscape:connector-curvature="0" />
    <path
       style="fill:#929292;fill-opacity:1"
       id="path326"
       d="m 1485.2,503.6 c 29.319,42.956 69.068,7.203 57.892,-17.037 -4.695,-10.347 -19.421,-8.106 -21.535,2.038 -1.08,4.259 2.642,8.854 6.956,8.964 1.324,0.122 2.166,-1.007 3.088,-1.727 2.627,28.299 -89.255,29.211 -52.064,-133.74 6.097,-24.292 24.614,-31.673 25.074,-15.982 -8.809,-7.871 -14.293,7.038 -5.809,11.46 8.595,4.144 17.454,-6.88 14.206,-16.873 -3.648,-12.362 -14.315,-13.953 -21.297,-6.944 -3.014,2.636 -4.931,6.181 -7.097,9.483 7.776,-22.915 22.502,-49.326 46.34,-44.65 12.88,2.245 8.358,17.157 -1.629,18.02 3.678,11.276 10.589,13.495 17.153,10.307 21.808,-10.487 11.21,-48.939 -18.624,-42.319 -16.31,3.724 -27.012,15.441 -33.995,30.401 0.675,-2.983 13.911,-38.699 35.857,-67.094 3.506,-4.432 18.347,-3.102 6.92,14.236 -4.442,6.968 -15.047,13.637 -22.114,22.377 -4.021,3.96 -7.5,8.409 -11.063,12.778 0.152,0.58 1.037,1.184 1.232,-0.03 38.959,-37.628 56.797,9.123 79.469,-5.925 -10.61,2.543 -11.725,-0.537 -17.837,-9.885 -7.368,-12.01 -17.862,-15.677 -30.639,-11.582 13.166,-10.818 15.665,-26.624 9.385,-32.927 16.821,-19.732 28.266,-6.803 22.877,-0.445 -0.409,-2.923 -3.277,-5.724 -6.322,-4.32 -3.655,2.471 -3.051,8.512 0.384,10.959 3.686,3.356 9.952,1.495 12.052,-2.776 8.42,-16.729 -12.757,-28.372 -31.853,-4.974 -0.384,0.006 -1.147,0.012 -1.532,0.018 11.446,-14.842 45.877,-38.08 68.973,-22.767 17.258,11.608 12.118,40.427 -7.433,34.514 15.165,-9.028 -1.966,-31.447 -13.071,-16.677 -8.008,10.433 -4.135,37.399 15.719,35.027 28.004,-3.518 32.647,-66.834 -7.662,-76.802 17.379,-27.194 -11.007,-66.472 -51.375,-17.422 -20.039,24.457 -38.989,73.737 -51.808,109.74 2.612,-4.949 52.713,-133.1 97.581,-104.16 -3.302,-8.428 -12.556,-13.567 -31.237,-1.654 27.229,-20.801 42.973,-1.359 31.011,12.436 -86.554,-6.72 -164.44,229.6 -106.17,315.95 z"
       inkscape:connector-curvature="0" />
    <path
       style="fill:#929292;fill-opacity:1"
       id="path328"
       d="m 1553.4,505.85 c 5.301,-3.602 8.933,-0.845 8.208,3.344 -8.083,-6.708 -6.992,8.633 0.482,5.382 8.014,-3.324 2.83,-20.111 -9.654,-11.509 1.752,-6.944 1.581,-14.475 -1.049,-21.175 -10.895,-27.409 -51.184,-15.988 -47.469,7.103 1.353,7.41 6.087,12.358 13.461,10.374 -14.74,-22.366 22.814,-39.236 28.985,-10.416 3.54,15.823 -5.66,34.362 -27.045,36.326 22.396,2.104 30.045,-16.394 34.081,-19.429 z"
       inkscape:connector-curvature="0" />
    <path
       style="fill:#929292;fill-opacity:1"
       id="path330"
       d="m 1560.5,129.6 c 3.492,12.911 -4.566,12.761 -16.561,20.766 8.942,-14.182 11.523,-32.569 8.126,-49.062 l -0.016,0.016 c -16.893,-3.489 -35.355,-0.646 -49.071,8.153 9.01,-14.055 7.838,-18.892 20.327,-16.891 -14.711,-13.773 -26.942,17.415 -82.039,40.72 48.662,-11.431 64.078,-29.147 104.92,-26.121 l 0.01,-0.005 c 1.387,18.857 -2.004,37.758 -8.955,51.739 -4.77,12.332 -17.063,53.314 -17.141,53.681 20.226,-53.508 55.447,-66.649 40.402,-82.996 z"
       inkscape:connector-curvature="0" />
    <path
       style="fill:#929292;fill-opacity:1"
       id="path332"
       d="m 1496.2,499 c 7.394,0.998 5.811,-13.151 -1.086,-9.904 -4.107,1.824 -3.546,9.196 1.086,9.904 z"
       inkscape:connector-curvature="0" />
    <path
       style="fill:#929292;fill-opacity:1"
       id="path334"
       d="m 1488.9,490.57 c 3.265,0.47 5.352,-3.613 3.967,-6.31 -0.635,-1.885 -2.972,-3.143 -4.821,-2.19 -3.516,1.562 -3.076,7.792 0.854,8.5 z"
       inkscape:connector-curvature="0" />
    <path
       style="fill:#929292;fill-opacity:1"
       id="path336"
       d="m 1484.1,481.3 c 5.842,1.262 4.893,-10.148 -0.409,-7.896 -3.453,1.147 -3.185,7.188 0.409,7.896 z"
       inkscape:connector-curvature="0" />
    <path
       style="fill:#929292;fill-opacity:1"
       id="path338"
       d="m 1481,472.13 c 3.014,0.073 4.259,-3.887 2.795,-6.12 -0.866,-1.605 -3.228,-2.032 -4.595,-0.83 -2.331,1.928 -1.465,6.657 1.8,6.95 z"
       inkscape:connector-curvature="0" />
    <path
       style="fill:#929292;fill-opacity:1"
       id="path340"
       d="m 1478.5,462.11 c 2.606,0.128 3.838,-3.234 2.673,-5.26 -0.812,-1.867 -3.649,-2.301 -4.851,-0.586 -1.771,1.91 -0.617,5.834 2.178,5.846 z"
       inkscape:connector-curvature="0" />
    <path
       style="fill:#929292;fill-opacity:1"
       id="path342"
       d="m 1476.7,452.65 c 2.209,0.104 3.429,-2.52 2.764,-4.4 -0.384,-1.776 -2.709,-2.91 -4.192,-1.654 -2.184,1.563 -1.47,5.865 1.428,6.054 z"
       inkscape:connector-curvature="0" />
    <path
       style="fill:#929292;fill-opacity:1"
       id="path344"
       d="m 1475.5,443.16 c 2.447,0.495 3.808,-2.789 2.612,-4.625 -0.567,-1.178 -2.203,-1.77 -3.307,-0.958 -2.057,1.214 -1.709,5.028 0.695,5.583 z"
       inkscape:connector-curvature="0" />
    <path
       style="fill:#929292;fill-opacity:1"
       id="path346"
       d="m 1475.4,434.51 c 1.8,-0.116 2.661,-2.581 1.587,-3.924 -0.751,-1.336 -3.057,-1.111 -3.46,0.397 -0.702,1.398 0.22,3.46 1.873,3.527 z"
       inkscape:connector-curvature="0" />
    <path
       style="fill:#929292;fill-opacity:1"
       id="path348"
       d="m 1476.3,419.04 c 0.397,-1.208 -0.488,-2.087 -1.483,-2.581 -3.176,3.825 1.145,4.288 1.483,2.581 z"
       inkscape:connector-curvature="0" />
    <path
       style="fill:#929292;fill-opacity:1"
       id="path350"
       d="m 1475,426.56 c 1.641,0.104 2.368,-2.142 1.458,-3.314 -0.611,-1.214 -2.514,-0.958 -3.033,0.213 -0.665,1.185 0.055,3.144 1.575,3.101 z"
       inkscape:connector-curvature="0" />
    <path
       style="fill:#929292;fill-opacity:1"
       id="path352"
       d="m 1527.4,531.18 -24.44,13.553 c 14.333,-2.863 24.44,-13.553 24.44,-13.553 z"
       inkscape:connector-curvature="0" />
    <path
       style="fill:#929292;fill-opacity:1"
       id="path354"
       d="m 1591.7,1476.6 c -45.525,27.009 -90.159,-89.348 -97.714,-104.24 15.591,43.558 42.652,122.32 83.258,132.45 21.391,5.512 31.921,-22.256 19.991,-39.982 8.193,-2.888 17.408,-6.495 23.75,-18.337 9.094,-16.712 7.561,-45.184 -8.104,-56.024 -13.038,-7.261 -28.577,0.833 -27.466,19.711 0.859,19.18 14.682,19.357 18.844,15.188 4.282,-4.364 6.588,-14.257 -1.898,-19.039 21.501,-7.882 27.701,33.865 -5.413,39.561 -28.96,2.21 -54.191,-24.623 -56.244,-27.747 0.415,0 1.251,-0.01 1.666,-0.01 11.005,14.338 29.649,17.907 32.867,5.803 2.92,-11.754 -6.685,-18.534 -12.766,-14.011 -8.043,5.085 0.386,19.2 5.529,7.201 5.271,6.177 -5.359,19.052 -22.902,-0.519 7.816,-8.468 0.754,-25.392 -9.697,-33.153 13.426,4.272 23.641,0.021 30.145,-10.215 6.143,-8.968 7.422,-14.535 19.075,-10.966 -22.105,-14.566 -37.076,26.137 -73.739,-0.58 -0.067,-0.336 -0.195,-1.013 -0.256,-1.349 3.41,3.625 18.52,12.309 31.402,8.201 17.358,-5.562 22.244,-30.242 6.663,-40.744 -7.412,-5.119 -16.13,-2.67 -19.258,9.043 2.972,0.403 5.858,1.855 7.554,4.388 11.699,16.452 -32.857,31.396 -52.333,-31.207 17.626,29.771 34.851,3.863 26.959,-9.33 -5.639,-9.712 -18.369,-6.078 -16.982,3.808 0.397,2.795 3.009,5.187 5.895,4.967 1.66,0.104 2.898,-1.123 4.162,-1.995 0.666,9.916 -13.236,13.937 -22.56,-8.47 -2.679,-6.212 -3.643,-12.961 -5.053,-19.527 -29.61,-155.72 59.323,-146.83 54.523,-121.85 -0.61,-0.519 -1.208,-1.05 -1.873,-1.501 -3.124,-0.879 -6.145,1.446 -7.573,4.064 -4.357,8.334 10.089,19.129 18.606,10.16 13.22,-14.474 -4.859,-44.752 -29.986,-40.403 -49.585,9.656 -67.838,137.2 -6.78,260.22 18.246,36.387 46.715,78.348 87.25,75.674 10.719,10.308 0.504,33.534 -29.681,13.278 12.219,6.58 24.809,10.23 30.139,-2.52 z m -58.838,-69.162 c -5.271,-0.887 -25.251,-32.398 -39.53,-69.803 3.375,6.886 10.34,18.963 17.153,22.487 -0.281,0.262 -0.568,0.525 -0.854,0.787 -2.056,-2.148 -4.302,-4.162 -6.761,-5.84 15.726,23.143 38.979,33.472 38.09,47.719 -0.409,3.716 -4.711,5.907 -8.098,4.65 z"
       inkscape:connector-curvature="0" />
    <path
       style="fill:#929292;fill-opacity:1"
       id="path356"
       d="m 1519.9,1128.5 c 32.86,1.049 34.015,48.599 12.869,51.216 -12.343,1.916 -25.851,-12.234 -15.42,-25.343 -11.759,-5.075 -21.394,17.285 -4.613,28.906 20.318,13.625 47.117,-4.376 39.628,-32.977 5.851,5.062 15.478,2.116 13.15,-7.365 -0.671,-3.045 -4.29,-5.406 -7.231,-3.789 -4.342,1.832 -2.177,10.97 3.326,5.132 1.234,5.204 -5.983,8.83 -12.564,-1.684 -8.869,-13.658 -24.557,-15.509 -29.145,-14.096 z"
       inkscape:connector-curvature="0" />
    <path
       style="fill:#929292;fill-opacity:1"
       id="path358"
       d="m 1496.2,1164.7 c 3.918,0.604 5.998,-4.381 4.522,-7.5 -0.866,-2.251 -3.741,-3.576 -5.901,-2.27 -3.753,2.087 -3.07,9.093 1.379,9.77 z"
       inkscape:connector-curvature="0" />
    <path
       style="fill:#929292;fill-opacity:1"
       id="path360"
       d="m 1488.3,1163.1 c -3.686,1.415 -3.381,7.859 0.573,8.665 6.386,1.187 5.45,-11.02 -0.573,-8.665 z"
       inkscape:connector-curvature="0" />
    <path
       style="fill:#929292;fill-opacity:1"
       id="path362"
       d="m 1483.5,1172.4 c -3.24,1.3 -2.96,6.901 0.452,7.774 5.941,1.436 5.164,-10.2 -0.452,-7.774 z"
       inkscape:connector-curvature="0" />
    <path
       style="fill:#929292;fill-opacity:1"
       id="path364"
       d="m 1483.7,1182.8 c -0.933,-1.422 -3.088,-1.837 -4.418,-0.732 -2.465,1.837 -1.599,6.749 1.684,7.005 3.07,0.074 4.339,-4.027 2.734,-6.273 z"
       inkscape:connector-curvature="0" />
    <path
       style="fill:#929292;fill-opacity:1"
       id="path366"
       d="m 1476.9,1191.8 c -2.502,1.684 -1.623,6.505 1.617,6.596 5.322,-0.076 2.899,-9.944 -1.617,-6.596 z"
       inkscape:connector-curvature="0" />
    <path
       style="fill:#929292;fill-opacity:1"
       id="path368"
       d="m 1475.6,1201.1 c -2.636,1.214 -2.05,6.096 1.007,6.2 4.689,0.611 3.208,-8.56 -1.007,-6.2 z"
       inkscape:connector-curvature="0" />
    <path
       style="fill:#929292;fill-opacity:1"
       id="path370"
       d="m 1474.9,1210.6 c -2.16,1.111 -1.947,4.919 0.47,5.584 4.802,1.097 3.381,-8.063 -0.47,-5.584 z"
       inkscape:connector-curvature="0" />
    <path
       style="fill:#929292;fill-opacity:1"
       id="path372"
       d="m 1477.1,1220 c -0.537,-1.08 -2.227,-1.397 -3.014,-0.427 -1.434,1.239 -0.702,4.284 1.373,4.223 1.799,-0.062 2.623,-2.435 1.641,-3.796 z"
       inkscape:connector-curvature="0" />
    <path
       style="fill:#929292;fill-opacity:1"
       id="path374"
       d="m 1476.6,1227.9 c -0.372,-1.062 -2.002,-1.269 -2.752,-0.519 -1.226,0.988 -0.702,3.655 1.062,3.606 1.605,0.251 2.422,-1.867 1.69,-3.087 z"
       inkscape:connector-curvature="0" />
    <path
       style="fill:#929292;fill-opacity:1"
       id="path376"
       d="m 1473.7,1235.6 c 0.513,1.922 3.344,0.879 2.709,-0.94 -0.274,-2.221 -3.606,-1.025 -2.709,0.94 z"
       inkscape:connector-curvature="0" />
    <path
       style="fill:#929292;fill-opacity:1"
       id="path378"
       d="m 1502.9,1108.6 24.5,13.562 c 0,0 -12.791,-13.429 -24.5,-13.562 z"
       inkscape:connector-curvature="0" />
    <path
       style="fill:#929292;fill-opacity:1"
       id="path380"
       d="m 1422.9,1589.2 c -10.433,-8.008 -37.399,-4.135 -35.027,15.719 3.519,28.004 66.834,32.647 76.802,-7.662 27.194,17.379 66.472,-11.007 17.422,-51.375 -24.457,-20.039 -73.737,-38.989 -109.74,-51.808 4.949,2.612 133.1,52.713 104.16,97.58 8.428,-3.302 13.567,-12.556 1.654,-31.237 20.801,27.229 1.359,42.973 -12.436,31.011 6.719,-86.554 -229.6,-164.44 -315.95,-106.17 -42.956,29.319 -7.203,69.068 17.037,57.892 10.347,-4.695 8.107,-19.421 -2.038,-21.535 -4.259,-1.08 -8.854,2.642 -8.964,6.956 -0.122,1.324 1.007,2.166 1.727,3.088 -28.299,2.628 -29.211,-89.254 133.74,-52.064 24.292,6.097 31.673,24.614 15.982,25.074 7.871,-8.809 -7.037,-14.292 -11.46,-5.809 -4.144,8.595 6.88,17.454 16.873,14.206 12.362,-3.647 13.953,-14.314 6.944,-21.297 -2.636,-3.014 -6.182,-4.931 -9.483,-7.097 22.915,7.776 49.326,22.502 44.65,46.34 -2.245,12.88 -17.157,8.358 -18.02,-1.629 -11.276,3.678 -13.495,10.589 -10.307,17.153 10.487,21.808 48.939,11.21 42.319,-18.624 -3.724,-16.31 -15.441,-27.012 -30.401,-33.996 2.983,0.675 38.699,13.911 67.094,35.857 4.432,3.506 3.102,18.347 -14.236,6.92 -6.968,-4.442 -13.637,-15.047 -22.377,-22.114 -3.96,-4.021 -8.409,-7.5 -12.778,-11.063 -0.58,0.152 -1.184,1.037 0.03,1.232 37.628,38.959 -9.123,56.797 5.925,79.469 -2.543,-10.61 0.537,-11.725 9.885,-17.837 12.01,-7.368 15.677,-17.862 11.582,-30.639 10.818,13.166 26.624,15.665 32.927,9.385 19.733,16.821 6.803,28.267 0.446,22.877 2.923,-0.409 5.724,-3.277 4.32,-6.322 -2.471,-3.655 -8.512,-3.051 -10.959,0.385 -3.356,3.686 -1.495,9.952 2.776,12.052 16.729,8.42 28.372,-12.757 4.974,-31.853 -0.01,-0.384 -0.012,-1.147 -0.018,-1.531 14.842,11.446 38.08,45.877 22.767,68.973 -11.608,17.258 -40.427,12.118 -34.514,-7.433 9.027,15.163 31.447,-1.967 16.677,-13.072 z"
       inkscape:connector-curvature="0" />
    <path
       style="fill:#929292;fill-opacity:1"
       id="path382"
       d="m 1171.5,1551.3 c 27.409,-10.895 15.988,-51.184 -7.103,-47.469 -7.41,1.353 -12.358,6.087 -10.374,13.461 22.365,-14.74 39.236,22.814 10.416,28.986 -15.823,3.54 -34.362,-5.66 -36.326,-27.045 -2.104,22.396 16.396,30.047 19.43,34.081 3.602,5.301 0.845,8.933 -3.344,8.208 6.669,-8.035 -8.669,-7.072 -5.382,0.482 3.324,8.014 20.11,2.83 11.509,-9.654 6.944,1.751 14.474,1.58 21.174,-1.05 z"
       inkscape:connector-curvature="0" />
    <path
       style="fill:#929292;fill-opacity:1"
       id="path384"
       d="m 1440.8,1520.1 c 53.508,20.226 66.649,55.448 82.996,40.403 -12.911,3.492 -12.761,-4.566 -20.766,-16.562 14.182,8.942 32.569,11.523 49.062,8.126 l -0.016,-0.016 c 3.489,-16.893 0.646,-35.355 -8.153,-49.071 14.056,9.01 18.892,7.838 16.891,20.327 13.774,-14.71 -17.415,-26.942 -40.72,-82.038 11.515,49.054 29.153,63.992 26.121,104.92 h 0.01 c -41.98,3.088 -59.239,-16.23 -105.42,-26.096 z"
       inkscape:connector-curvature="0" />
    <path
       style="fill:#929292;fill-opacity:1"
       id="path386"
       d="m 1122.2,1527.4 c -9.64,-59.131 83.674,-68.664 142.94,-65.318 107.85,7.947 149.63,66.578 265.46,68.518 l -0.054,-0.054 c -3.099,-133.45 -102.53,-218 -60.28,-358.61 17.906,-59.204 47.281,-50.973 57.135,-49.724 l -24.5,-13.562 c -53.136,17.964 -66.877,131.96 -40.708,224.52 19.4,68.692 50.874,104.81 55.475,184.5 l -0.01,-0.01 c -108.72,-6.265 -144.47,-65.814 -275.12,-68.741 -46.132,0.683 -120.7,10.625 -133.89,54.041 l 13.554,24.439 z"
       inkscape:connector-curvature="0" />
    <path
       style="fill:#929292;fill-opacity:1"
       id="path388"
       d="m 1154.4,1496.2 c -0.998,7.393 13.151,5.812 9.904,-1.086 -1.825,-4.107 -9.196,-3.546 -9.904,1.086 z"
       inkscape:connector-curvature="0" />
    <path
       style="fill:#929292;fill-opacity:1"
       id="path390"
       d="m 1169.1,1492.9 c 1.885,-0.635 3.142,-2.972 2.19,-4.821 -1.562,-3.515 -7.792,-3.075 -8.5,0.854 -0.47,3.265 3.612,5.352 6.31,3.967 z"
       inkscape:connector-curvature="0" />
    <path
       style="fill:#929292;fill-opacity:1"
       id="path392"
       d="m 1180,1483.7 c -1.147,-3.454 -7.188,-3.185 -7.896,0.409 -1.262,5.842 10.148,4.893 7.896,-0.409 z"
       inkscape:connector-curvature="0" />
    <path
       style="fill:#929292;fill-opacity:1"
       id="path394"
       d="m 1188.2,1479.2 c -1.928,-2.331 -6.658,-1.464 -6.951,1.8 -0.073,3.015 3.887,4.259 6.12,2.795 1.606,-0.867 2.033,-3.228 0.831,-4.595 z"
       inkscape:connector-curvature="0" />
    <path
       style="fill:#929292;fill-opacity:1"
       id="path396"
       d="m 1191.3,1478.5 c -0.128,2.606 3.234,3.838 5.26,2.673 1.867,-0.812 2.301,-3.649 0.586,-4.851 -1.91,-1.771 -5.833,-0.617 -5.846,2.178 z"
       inkscape:connector-curvature="0" />
    <path
       style="fill:#929292;fill-opacity:1"
       id="path398"
       d="m 1200.7,1476.7 c -0.104,2.209 2.52,3.429 4.4,2.764 1.776,-0.385 2.91,-2.71 1.654,-4.192 -1.563,-2.184 -5.865,-1.471 -6.054,1.428 z"
       inkscape:connector-curvature="0" />
    <path
       style="fill:#929292;fill-opacity:1"
       id="path400"
       d="m 1210.2,1475.5 c -0.494,2.447 2.789,3.808 4.626,2.612 1.178,-0.567 1.77,-2.203 0.958,-3.307 -1.215,-2.057 -5.029,-1.709 -5.584,0.695 z"
       inkscape:connector-curvature="0" />
    <path
       style="fill:#929292;fill-opacity:1"
       id="path402"
       d="m 1222.4,1473.5 c -1.397,-0.702 -3.459,0.22 -3.527,1.873 0.116,1.8 2.581,2.661 3.924,1.587 1.336,-0.751 1.11,-3.058 -0.397,-3.46 z"
       inkscape:connector-curvature="0" />
    <path
       style="fill:#929292;fill-opacity:1"
       id="path404"
       d="m 1234.3,1476.3 c 1.208,0.397 2.087,-0.488 2.581,-1.483 -3.826,-3.177 -4.287,1.145 -2.581,1.483 z"
       inkscape:connector-curvature="0" />
    <path
       style="fill:#929292;fill-opacity:1"
       id="path406"
       d="m 1226.8,1475 c -0.104,1.641 2.142,2.368 3.313,1.458 1.214,-0.61 0.958,-2.514 -0.213,-3.033 -1.184,-0.665 -3.142,0.055 -3.1,1.575 z"
       inkscape:connector-curvature="0" />
    <path
       style="fill:#929292;fill-opacity:1"
       id="path408"
       d="m 1122.2,1527.4 -13.553,-24.44 c 2.863,14.333 13.553,24.44 13.553,24.44 z"
       inkscape:connector-curvature="0" />
    <path
       style="fill:#929292;fill-opacity:1"
       id="path410"
       d="m 280.98,1494 c -43.558,15.591 -122.32,42.652 -132.46,83.259 -5.512,21.391 22.256,31.921 39.982,19.991 2.888,8.193 6.494,17.408 18.337,23.75 16.712,9.094 45.184,7.561 56.024,-8.104 7.261,-13.038 -0.833,-28.577 -19.711,-27.466 -19.18,0.859 -19.357,14.682 -15.188,18.844 4.364,4.282 14.258,6.588 19.039,-1.898 7.882,21.5 -33.865,27.701 -39.561,-5.413 -2.21,-28.96 24.623,-54.191 27.747,-56.244 0,0.415 0.006,1.251 0.006,1.666 -14.338,11.005 -17.907,29.649 -5.803,32.867 11.755,2.92 18.534,-6.685 14.011,-12.766 -5.085,-8.043 -19.2,0.386 -7.201,5.529 -6.177,5.271 -19.052,-5.359 0.519,-22.902 8.468,7.815 25.392,0.755 33.153,-9.697 -4.273,13.426 -0.021,23.641 10.215,30.145 8.968,6.143 14.535,7.422 10.966,19.076 14.567,-22.105 -26.137,-37.076 0.58,-73.739 0.336,-0.067 1.013,-0.195 1.349,-0.256 -3.625,3.41 -12.309,18.521 -8.201,31.402 5.562,17.358 30.242,22.244 40.744,6.664 5.119,-7.412 2.67,-16.13 -9.044,-19.259 -0.403,2.972 -1.855,5.858 -4.387,7.555 -16.452,11.699 -31.396,-32.857 31.207,-52.333 -29.771,17.626 -3.863,34.851 9.33,26.959 9.712,-5.639 6.078,-18.369 -3.808,-16.982 -2.795,0.397 -5.187,3.009 -4.967,5.895 -0.104,1.66 1.123,2.898 1.995,4.162 -9.916,0.666 -13.937,-13.236 8.47,-22.56 6.212,-2.679 12.961,-3.643 19.527,-5.053 155.72,-29.611 146.83,59.323 121.85,54.523 0.519,-0.61 1.049,-1.208 1.501,-1.873 0.878,-3.124 -1.446,-6.145 -4.064,-7.573 -8.334,-4.357 -19.129,10.089 -10.16,18.606 14.474,13.22 44.752,-4.859 40.403,-29.986 -9.656,-49.585 -137.2,-67.838 -260.22,-6.78 -36.387,18.246 -78.348,46.715 -75.674,87.25 -10.308,10.719 -33.534,0.504 -13.278,-29.681 -6.58,12.219 -10.23,24.809 2.52,30.139 -27.009,-45.526 89.349,-90.161 104.24,-97.717 z m -35.081,38.877 c 0.887,-5.271 32.398,-25.251 69.803,-39.53 -6.886,3.375 -18.963,10.34 -22.487,17.153 -0.262,-0.281 -0.525,-0.567 -0.787,-0.854 2.148,-2.056 4.162,-4.302 5.84,-6.761 -23.143,15.726 -33.472,38.979 -47.719,38.09 -3.717,-0.409 -5.907,-4.711 -4.65,-8.098 z"
       inkscape:connector-curvature="0" />
    <path
       style="fill:#929292;fill-opacity:1"
       id="path412"
       d="m 510.82,1549 c 13.659,-8.869 15.51,-24.556 14.096,-29.144 -1.049,32.861 -48.599,34.015 -51.216,12.87 -1.916,-12.343 12.234,-25.851 25.343,-15.42 5.075,-11.759 -17.286,-21.395 -28.906,-4.613 -13.626,20.318 4.376,47.118 32.976,39.628 -5.062,5.851 -2.116,15.478 7.365,13.15 3.045,-0.671 5.406,-4.29 3.789,-7.231 -1.832,-4.342 -10.97,-2.177 -5.132,3.326 -5.203,1.232 -8.829,-5.985 1.685,-12.566 z"
       inkscape:connector-curvature="0" />
    <path
       style="fill:#929292;fill-opacity:1"
       id="path414"
       d="m 320.21,1462.2 c -53.01,14.971 -90.99,39.229 -140.5,49.635 -13.63,3.035 -28.661,4.954 -43.999,5.84 l 0.007,-0.01 c 6.264,-108.72 65.814,-144.47 68.741,-275.12 -0.683,-46.132 -10.625,-120.7 -54.041,-133.89 l -24.44,13.553 c 59.131,-9.64 68.664,83.674 65.318,142.94 -7.947,107.85 -66.578,149.63 -68.517,265.46 l 0.054,-0.054 c 133.45,-3.099 218,-102.53 358.61,-60.28 59.204,17.906 50.973,47.281 49.723,57.135 l 13.562,-24.5 c -17.965,-53.135 -131.96,-66.877 -224.52,-40.707 z"
       inkscape:connector-curvature="0" />
    <path
       style="fill:#929292;fill-opacity:1"
       id="path416"
       d="m 488.65,1496.2 c -0.604,3.918 4.381,5.999 7.5,4.522 2.252,-0.866 3.576,-3.741 2.27,-5.901 -2.087,-3.753 -9.093,-3.07 -9.77,1.379 z"
       inkscape:connector-curvature="0" />
    <path
       style="fill:#929292;fill-opacity:1"
       id="path418"
       d="m 481.65,1488.9 c -1.187,6.386 11.021,5.449 8.665,-0.573 -1.416,-3.686 -7.86,-3.381 -8.665,0.573 z"
       inkscape:connector-curvature="0" />
    <path
       style="fill:#929292;fill-opacity:1"
       id="path420"
       d="m 480.99,1483.5 c -1.3,-3.24 -6.901,-2.96 -7.774,0.452 -1.436,5.94 10.199,5.164 7.774,-0.452 z"
       inkscape:connector-curvature="0" />
    <path
       style="fill:#929292;fill-opacity:1"
       id="path422"
       d="m 471.28,1479.3 c -1.837,-2.465 -6.749,-1.599 -7.005,1.684 -0.073,3.069 4.027,4.339 6.273,2.734 1.422,-0.934 1.837,-3.088 0.732,-4.418 z"
       inkscape:connector-curvature="0" />
    <path
       style="fill:#929292;fill-opacity:1"
       id="path424"
       d="m 454.95,1478.5 c 0.077,5.322 9.945,2.899 6.597,-1.617 -1.685,-2.502 -6.506,-1.623 -6.597,1.617 z"
       inkscape:connector-curvature="0" />
    <path
       style="fill:#929292;fill-opacity:1"
       id="path426"
       d="m 446.08,1476.7 c -0.611,4.689 8.56,3.208 6.2,-1.007 -1.215,-2.636 -6.097,-2.05 -6.2,1.007 z"
       inkscape:connector-curvature="0" />
    <path
       style="fill:#929292;fill-opacity:1"
       id="path428"
       d="m 437.18,1475.4 c -1.097,4.799 8.063,3.382 5.584,-0.47 -1.111,-2.16 -4.919,-1.947 -5.584,0.47 z"
       inkscape:connector-curvature="0" />
    <path
       style="fill:#929292;fill-opacity:1"
       id="path430"
       d="m 429.59,1475.4 c 0.061,1.8 2.435,2.624 3.796,1.641 1.08,-0.537 1.398,-2.227 0.427,-3.014 -1.239,-1.434 -4.284,-0.701 -4.223,1.373 z"
       inkscape:connector-curvature="0" />
    <path
       style="fill:#929292;fill-opacity:1"
       id="path432"
       d="m 422.43,1474.9 c -0.25,1.605 1.867,2.422 3.088,1.69 1.062,-0.372 1.269,-2.002 0.519,-2.752 -0.989,-1.226 -3.656,-0.702 -3.607,1.062 z"
       inkscape:connector-curvature="0" />
    <path
       style="fill:#929292;fill-opacity:1"
       id="path434"
       d="m 417.74,1473.7 c -1.922,0.513 -0.879,3.344 0.94,2.709 2.22,-0.274 1.024,-3.606 -0.94,-2.709 z"
       inkscape:connector-curvature="0" />
    <path
       style="fill:#929292;fill-opacity:1"
       id="path436"
       d="m 531.17,1527.4 c 0,0 13.429,-12.79 13.562,-24.5 z"
       inkscape:connector-curvature="0" />
    <path
       style="fill:#929292;fill-opacity:1"
       id="path438"
       d="m 168.15,1149.8 c -29.319,-42.956 -69.068,-7.203 -57.892,17.037 4.695,10.348 19.421,8.107 21.534,-2.038 1.08,-4.259 -2.642,-8.854 -6.956,-8.964 -1.324,-0.122 -2.166,1.007 -3.088,1.727 -2.628,-28.299 89.255,-29.211 52.064,133.74 -6.097,24.292 -24.614,31.672 -25.074,15.981 8.809,7.871 14.293,-7.037 5.809,-11.46 -8.595,-4.144 -17.454,6.88 -14.206,16.873 3.648,12.362 14.315,13.953 21.297,6.944 3.014,-2.636 4.931,-6.181 7.097,-9.483 -7.776,22.915 -22.502,49.326 -46.34,44.65 -12.88,-2.245 -8.358,-17.157 1.629,-18.02 -3.678,-11.276 -10.589,-13.495 -17.153,-10.307 -21.808,10.487 -11.21,48.939 18.624,42.319 16.31,-3.724 27.012,-15.441 33.996,-30.401 -0.675,2.983 -13.911,38.699 -35.857,67.094 -3.506,4.432 -18.347,3.102 -6.92,-14.236 4.442,-6.968 15.047,-13.637 22.114,-22.377 4.021,-3.96 7.5,-8.409 11.063,-12.778 -0.152,-0.58 -1.037,-1.184 -1.232,0.03 -38.959,37.628 -56.797,-9.123 -79.469,5.925 10.61,-2.543 11.726,0.537 17.837,9.885 7.368,12.01 17.862,15.677 30.639,11.582 -13.166,10.818 -15.665,26.624 -9.385,32.927 -16.821,19.733 -28.267,6.803 -22.877,0.446 0.409,2.923 3.277,5.724 6.322,4.32 3.655,-2.471 3.051,-8.512 -0.384,-10.959 -3.686,-3.356 -9.952,-1.495 -12.052,2.776 -8.42,16.729 12.757,28.372 31.853,4.974 0.384,-0.01 1.147,-0.012 1.532,-0.018 -11.446,14.842 -45.877,38.079 -68.973,22.767 -17.258,-11.608 -12.118,-40.427 7.433,-34.514 -15.17,9.03 1.971,31.441 13.071,16.677 8.008,-10.433 4.135,-37.399 -15.719,-35.027 -28.004,3.519 -32.647,66.834 7.662,76.802 -17.379,27.194 11.007,66.472 51.375,17.422 20.039,-24.457 38.989,-73.737 51.808,-109.74 -2.612,4.949 -52.713,133.1 -97.581,104.16 3.302,8.428 12.556,13.567 31.237,1.654 -27.229,20.801 -42.973,1.359 -31.012,-12.436 86.555,6.72 164.44,-229.6 106.17,-315.95 z"
       inkscape:connector-curvature="0" />
    <path
       style="fill:#929292;fill-opacity:1"
       id="path440"
       d="m 100.02,1147.5 c -5.301,3.602 -8.933,0.845 -8.207,-3.344 8.082,6.708 6.991,-8.633 -0.482,-5.382 -8.014,3.324 -2.83,20.111 9.654,11.509 -1.752,6.944 -1.581,14.475 1.049,21.175 10.895,27.409 51.184,15.988 47.469,-7.103 -1.353,-7.41 -6.087,-12.358 -13.461,-10.374 14.741,22.365 -22.814,39.236 -28.985,10.416 -3.54,-15.823 5.66,-34.362 27.045,-36.326 -22.397,-2.105 -30.042,16.39 -34.082,19.429 z"
       inkscape:connector-curvature="0" />
    <path
       style="fill:#929292;fill-opacity:1"
       id="path442"
       d="m 92.866,1523.8 c -3.492,-12.911 4.566,-12.761 16.561,-20.766 -8.942,14.182 -11.523,32.569 -8.126,49.062 l 0.016,-0.016 c 16.893,3.489 35.355,0.646 49.071,-8.153 -9.01,14.055 -7.838,18.892 -20.327,16.891 14.71,13.773 26.942,-17.415 82.038,-40.72 -48.794,11.472 -64.075,29.147 -104.92,26.121 h -0.005 c -1.387,-18.857 2.004,-37.758 8.955,-51.74 4.77,-12.332 17.063,-53.314 17.141,-53.681 -20.225,53.509 -55.447,66.65 -40.402,82.997 z"
       inkscape:connector-curvature="0" />
    <path
       style="fill:#929292;fill-opacity:1"
       id="path444"
       d="m 157.15,1154.4 c -7.393,-0.998 -5.812,13.151 1.086,9.904 4.108,-1.825 3.546,-9.196 -1.086,-9.904 z"
       inkscape:connector-curvature="0" />
    <path
       style="fill:#929292;fill-opacity:1"
       id="path446"
       d="m 164.44,1162.8 c -3.265,-0.469 -5.352,3.613 -3.966,6.31 0.635,1.885 2.972,3.142 4.821,2.19 3.514,-1.562 3.074,-7.792 -0.855,-8.5 z"
       inkscape:connector-curvature="0" />
    <path
       style="fill:#929292;fill-opacity:1"
       id="path448"
       d="m 169.31,1172.1 c -5.841,-1.262 -4.892,10.148 0.409,7.896 3.454,-1.147 3.185,-7.188 -0.409,-7.896 z"
       inkscape:connector-curvature="0" />
    <path
       style="fill:#929292;fill-opacity:1"
       id="path450"
       d="m 172.41,1181.2 c -3.014,-0.073 -4.259,3.887 -2.795,6.12 0.866,1.605 3.228,2.032 4.595,0.83 2.331,-1.928 1.465,-6.657 -1.8,-6.95 z"
       inkscape:connector-curvature="0" />
    <path
       style="fill:#929292;fill-opacity:1"
       id="path452"
       d="m 174.89,1191.3 c -2.606,-0.128 -3.838,3.234 -2.673,5.26 0.812,1.867 3.649,2.301 4.851,0.586 1.77,-1.91 0.616,-5.833 -2.178,-5.846 z"
       inkscape:connector-curvature="0" />
    <path
       style="fill:#929292;fill-opacity:1"
       id="path454"
       d="m 176.69,1200.7 c -2.209,-0.104 -3.429,2.52 -2.764,4.4 0.384,1.776 2.709,2.91 4.192,1.653 2.185,-1.562 1.471,-5.864 -1.428,-6.053 z"
       inkscape:connector-curvature="0" />
    <path
       style="fill:#929292;fill-opacity:1"
       id="path456"
       d="m 177.91,1210.2 c -2.447,-0.495 -3.808,2.788 -2.612,4.625 0.567,1.178 2.203,1.77 3.307,0.958 2.057,-1.214 1.709,-5.028 -0.695,-5.583 z"
       inkscape:connector-curvature="0" />
    <path
       style="fill:#929292;fill-opacity:1"
       id="path458"
       d="m 177.97,1218.9 c -1.8,0.116 -2.66,2.581 -1.586,3.924 0.751,1.336 3.057,1.111 3.46,-0.397 0.701,-1.398 -0.22,-3.46 -1.874,-3.527 z"
       inkscape:connector-curvature="0" />
    <path
       style="fill:#929292;fill-opacity:1"
       id="path460"
       d="m 177.05,1234.3 c -0.397,1.208 0.488,2.087 1.483,2.581 3.176,-3.825 -1.145,-4.288 -1.483,-2.581 z"
       inkscape:connector-curvature="0" />
    <path
       style="fill:#929292;fill-opacity:1"
       id="path462"
       d="m 178.41,1226.8 c -1.641,-0.104 -2.368,2.142 -1.458,3.314 0.611,1.214 2.514,0.958 3.033,-0.214 0.665,-1.184 -0.055,-3.142 -1.575,-3.1 z"
       inkscape:connector-curvature="0" />
    <path
       style="fill:#929292;fill-opacity:1"
       id="path464"
       d="m 125.98,1122.2 24.44,-13.553 c -14.332,2.863 -24.44,13.553 -24.44,13.553 z"
       inkscape:connector-curvature="0" />
  </g>
</svg>
