<?xml version="1.0" encoding="UTF-8" standalone="no"?>
<!-- Created with Inkscape (http://www.inkscape.org/) -->

<svg
   xmlns:dc="http://purl.org/dc/elements/1.1/"
   xmlns:cc="http://creativecommons.org/ns#"
   xmlns:rdf="http://www.w3.org/1999/02/22-rdf-syntax-ns#"
   xmlns:svg="http://www.w3.org/2000/svg"
   xmlns="http://www.w3.org/2000/svg"
   xmlns:sodipodi="http://sodipodi.sourceforge.net/DTD/sodipodi-0.dtd"
   xmlns:inkscape="http://www.inkscape.org/namespaces/inkscape"
   width="9.5927496mm"
   height="4.749104mm"
   viewBox="0 0 9.5927496 4.749104"
   version="1.1"
   id="svg14996"
   inkscape:version="0.92.1 r15371"
   sodipodi:docname="line.svg">
  <defs
     id="defs14990" />
  <sodipodi:namedview
     id="base"
     pagecolor="#ffffff"
     bordercolor="#666666"
     borderopacity="1.0"
     inkscape:pageopacity="0.0"
     inkscape:pageshadow="2"
     inkscape:zoom="5.6"
     inkscape:cx="37.23112"
     inkscape:cy="-28.517215"
     inkscape:document-units="mm"
     inkscape:current-layer="layer1"
     showgrid="false"
     fit-margin-top="0"
     fit-margin-left="0"
     fit-margin-right="0"
     fit-margin-bottom="0"
     inkscape:window-width="1920"
     inkscape:window-height="1026"
     inkscape:window-x="0"
     inkscape:window-y="31"
     inkscape:window-maximized="1" />
  <metadata
     id="metadata14993">
    <rdf:RDF>
      <cc:Work
         rdf:about="">
        <dc:format>image/svg+xml</dc:format>
        <dc:type
           rdf:resource="http://purl.org/dc/dcmitype/StillImage" />
        <dc:title></dc:title>
      </cc:Work>
    </rdf:RDF>
  </metadata>
  <g
     inkscape:label="Layer 1"
     inkscape:groupmode="layer"
     id="layer1"
     transform="translate(-217.01434,-49.70845)">
    <path
       inkscape:connector-curvature="0"
       id="path4730"
       style="fill:#c6c6c6;fill-opacity:1;fill-rule:nonzero;stroke:none;stroke-width:0.03527778"
       d="m 217.20731,50.084511 0.21237,-7.14e-4 -7.1e-4,0.913694 c -0.11536,-0.291394 -0.19086,-0.596194 -0.21167,-0.912989 z m 0.41169,-7.14e-4 0.3048,7.14e-4 v 1.774825 c -0.11324,-0.140758 -0.21625,-0.286808 -0.3048,-0.440266 z m 0.50553,0 h 0.3041 l -3.5e-4,2.2987 c -0.1076,-0.09313 -0.20884,-0.189089 -0.30374,-0.289631 z m 0.50412,7.14e-4 0.30515,-7.14e-4 v 2.676525 c -0.10548,-0.06703 -0.20708,-0.136878 -0.30444,-0.211314 z m 0.50518,-7.14e-4 h 0.30515 l -3.4e-4,2.954161 c -0.10442,-0.05009 -0.20602,-0.103717 -0.3048,-0.160514 z m 0.50553,0 0.30409,7.14e-4 -3.4e-4,3.163359 c -0.10301,-0.03634 -0.20496,-0.07444 -0.30374,-0.116417 z m 0.50447,7.14e-4 0.3048,-7.14e-4 -3.4e-4,3.318227 c -0.10337,-0.02611 -0.20426,-0.05539 -0.30445,-0.08643 z m 0.50447,3.360209 v -3.360914 l 0.3048,7.14e-4 v 3.417358 c -0.10301,-0.01552 -0.2039,-0.03598 -0.3048,-0.05715 z m 0.50518,-3.360914 h 0.3048 l -7.1e-4,3.469216 c -0.10196,-0.0063 -0.2032,-0.01587 -0.3041,-0.02752 z m 0.50447,7.14e-4 h 0.30516 v 3.476625 c -0.0512,7.14e-4 -0.1009,0.0056 -0.1524,0.0056 -0.0519,0 -0.1016,-0.0046 -0.15205,-0.0056 z m 0.50553,0 h 0.3041 l 7.1e-4,3.440642 c -0.10089,0.01129 -0.20179,0.02152 -0.3048,0.02787 z m 0.50448,0 0.30444,-7.14e-4 v 3.360914 c -0.10089,0.02117 -0.20143,0.04198 -0.30444,0.05644 z m 0.50517,3.316817 v -3.317531 h 0.3048 l -7.1e-4,3.231797 c -0.0995,0.03104 -0.20073,0.06033 -0.30409,0.08572 z m 0.50483,-0.153459 v -3.164072 l 0.30445,7.14e-4 v 3.046942 c -0.0991,0.04198 -0.20073,0.07973 -0.30445,0.116416 z m 0.50482,-3.164064 h 0.3048 v 2.793648 c -0.0991,0.05644 -0.20037,0.110419 -0.3048,0.160161 z m 0.50483,7.15e-4 0.3048,-7.15e-4 -2.7e-4,2.464506 c -0.0974,0.07514 -0.19932,0.144639 -0.30409,0.211667 z m 0.50482,-7.15e-4 0.30445,7.15e-4 v 2.006952 c -0.0945,0.1016 -0.19685,0.197909 -0.30445,0.290689 z m 0.50518,7.15e-4 0.30445,-7.15e-4 v 1.334903 c -0.0882,0.153105 -0.19156,0.299155 -0.30445,0.440619 z m 0.50483,-7.15e-4 h 0.2106 c -0.0201,0.3175 -0.0952,0.621595 -0.2106,0.912637 z m -9.1881,0.914048 c 0.2032,0.581025 0.5648,1.107369 1.04034,1.550458 -0.39793,0.48895 -0.79833,1.055158 -1.01882,1.448505 l -0.0215,0.03669 v 0.424039 c 0.17215,0 0.27658,-0.148166 0.3489,-0.27693 0.2099,-0.375356 0.59302,-0.916517 0.97649,-1.387828 0.89852,0.709436 2.12125,1.14935 3.47062,1.149703 1.34938,0 2.57352,-0.439561 3.47204,-1.148998 0.38312,0.470959 0.76588,1.011767 0.97578,1.38677 0.072,0.129117 0.1771,0.277283 0.3489,0.277283 v -0.424039 l -0.0219,-0.03669 c -0.21978,-0.394405 -0.62089,-0.959555 -1.01882,-1.449211 0.47942,-0.447322 0.83926,-0.979311 1.04034,-1.565627 l 2.6e-4,3.44e-4 V 49.70845 h -0.18767 v 0.0014 l -9.40496,-3.44e-4 v 1.288345" />
  </g>
</svg>
