<?xml version="1.0" standalone="no"?>
<!DOCTYPE svg PUBLIC "-//W3C//DTD SVG 20010904//EN"
 "http://www.w3.org/TR/2001/REC-SVG-20010904/DTD/svg10.dtd">
<svg version="1.0" xmlns="http://www.w3.org/2000/svg"
 width="700.000000pt" height="700.000000pt" viewBox="0 0 700.000000 700.000000"
 preserveAspectRatio="xMidYMid meet">
<metadata>
Created by potrace 1.11, written by Peter Selinger 2001-2013
</metadata>
<g transform="translate(0.000000,700.000000) scale(0.100000,-0.100000)"
fill="#000000" stroke="none">
<path d="M1503 5623 c-13 -2 -23 -9 -23 -14 0 -5 -6 -9 -14 -9 -17 0 -74 -63
-88 -99 -14 -34 -18 -3072 -4 -3116 18 -57 50 -95 101 -120 44 -21 68 -25 193
-30 78 -3 157 -7 175 -9 17 -3 64 -8 102 -11 39 -4 88 -10 110 -15 22 -5 63
-11 90 -15 28 -3 68 -11 90 -17 22 -5 49 -12 60 -14 54 -10 220 -61 298 -91
280 -107 504 -246 696 -430 25 -24 47 -43 51 -43 11 0 4 3164 -8 3192 -6 14
-38 64 -71 111 -291 410 -774 658 -1406 722 -71 7 -329 13 -352 8z"/>
<path d="M5236 5623 c-1 -2 -29 -5 -62 -7 -454 -35 -855 -183 -1157 -426 -133
-107 -307 -312 -347 -410 -13 -30 -15 -262 -15 -1617 l0 -1582 35 33 c75 73
106 99 194 165 111 83 269 176 394 231 95 42 301 116 347 124 15 3 41 10 58
15 18 6 43 12 57 15 14 3 48 9 75 14 28 6 75 13 105 17 30 4 57 8 60 10 3 2
37 6 75 10 39 3 81 8 95 10 14 3 92 7 174 11 161 6 201 16 249 62 64 61 60
-55 60 1637 l1 1540 -21 40 c-49 94 -103 117 -260 113 -63 -2 -116 -4 -117 -5z"/>
<path d="M812 4909 c-38 -22 -56 -40 -76 -80 l-26 -53 0 -1620 c0 -1555 1
-1623 19 -1662 25 -55 60 -88 116 -110 52 -19 54 -19 310 30 72 14 144 27 160
30 35 7 237 34 304 41 25 3 66 7 91 10 266 28 769 23 975 -10 17 -3 55 -8 85
-11 30 -3 58 -8 61 -10 4 -2 27 -6 50 -9 24 -3 52 -8 61 -11 9 -3 27 -7 40 -9
13 -3 35 -7 51 -11 15 -3 27 -4 27 -2 0 10 -144 121 -220 171 -184 120 -398
208 -635 263 -197 45 -307 59 -550 69 -82 4 -177 13 -209 21 -180 46 -324 188
-372 365 -16 59 -17 169 -18 1344 l-1 1280 -96 2 c-89 1 -100 -1 -147 -28z"/>
<path d="M5949 4938 c-1 -2 -3 -581 -4 -1288 -1 -1158 -3 -1290 -18 -1340 -53
-179 -199 -321 -375 -365 -31 -8 -120 -16 -197 -19 -137 -5 -245 -13 -295 -22
-14 -2 -45 -7 -70 -10 -25 -3 -94 -17 -155 -30 -60 -14 -119 -27 -130 -30 -12
-2 -48 -13 -80 -24 -33 -12 -80 -27 -105 -35 -83 -27 -304 -142 -396 -206 -95
-67 -193 -149 -178 -149 5 0 61 11 124 24 63 13 138 27 165 31 28 3 64 8 80
11 254 37 752 37 1068 -1 50 -6 194 -24 232 -29 24 -3 231 -40 280 -50 180
-36 204 -39 247 -27 54 15 104 60 129 115 18 39 18 107 19 1661 l0 1620 -28
55 c-22 45 -37 59 -81 82 -47 25 -64 28 -142 28 -49 0 -90 -1 -90 -2z"/>
</g>
</svg>
